{
	"patcher" : 	{
		"fileversion" : 1,
		"rect" : [ 30.0, 67.0, 639.0, 624.0 ],
		"bglocked" : 0,
		"defrect" : [ 30.0, 67.0, 639.0, 624.0 ],
		"openrect" : [ 0.0, 0.0, 0.0, 0.0 ],
		"openinpresentation" : 1,
		"default_fontsize" : 10.0,
		"default_fontface" : 0,
		"default_fontname" : "Arial Bold",
		"gridonopen" : 0,
		"gridsize" : [ 8.0, 8.0 ],
		"gridsnaponopen" : 0,
		"toolbarvisible" : 1,
		"boxanimatetime" : 200,
		"imprint" : 0,
		"enablehscroll" : 1,
		"enablevscroll" : 1,
		"devicewidth" : 0.0,
		"boxes" : [ 			{
				"box" : 				{
					"maxclass" : "live.text",
					"varname" : "4-deck-switch",
					"outlettype" : [ "", "" ],
					"activebgcolor" : [ 0.403922, 0.454902, 0.54902, 0.65098 ],
					"texton" : "4",
					"id" : "obj-81",
					"activebgoncolor" : [ 1.0, 0.0, 0.0, 0.74902 ],
					"activetextoncolor" : [ 1.0, 1.0, 1.0, 1.0 ],
					"presentation_rect" : [ 120.0, 1.0, 40.0, 14.0 ],
					"numinlets" : 1,
					"text" : "4",
					"patching_rect" : [ 248.0, 376.0, 40.0, 20.0 ],
					"presentation" : 1,
					"bordercolor" : [ 0.27451, 0.32549, 0.4, 0.0 ],
					"parameter_enable" : 1,
					"numoutlets" : 2,
					"saved_attribute_attributes" : 					{
						"valueof" : 						{
							"parameter_speedlim" : 0,
							"parameter_steps" : 0,
							"parameter_enum" : [ "val1", "val2" ],
							"parameter_exponent" : 1.0,
							"parameter_unitstyle" : 10,
							"parameter_mmax" : 1.0,
							"parameter_mmin" : 0.0,
							"parameter_type" : 2,
							"parameter_initial_enable" : 0,
							"parameter_shortname" : "live.text",
							"parameter_invisible" : 0,
							"parameter_modmax" : 127.0,
							"parameter_annotation_name" : "",
							"parameter_longname" : "4-deck-switch",
							"parameter_modmin" : 0.0,
							"parameter_linknames" : 1,
							"parameter_modmode" : 0,
							"parameter_info" : "",
							"parameter_order" : 0,
							"parameter_units" : ""
						}

					}

				}

			}
, 			{
				"box" : 				{
					"maxclass" : "live.text",
					"varname" : "3-deck-switch",
					"outlettype" : [ "", "" ],
					"activebgcolor" : [ 0.403922, 0.454902, 0.54902, 0.65098 ],
					"texton" : "3",
					"id" : "obj-80",
					"activebgoncolor" : [ 1.0, 0.0, 0.0, 0.74902 ],
					"activetextoncolor" : [ 1.0, 1.0, 1.0, 1.0 ],
					"presentation_rect" : [ 80.0, 1.0, 40.0, 14.0 ],
					"numinlets" : 1,
					"text" : "3",
					"patching_rect" : [ 184.0, 272.0, 40.0, 20.0 ],
					"presentation" : 1,
					"bordercolor" : [ 0.27451, 0.32549, 0.4, 0.0 ],
					"parameter_enable" : 1,
					"numoutlets" : 2,
					"saved_attribute_attributes" : 					{
						"valueof" : 						{
							"parameter_speedlim" : 0,
							"parameter_steps" : 0,
							"parameter_enum" : [ "val1", "val2" ],
							"parameter_exponent" : 1.0,
							"parameter_unitstyle" : 10,
							"parameter_mmax" : 1.0,
							"parameter_mmin" : 0.0,
							"parameter_type" : 2,
							"parameter_initial_enable" : 0,
							"parameter_shortname" : "live.text",
							"parameter_invisible" : 0,
							"parameter_modmax" : 127.0,
							"parameter_annotation_name" : "",
							"parameter_longname" : "3-deck-switch",
							"parameter_modmin" : 0.0,
							"parameter_linknames" : 1,
							"parameter_modmode" : 0,
							"parameter_info" : "",
							"parameter_order" : 0,
							"parameter_units" : ""
						}

					}

				}

			}
, 			{
				"box" : 				{
					"maxclass" : "live.text",
					"varname" : "2-deck-switch",
					"outlettype" : [ "", "" ],
					"activebgcolor" : [ 0.403922, 0.454902, 0.54902, 0.65098 ],
					"texton" : "2",
					"id" : "obj-83",
					"activebgoncolor" : [ 1.0, 0.0, 0.0, 0.74902 ],
					"activetextoncolor" : [ 1.0, 1.0, 1.0, 1.0 ],
					"presentation_rect" : [ 40.0, 1.0, 40.0, 14.0 ],
					"numinlets" : 1,
					"text" : "2",
					"patching_rect" : [ 120.0, 160.0, 40.0, 20.0 ],
					"presentation" : 1,
					"bordercolor" : [ 0.27451, 0.32549, 0.4, 0.0 ],
					"parameter_enable" : 1,
					"numoutlets" : 2,
					"saved_attribute_attributes" : 					{
						"valueof" : 						{
							"parameter_speedlim" : 0,
							"parameter_steps" : 0,
							"parameter_enum" : [ "val1", "val2" ],
							"parameter_exponent" : 1.0,
							"parameter_unitstyle" : 10,
							"parameter_mmax" : 1.0,
							"parameter_mmin" : 0.0,
							"parameter_type" : 2,
							"parameter_initial_enable" : 0,
							"parameter_shortname" : "live.text",
							"parameter_invisible" : 0,
							"parameter_modmax" : 127.0,
							"parameter_annotation_name" : "",
							"parameter_longname" : "2-deck-switch",
							"parameter_modmin" : 0.0,
							"parameter_linknames" : 1,
							"parameter_modmode" : 0,
							"parameter_info" : "",
							"parameter_order" : 0,
							"parameter_units" : ""
						}

					}

				}

			}
, 			{
				"box" : 				{
					"maxclass" : "outlet",
					"id" : "obj-1",
					"numinlets" : 1,
					"patching_rect" : [ 32.0, 544.0, 25.0, 25.0 ],
					"numoutlets" : 0,
					"comment" : ""
				}

			}
, 			{
				"box" : 				{
					"maxclass" : "message",
					"text" : "1",
					"outlettype" : [ "" ],
					"fontname" : "Arial Bold",
					"bgcolor" : [ 1.0, 0.0, 0.380392, 1.0 ],
					"id" : "obj-8",
					"fontsize" : 10.0,
					"numinlets" : 2,
					"patching_rect" : [ 280.0, 424.0, 32.0, 16.0 ],
					"numoutlets" : 1
				}

			}
, 			{
				"box" : 				{
					"maxclass" : "message",
					"text" : "0",
					"outlettype" : [ "" ],
					"fontname" : "Arial Bold",
					"bgcolor" : [ 1.0, 0.392157, 0.0, 1.0 ],
					"id" : "obj-9",
					"fontsize" : 10.0,
					"numinlets" : 2,
					"patching_rect" : [ 248.0, 424.0, 32.0, 16.0 ],
					"numoutlets" : 1
				}

			}
, 			{
				"box" : 				{
					"maxclass" : "newobj",
					"text" : "select 1 0",
					"outlettype" : [ "bang", "bang", "" ],
					"fontname" : "Arial Bold",
					"id" : "obj-10",
					"fontsize" : 10.0,
					"numinlets" : 1,
					"patching_rect" : [ 248.0, 400.0, 56.0, 18.0 ],
					"numoutlets" : 3
				}

			}
, 			{
				"box" : 				{
					"maxclass" : "message",
					"text" : "set $1",
					"outlettype" : [ "" ],
					"fontname" : "Arial Bold",
					"id" : "obj-12",
					"fontsize" : 10.0,
					"numinlets" : 2,
					"patching_rect" : [ 248.0, 352.0, 40.0, 16.0 ],
					"numoutlets" : 1
				}

			}
, 			{
				"box" : 				{
					"maxclass" : "message",
					"text" : "set $1",
					"outlettype" : [ "" ],
					"fontname" : "Arial Bold",
					"id" : "obj-14",
					"fontsize" : 10.0,
					"numinlets" : 2,
					"patching_rect" : [ 184.0, 248.0, 40.0, 16.0 ],
					"numoutlets" : 1
				}

			}
, 			{
				"box" : 				{
					"maxclass" : "message",
					"text" : "set $1",
					"outlettype" : [ "" ],
					"fontname" : "Arial Bold",
					"id" : "obj-47",
					"fontsize" : 10.0,
					"numinlets" : 2,
					"patching_rect" : [ 120.0, 136.0, 40.0, 16.0 ],
					"numoutlets" : 1
				}

			}
, 			{
				"box" : 				{
					"maxclass" : "message",
					"text" : "set $1",
					"outlettype" : [ "" ],
					"fontname" : "Arial Bold",
					"id" : "obj-48",
					"fontsize" : 10.0,
					"numinlets" : 2,
					"patching_rect" : [ 72.0, 16.0, 40.0, 16.0 ],
					"numoutlets" : 1
				}

			}
, 			{
				"box" : 				{
					"maxclass" : "message",
					"text" : "1",
					"outlettype" : [ "" ],
					"fontname" : "Arial Bold",
					"bgcolor" : [ 1.0, 0.0, 0.380392, 1.0 ],
					"id" : "obj-49",
					"fontsize" : 10.0,
					"numinlets" : 2,
					"patching_rect" : [ 216.0, 320.0, 32.0, 16.0 ],
					"numoutlets" : 1
				}

			}
, 			{
				"box" : 				{
					"maxclass" : "message",
					"text" : "0",
					"outlettype" : [ "" ],
					"fontname" : "Arial Bold",
					"bgcolor" : [ 1.0, 0.392157, 0.0, 1.0 ],
					"id" : "obj-54",
					"fontsize" : 10.0,
					"numinlets" : 2,
					"patching_rect" : [ 184.0, 320.0, 32.0, 16.0 ],
					"numoutlets" : 1
				}

			}
, 			{
				"box" : 				{
					"maxclass" : "newobj",
					"text" : "select 1 0",
					"outlettype" : [ "bang", "bang", "" ],
					"fontname" : "Arial Bold",
					"id" : "obj-55",
					"fontsize" : 10.0,
					"numinlets" : 1,
					"patching_rect" : [ 184.0, 296.0, 56.0, 18.0 ],
					"numoutlets" : 3
				}

			}
, 			{
				"box" : 				{
					"maxclass" : "message",
					"text" : "1",
					"outlettype" : [ "" ],
					"fontname" : "Arial Bold",
					"bgcolor" : [ 1.0, 0.0, 0.380392, 1.0 ],
					"id" : "obj-56",
					"fontsize" : 10.0,
					"numinlets" : 2,
					"patching_rect" : [ 152.0, 208.0, 32.0, 16.0 ],
					"numoutlets" : 1
				}

			}
, 			{
				"box" : 				{
					"maxclass" : "message",
					"text" : "0",
					"outlettype" : [ "" ],
					"fontname" : "Arial Bold",
					"bgcolor" : [ 1.0, 0.392157, 0.0, 1.0 ],
					"id" : "obj-66",
					"fontsize" : 10.0,
					"numinlets" : 2,
					"patching_rect" : [ 120.0, 208.0, 32.0, 16.0 ],
					"numoutlets" : 1
				}

			}
, 			{
				"box" : 				{
					"maxclass" : "newobj",
					"text" : "select 1 0",
					"outlettype" : [ "bang", "bang", "" ],
					"fontname" : "Arial Bold",
					"id" : "obj-72",
					"fontsize" : 10.0,
					"numinlets" : 1,
					"patching_rect" : [ 120.0, 184.0, 56.0, 18.0 ],
					"numoutlets" : 3
				}

			}
, 			{
				"box" : 				{
					"maxclass" : "message",
					"text" : "0",
					"outlettype" : [ "" ],
					"fontname" : "Arial Bold",
					"bgcolor" : [ 1.0, 0.392157, 0.0, 1.0 ],
					"id" : "obj-73",
					"fontsize" : 10.0,
					"numinlets" : 2,
					"patching_rect" : [ 72.0, 104.0, 32.0, 16.0 ],
					"numoutlets" : 1
				}

			}
, 			{
				"box" : 				{
					"maxclass" : "newobj",
					"text" : "select 1",
					"outlettype" : [ "bang", "" ],
					"fontname" : "Arial Bold",
					"id" : "obj-75",
					"fontsize" : 10.0,
					"numinlets" : 2,
					"patching_rect" : [ 72.0, 80.0, 48.0, 18.0 ],
					"numoutlets" : 2
				}

			}
, 			{
				"box" : 				{
					"maxclass" : "message",
					"text" : "4",
					"outlettype" : [ "" ],
					"fontname" : "Arial Bold",
					"id" : "obj-76",
					"fontsize" : 10.0,
					"numinlets" : 2,
					"patching_rect" : [ 208.0, 424.0, 32.0, 16.0 ],
					"numoutlets" : 1
				}

			}
, 			{
				"box" : 				{
					"maxclass" : "message",
					"text" : "3",
					"outlettype" : [ "" ],
					"fontname" : "Arial Bold",
					"id" : "obj-77",
					"fontsize" : 10.0,
					"numinlets" : 2,
					"patching_rect" : [ 144.0, 320.0, 32.0, 16.0 ],
					"numoutlets" : 1
				}

			}
, 			{
				"box" : 				{
					"maxclass" : "message",
					"text" : "2",
					"outlettype" : [ "" ],
					"fontname" : "Arial Bold",
					"id" : "obj-78",
					"fontsize" : 10.0,
					"numinlets" : 2,
					"patching_rect" : [ 80.0, 208.0, 32.0, 16.0 ],
					"numoutlets" : 1
				}

			}
, 			{
				"box" : 				{
					"maxclass" : "message",
					"text" : "1",
					"outlettype" : [ "" ],
					"fontname" : "Arial Bold",
					"id" : "obj-79",
					"fontsize" : 10.0,
					"numinlets" : 2,
					"patching_rect" : [ 32.0, 80.0, 32.0, 16.0 ],
					"numoutlets" : 1
				}

			}
, 			{
				"box" : 				{
					"maxclass" : "live.text",
					"varname" : "1-deck-switch",
					"outlettype" : [ "", "" ],
					"activebgcolor" : [ 0.403922, 0.454902, 0.54902, 0.65098 ],
					"texton" : "1",
					"id" : "obj-82",
					"activebgoncolor" : [ 1.0, 0.0, 0.0, 0.74902 ],
					"activetextoncolor" : [ 1.0, 1.0, 1.0, 1.0 ],
					"presentation_rect" : [ 0.0, 1.0, 40.0, 14.0 ],
					"numinlets" : 1,
					"text" : "1",
					"patching_rect" : [ 72.0, 56.0, 40.0, 20.0 ],
					"presentation" : 1,
					"bordercolor" : [ 0.27451, 0.32549, 0.4, 0.0 ],
					"parameter_enable" : 1,
					"numoutlets" : 2,
					"saved_attribute_attributes" : 					{
						"valueof" : 						{
							"parameter_speedlim" : 0,
							"parameter_steps" : 0,
							"parameter_enum" : [ "val1", "val2" ],
							"parameter_exponent" : 1.0,
							"parameter_unitstyle" : 10,
							"parameter_mmax" : 1.0,
							"parameter_mmin" : 0.0,
							"parameter_type" : 2,
							"parameter_initial_enable" : 0,
							"parameter_shortname" : "live.text",
							"parameter_invisible" : 0,
							"parameter_modmax" : 127.0,
							"parameter_annotation_name" : "",
							"parameter_longname" : "1-deck-switch",
							"parameter_modmin" : 0.0,
							"parameter_linknames" : 1,
							"parameter_modmode" : 0,
							"parameter_info" : "",
							"parameter_order" : 0,
							"parameter_units" : ""
						}

					}

				}

			}
 ],
		"lines" : [ 			{
				"patchline" : 				{
					"source" : [ "obj-72", 0 ],
					"destination" : [ "obj-78", 0 ],
					"hidden" : 0,
					"midpoints" : [ 129.5, 204.5, 89.5, 204.5 ]
				}

			}
, 			{
				"patchline" : 				{
					"source" : [ "obj-79", 0 ],
					"destination" : [ "obj-1", 0 ],
					"hidden" : 0,
					"color" : [ 0.266667, 0.215686, 1.0, 1.0 ],
					"midpoints" : [ 41.5, 335.5, 41.5, 335.5 ]
				}

			}
, 			{
				"patchline" : 				{
					"source" : [ "obj-78", 0 ],
					"destination" : [ "obj-1", 0 ],
					"hidden" : 0,
					"color" : [ 0.266667, 0.215686, 1.0, 1.0 ],
					"midpoints" : [ 89.5, 495.5, 41.5, 495.5 ]
				}

			}
, 			{
				"patchline" : 				{
					"source" : [ "obj-77", 0 ],
					"destination" : [ "obj-1", 0 ],
					"hidden" : 0,
					"color" : [ 0.266667, 0.215686, 1.0, 1.0 ],
					"midpoints" : [ 153.5, 495.5, 41.5, 495.5 ]
				}

			}
, 			{
				"patchline" : 				{
					"source" : [ "obj-76", 0 ],
					"destination" : [ "obj-1", 0 ],
					"hidden" : 0,
					"color" : [ 0.266667, 0.215686, 1.0, 1.0 ],
					"midpoints" : [ 217.5, 495.5, 41.5, 495.5 ]
				}

			}
, 			{
				"patchline" : 				{
					"source" : [ "obj-56", 0 ],
					"destination" : [ "obj-82", 0 ],
					"hidden" : 0,
					"color" : [ 1.0, 0.0, 0.380392, 1.0 ],
					"midpoints" : [ 161.5, 228.0, 188.5, 228.0, 188.5, 45.0, 81.5, 45.0 ]
				}

			}
, 			{
				"patchline" : 				{
					"source" : [ "obj-49", 0 ],
					"destination" : [ "obj-82", 0 ],
					"hidden" : 0,
					"color" : [ 1.0, 0.0, 0.380392, 1.0 ],
					"midpoints" : [ 225.5, 341.0, 252.5, 341.0, 252.5, 45.0, 81.5, 45.0 ]
				}

			}
, 			{
				"patchline" : 				{
					"source" : [ "obj-8", 0 ],
					"destination" : [ "obj-82", 0 ],
					"hidden" : 0,
					"color" : [ 1.0, 0.0, 0.380392, 1.0 ],
					"midpoints" : [ 289.5, 443.0, 316.5, 443.0, 316.5, 45.0, 81.5, 45.0 ]
				}

			}
, 			{
				"patchline" : 				{
					"source" : [ "obj-9", 0 ],
					"destination" : [ "obj-47", 0 ],
					"hidden" : 0,
					"color" : [ 0.94902, 0.376471, 0.0, 1.0 ],
					"midpoints" : [ 257.5, 460.0, 68.5, 460.0, 68.5, 132.0, 129.5, 132.0 ]
				}

			}
, 			{
				"patchline" : 				{
					"source" : [ "obj-9", 0 ],
					"destination" : [ "obj-14", 0 ],
					"hidden" : 0,
					"color" : [ 0.94902, 0.376471, 0.0, 1.0 ],
					"midpoints" : [ 257.5, 452.0, 140.5, 452.0, 140.5, 244.0, 193.5, 244.0 ]
				}

			}
, 			{
				"patchline" : 				{
					"source" : [ "obj-81", 0 ],
					"destination" : [ "obj-10", 0 ],
					"hidden" : 0,
					"midpoints" : [  ]
				}

			}
, 			{
				"patchline" : 				{
					"source" : [ "obj-10", 0 ],
					"destination" : [ "obj-9", 0 ],
					"hidden" : 0,
					"midpoints" : [  ]
				}

			}
, 			{
				"patchline" : 				{
					"source" : [ "obj-10", 1 ],
					"destination" : [ "obj-8", 0 ],
					"hidden" : 0,
					"midpoints" : [  ]
				}

			}
, 			{
				"patchline" : 				{
					"source" : [ "obj-55", 1 ],
					"destination" : [ "obj-49", 0 ],
					"hidden" : 0,
					"midpoints" : [  ]
				}

			}
, 			{
				"patchline" : 				{
					"source" : [ "obj-12", 0 ],
					"destination" : [ "obj-81", 0 ],
					"hidden" : 0,
					"midpoints" : [  ]
				}

			}
, 			{
				"patchline" : 				{
					"source" : [ "obj-54", 0 ],
					"destination" : [ "obj-12", 0 ],
					"hidden" : 0,
					"color" : [ 0.94902, 0.376471, 0.0, 1.0 ],
					"midpoints" : [ 193.5, 348.5, 257.5, 348.5 ]
				}

			}
, 			{
				"patchline" : 				{
					"source" : [ "obj-66", 0 ],
					"destination" : [ "obj-12", 0 ],
					"hidden" : 0,
					"color" : [ 0.94902, 0.376471, 0.0, 1.0 ],
					"midpoints" : [ 129.5, 236.5, 257.5, 236.5 ]
				}

			}
, 			{
				"patchline" : 				{
					"source" : [ "obj-73", 0 ],
					"destination" : [ "obj-12", 0 ],
					"hidden" : 0,
					"color" : [ 0.94902, 0.376471, 0.0, 1.0 ],
					"midpoints" : [ 81.5, 124.5, 257.5, 124.5 ]
				}

			}
, 			{
				"patchline" : 				{
					"source" : [ "obj-14", 0 ],
					"destination" : [ "obj-80", 0 ],
					"hidden" : 0,
					"midpoints" : [  ]
				}

			}
, 			{
				"patchline" : 				{
					"source" : [ "obj-66", 0 ],
					"destination" : [ "obj-14", 0 ],
					"hidden" : 0,
					"color" : [ 0.94902, 0.376471, 0.0, 1.0 ],
					"midpoints" : [ 129.5, 236.5, 193.5, 236.5 ]
				}

			}
, 			{
				"patchline" : 				{
					"source" : [ "obj-73", 0 ],
					"destination" : [ "obj-14", 0 ],
					"hidden" : 0,
					"color" : [ 0.94902, 0.376471, 0.0, 1.0 ],
					"midpoints" : [ 81.5, 124.5, 193.5, 124.5 ]
				}

			}
, 			{
				"patchline" : 				{
					"source" : [ "obj-47", 0 ],
					"destination" : [ "obj-83", 0 ],
					"hidden" : 0,
					"midpoints" : [  ]
				}

			}
, 			{
				"patchline" : 				{
					"source" : [ "obj-54", 0 ],
					"destination" : [ "obj-47", 0 ],
					"hidden" : 0,
					"color" : [ 0.94902, 0.376471, 0.0, 1.0 ],
					"midpoints" : [ 193.5, 348.0, 76.5, 348.0, 76.5, 132.0, 129.5, 132.0 ]
				}

			}
, 			{
				"patchline" : 				{
					"source" : [ "obj-73", 0 ],
					"destination" : [ "obj-47", 0 ],
					"hidden" : 0,
					"color" : [ 0.94902, 0.376471, 0.0, 1.0 ],
					"midpoints" : [ 81.5, 124.5, 129.5, 124.5 ]
				}

			}
, 			{
				"patchline" : 				{
					"source" : [ "obj-48", 0 ],
					"destination" : [ "obj-82", 0 ],
					"hidden" : 0,
					"midpoints" : [  ]
				}

			}
, 			{
				"patchline" : 				{
					"source" : [ "obj-54", 0 ],
					"destination" : [ "obj-48", 0 ],
					"hidden" : 0,
					"color" : [ 0.94902, 0.376471, 0.0, 1.0 ],
					"midpoints" : [ 193.5, 356.0, 20.5, 356.0, 20.5, 4.0, 81.5, 4.0 ]
				}

			}
, 			{
				"patchline" : 				{
					"source" : [ "obj-66", 0 ],
					"destination" : [ "obj-48", 0 ],
					"hidden" : 0,
					"color" : [ 0.94902, 0.376471, 0.0, 1.0 ],
					"midpoints" : [ 129.5, 236.0, 28.5, 236.0, 28.5, 4.0, 81.5, 4.0 ]
				}

			}
, 			{
				"patchline" : 				{
					"source" : [ "obj-80", 0 ],
					"destination" : [ "obj-55", 0 ],
					"hidden" : 0,
					"midpoints" : [  ]
				}

			}
, 			{
				"patchline" : 				{
					"source" : [ "obj-55", 0 ],
					"destination" : [ "obj-54", 0 ],
					"hidden" : 0,
					"midpoints" : [  ]
				}

			}
, 			{
				"patchline" : 				{
					"source" : [ "obj-83", 0 ],
					"destination" : [ "obj-72", 0 ],
					"hidden" : 0,
					"midpoints" : [  ]
				}

			}
, 			{
				"patchline" : 				{
					"source" : [ "obj-72", 1 ],
					"destination" : [ "obj-56", 0 ],
					"hidden" : 0,
					"midpoints" : [  ]
				}

			}
, 			{
				"patchline" : 				{
					"source" : [ "obj-72", 0 ],
					"destination" : [ "obj-66", 0 ],
					"hidden" : 0,
					"midpoints" : [  ]
				}

			}
, 			{
				"patchline" : 				{
					"source" : [ "obj-75", 0 ],
					"destination" : [ "obj-73", 0 ],
					"hidden" : 0,
					"midpoints" : [  ]
				}

			}
, 			{
				"patchline" : 				{
					"source" : [ "obj-82", 0 ],
					"destination" : [ "obj-75", 0 ],
					"hidden" : 0,
					"midpoints" : [  ]
				}

			}
, 			{
				"patchline" : 				{
					"source" : [ "obj-82", 0 ],
					"destination" : [ "obj-79", 0 ],
					"hidden" : 0,
					"midpoints" : [ 81.5, 77.5, 41.5, 77.5 ]
				}

			}
, 			{
				"patchline" : 				{
					"source" : [ "obj-9", 0 ],
					"destination" : [ "obj-48", 0 ],
					"hidden" : 0,
					"color" : [ 0.94902, 0.376471, 0.0, 1.0 ],
					"midpoints" : [ 257.5, 468.0, 12.5, 468.0, 12.5, 4.0, 81.5, 4.0 ]
				}

			}
, 			{
				"patchline" : 				{
					"source" : [ "obj-55", 0 ],
					"destination" : [ "obj-77", 0 ],
					"hidden" : 0,
					"midpoints" : [ 193.5, 316.5, 153.5, 316.5 ]
				}

			}
, 			{
				"patchline" : 				{
					"source" : [ "obj-10", 0 ],
					"destination" : [ "obj-76", 0 ],
					"hidden" : 0,
					"midpoints" : [ 257.5, 420.5, 217.5, 420.5 ]
				}

			}
 ],
		"parameters" : 		{
			"obj-82" : [ "1-deck-switch", "live.text", 0 ],
			"obj-83" : [ "2-deck-switch", "live.text", 0 ],
			"obj-80" : [ "3-deck-switch", "live.text", 0 ],
			"obj-81" : [ "4-deck-switch", "live.text", 0 ]
		}

	}

}
