{
	"patcher" : 	{
		"fileversion" : 1,
		"rect" : [ 2070.0, 274.0, 888.0, 499.0 ],
		"bgcolor" : [ 0.878431, 0.878431, 0.878431, 1.0 ],
		"bglocked" : 0,
		"defrect" : [ 2070.0, 274.0, 888.0, 499.0 ],
		"openrect" : [ 0.0, 0.0, 0.0, 0.0 ],
		"openinpresentation" : 0,
		"default_fontsize" : 10.0,
		"default_fontface" : 0,
		"default_fontname" : "Arial Bold",
		"gridonopen" : 0,
		"gridsize" : [ 4.0, 4.0 ],
		"gridsnaponopen" : 0,
		"toolbarvisible" : 1,
		"boxanimatetime" : 200,
		"imprint" : 0,
		"enablehscroll" : 1,
		"enablevscroll" : 1,
		"devicewidth" : 0.0,
		"boxes" : [ 			{
				"box" : 				{
					"maxclass" : "newobj",
					"text" : "prepend",
					"numinlets" : 1,
					"numoutlets" : 1,
					"fontsize" : 10.0,
					"outlettype" : [ "" ],
					"patching_rect" : [ 184.0, 236.0, 50.0, 18.0 ],
					"id" : "obj-15",
					"fontname" : "Arial Bold"
				}

			}
, 			{
				"box" : 				{
					"maxclass" : "newobj",
					"text" : "prepend hiliteslot_id :",
					"numinlets" : 1,
					"numoutlets" : 1,
					"fontsize" : 10.0,
					"outlettype" : [ "" ],
					"patching_rect" : [ 16.0, 180.0, 114.0, 18.0 ],
					"id" : "obj-14",
					"fontname" : "Arial Bold"
				}

			}
, 			{
				"box" : 				{
					"maxclass" : "newobj",
					"text" : "prepend psidx_id :",
					"numinlets" : 1,
					"numoutlets" : 1,
					"fontsize" : 10.0,
					"outlettype" : [ "" ],
					"patching_rect" : [ 288.0, 180.0, 99.0, 18.0 ],
					"id" : "obj-10",
					"fontname" : "Arial Bold"
				}

			}
, 			{
				"box" : 				{
					"maxclass" : "newobj",
					"text" : "prepend hiliteclip_id :",
					"numinlets" : 1,
					"numoutlets" : 1,
					"fontsize" : 10.0,
					"outlettype" : [ "" ],
					"patching_rect" : [ 128.0, 180.0, 114.0, 18.0 ],
					"id" : "obj-9",
					"fontname" : "Arial Bold"
				}

			}
, 			{
				"box" : 				{
					"maxclass" : "newobj",
					"text" : "gate",
					"numinlets" : 2,
					"numoutlets" : 1,
					"fontsize" : 10.0,
					"outlettype" : [ "" ],
					"patching_rect" : [ 128.0, 308.0, 75.0, 18.0 ],
					"id" : "obj-5",
					"fontname" : "Arial Bold"
				}

			}
, 			{
				"box" : 				{
					"maxclass" : "newobj",
					"varname" : "debug-main",
					"text" : "pattr debug-main @bindto ::root::debugstate",
					"linecount" : 3,
					"numinlets" : 1,
					"bgcolor" : [ 1.0, 0.0, 0.0, 0.2 ],
					"numoutlets" : 3,
					"fontsize" : 10.0,
					"outlettype" : [ "", "", "" ],
					"patching_rect" : [ 128.0, 264.0, 98.0, 41.0 ],
					"id" : "obj-20",
					"fontname" : "Arial Bold",
					"restore" : [ 1.0 ],
					"saved_object_attributes" : 					{
						"parameter_enable" : 0
					}

				}

			}
, 			{
				"box" : 				{
					"maxclass" : "newobj",
					"text" : "print clipdata",
					"numinlets" : 1,
					"numoutlets" : 0,
					"fontsize" : 10.0,
					"color" : [ 1.0, 0.0, 0.0, 1.0 ],
					"patching_rect" : [ 128.0, 344.0, 73.0, 18.0 ],
					"id" : "obj-7",
					"fontname" : "Arial Bold"
				}

			}
, 			{
				"box" : 				{
					"maxclass" : "newobj",
					"text" : "route clip",
					"numinlets" : 1,
					"numoutlets" : 2,
					"fontsize" : 10.0,
					"outlettype" : [ "", "" ],
					"patching_rect" : [ 116.0, 156.0, 56.0, 18.0 ],
					"id" : "obj-22",
					"fontname" : "Arial Bold"
				}

			}
, 			{
				"box" : 				{
					"maxclass" : "message",
					"text" : "get clip",
					"numinlets" : 2,
					"numoutlets" : 1,
					"fontsize" : 10.0,
					"outlettype" : [ "" ],
					"patching_rect" : [ 116.0, 116.0, 46.0, 16.0 ],
					"id" : "obj-16",
					"fontname" : "Arial Bold"
				}

			}
, 			{
				"box" : 				{
					"maxclass" : "newobj",
					"text" : "t b l",
					"numinlets" : 1,
					"numoutlets" : 2,
					"fontsize" : 10.0,
					"outlettype" : [ "bang", "" ],
					"patching_rect" : [ 116.0, 96.0, 56.0, 18.0 ],
					"id" : "obj-12",
					"fontname" : "Arial Bold"
				}

			}
, 			{
				"box" : 				{
					"maxclass" : "newobj",
					"text" : "live.object",
					"numinlets" : 2,
					"numoutlets" : 1,
					"fontsize" : 10.0,
					"outlettype" : [ "" ],
					"color" : [ 0.976471, 0.823529, 0.054902, 1.0 ],
					"patching_rect" : [ 116.0, 136.0, 59.0, 18.0 ],
					"id" : "obj-8",
					"fontname" : "Arial Bold"
				}

			}
, 			{
				"box" : 				{
					"maxclass" : "outlet",
					"hint" : "ID of highlighted Clip",
					"numinlets" : 1,
					"numoutlets" : 0,
					"patching_rect" : [ 116.0, 472.0, 25.0, 25.0 ],
					"id" : "obj-18",
					"comment" : "ID of highlighted Clip"
				}

			}
, 			{
				"box" : 				{
					"maxclass" : "message",
					"text" : "$2",
					"numinlets" : 2,
					"numoutlets" : 1,
					"fontsize" : 10.0,
					"outlettype" : [ "" ],
					"patching_rect" : [ 320.0, 56.0, 32.5, 16.0 ],
					"id" : "obj-42",
					"fontname" : "Arial Bold"
				}

			}
, 			{
				"box" : 				{
					"maxclass" : "comment",
					"text" : "YES",
					"numinlets" : 1,
					"bgcolor" : [ 0.0, 0.854902, 0.282353, 0.501961 ],
					"numoutlets" : 0,
					"fontsize" : 10.0,
					"patching_rect" : [ 374.0, 93.0, 32.0, 18.0 ],
					"id" : "obj-36",
					"fontname" : "Arial Bold"
				}

			}
, 			{
				"box" : 				{
					"maxclass" : "comment",
					"text" : "NO",
					"numinlets" : 1,
					"bgcolor" : [ 1.0, 0.0, 0.431373, 0.501961 ],
					"numoutlets" : 0,
					"fontsize" : 10.0,
					"patching_rect" : [ 302.0, 93.0, 24.0, 18.0 ],
					"id" : "obj-37",
					"fontname" : "Arial Bold"
				}

			}
, 			{
				"box" : 				{
					"maxclass" : "newobj",
					"text" : "split 1 9999",
					"numinlets" : 3,
					"numoutlets" : 2,
					"fontsize" : 10.0,
					"outlettype" : [ "int", "int" ],
					"patching_rect" : [ 318.0, 73.0, 65.0, 18.0 ],
					"id" : "obj-38",
					"fontname" : "Arial Bold"
				}

			}
, 			{
				"box" : 				{
					"maxclass" : "newobj",
					"text" : "prepend id",
					"numinlets" : 1,
					"numoutlets" : 1,
					"fontsize" : 10.0,
					"outlettype" : [ "" ],
					"patching_rect" : [ 4.0, 72.0, 62.0, 18.0 ],
					"id" : "obj-6",
					"fontname" : "Arial Bold"
				}

			}
, 			{
				"box" : 				{
					"maxclass" : "outlet",
					"hint" : "ID of track's highlighted ClipSlot",
					"numinlets" : 1,
					"numoutlets" : 0,
					"patching_rect" : [ 4.0, 472.0, 25.0, 25.0 ],
					"id" : "obj-4",
					"comment" : "ID of track's highlighted ClipSlot"
				}

			}
, 			{
				"box" : 				{
					"maxclass" : "newobj",
					"text" : "zl mth",
					"numinlets" : 2,
					"numoutlets" : 2,
					"fontsize" : 10.0,
					"outlettype" : [ "", "" ],
					"patching_rect" : [ 4.0, 52.0, 39.0, 18.0 ],
					"id" : "obj-3",
					"fontname" : "Arial Bold"
				}

			}
, 			{
				"box" : 				{
					"maxclass" : "message",
					"text" : "$4",
					"numinlets" : 2,
					"numoutlets" : 1,
					"fontsize" : 10.0,
					"outlettype" : [ "" ],
					"patching_rect" : [ 184.0, 32.0, 32.5, 16.0 ],
					"id" : "obj-11",
					"fontname" : "Arial Bold"
				}

			}
, 			{
				"box" : 				{
					"maxclass" : "outlet",
					"hint" : "ID of playing_slot_index",
					"annotation" : "",
					"numinlets" : 1,
					"numoutlets" : 0,
					"patching_rect" : [ 276.0, 472.0, 25.0, 25.0 ],
					"id" : "obj-1",
					"comment" : "ID of playing_slot_index"
				}

			}
, 			{
				"box" : 				{
					"maxclass" : "inlet",
					"varname" : "selected_scene_clip_ids",
					"numinlets" : 0,
					"numoutlets" : 1,
					"outlettype" : [ "" ],
					"patching_rect" : [ 4.0, 4.0, 25.0, 25.0 ],
					"id" : "obj-61",
					"comment" : "List of ids for selected scene's clip slots"
				}

			}
, 			{
				"box" : 				{
					"maxclass" : "newobj",
					"text" : "p ObservePlayingSlotIndexID",
					"numinlets" : 1,
					"numoutlets" : 1,
					"fontsize" : 10.0,
					"outlettype" : [ "" ],
					"color" : [ 0.592157, 0.278431, 0.486275, 1.0 ],
					"patching_rect" : [ 276.0, 32.0, 152.0, 18.0 ],
					"id" : "obj-21",
					"fontname" : "Arial Bold",
					"patcher" : 					{
						"fileversion" : 1,
						"rect" : [ 382.0, 232.0, 640.0, 480.0 ],
						"bglocked" : 1,
						"defrect" : [ 382.0, 232.0, 640.0, 480.0 ],
						"openrect" : [ 0.0, 0.0, 0.0, 0.0 ],
						"openinpresentation" : 0,
						"default_fontsize" : 10.0,
						"default_fontface" : 0,
						"default_fontname" : "Arial Bold",
						"gridonopen" : 0,
						"gridsize" : [ 8.0, 8.0 ],
						"gridsnaponopen" : 0,
						"toolbarvisible" : 1,
						"boxanimatetime" : 200,
						"imprint" : 0,
						"enablehscroll" : 1,
						"enablevscroll" : 1,
						"devicewidth" : 0.0,
						"boxes" : [ 							{
								"box" : 								{
									"maxclass" : "newobj",
									"text" : "change",
									"numinlets" : 1,
									"numoutlets" : 3,
									"fontsize" : 10.0,
									"outlettype" : [ "", "int", "int" ],
									"patching_rect" : [ 264.0, 200.0, 48.0, 18.0 ],
									"id" : "obj-2",
									"fontname" : "Arial Bold"
								}

							}
, 							{
								"box" : 								{
									"maxclass" : "newobj",
									"text" : "live.path",
									"numinlets" : 1,
									"numoutlets" : 3,
									"fontsize" : 10.0,
									"outlettype" : [ "", "", "" ],
									"color" : [ 0.984314, 0.819608, 0.05098, 1.0 ],
									"patching_rect" : [ 248.0, 104.0, 50.0, 18.0 ],
									"id" : "obj-83",
									"fontname" : "Arial Bold"
								}

							}
, 							{
								"box" : 								{
									"maxclass" : "newobj",
									"text" : "tosymbol",
									"numinlets" : 1,
									"numoutlets" : 1,
									"fontsize" : 10.0,
									"outlettype" : [ "" ],
									"patching_rect" : [ 264.0, 272.0, 55.0, 18.0 ],
									"id" : "obj-99",
									"fontname" : "Arial Bold"
								}

							}
, 							{
								"box" : 								{
									"maxclass" : "newobj",
									"text" : "fromsymbol",
									"numinlets" : 1,
									"numoutlets" : 1,
									"fontsize" : 10.0,
									"outlettype" : [ "" ],
									"patching_rect" : [ 264.0, 296.0, 68.0, 18.0 ],
									"id" : "obj-94",
									"fontname" : "Arial Bold"
								}

							}
, 							{
								"box" : 								{
									"maxclass" : "newobj",
									"text" : "live.path",
									"numinlets" : 1,
									"numoutlets" : 3,
									"fontsize" : 10.0,
									"outlettype" : [ "", "", "" ],
									"color" : [ 0.984314, 0.819608, 0.05098, 1.0 ],
									"patching_rect" : [ 264.0, 320.0, 51.0, 18.0 ],
									"id" : "obj-93",
									"fontname" : "Arial Bold"
								}

							}
, 							{
								"box" : 								{
									"maxclass" : "newobj",
									"text" : "tosymbol",
									"numinlets" : 1,
									"numoutlets" : 1,
									"fontsize" : 10.0,
									"outlettype" : [ "" ],
									"patching_rect" : [ 424.0, 104.0, 55.0, 18.0 ],
									"id" : "obj-92",
									"fontname" : "Arial Bold"
								}

							}
, 							{
								"box" : 								{
									"maxclass" : "message",
									"text" : "clip_slots $1 clip",
									"numinlets" : 2,
									"numoutlets" : 1,
									"fontsize" : 10.0,
									"outlettype" : [ "" ],
									"patching_rect" : [ 264.0, 224.0, 91.0, 16.0 ],
									"id" : "obj-91",
									"fontname" : "Arial Bold"
								}

							}
, 							{
								"box" : 								{
									"maxclass" : "message",
									"text" : "set $1",
									"numinlets" : 2,
									"numoutlets" : 1,
									"fontsize" : 10.0,
									"outlettype" : [ "" ],
									"patching_rect" : [ 426.0, 212.0, 39.0, 16.0 ],
									"id" : "obj-89",
									"fontname" : "Arial Bold"
								}

							}
, 							{
								"box" : 								{
									"maxclass" : "newobj",
									"text" : "prepend",
									"numinlets" : 1,
									"numoutlets" : 1,
									"fontsize" : 10.0,
									"outlettype" : [ "" ],
									"patching_rect" : [ 264.0, 248.0, 50.0, 18.0 ],
									"id" : "obj-81",
									"fontname" : "Arial Bold"
								}

							}
, 							{
								"box" : 								{
									"maxclass" : "newobj",
									"text" : "t b s",
									"numinlets" : 1,
									"numoutlets" : 2,
									"fontsize" : 10.0,
									"outlettype" : [ "bang", "" ],
									"patching_rect" : [ 264.0, 128.0, 152.0, 18.0 ],
									"id" : "obj-13",
									"fontname" : "Arial Bold"
								}

							}
, 							{
								"box" : 								{
									"maxclass" : "message",
									"text" : "property playing_slot_index",
									"numinlets" : 2,
									"numoutlets" : 1,
									"fontsize" : 10.0,
									"outlettype" : [ "" ],
									"patching_rect" : [ 264.0, 152.0, 144.0, 16.0 ],
									"id" : "obj-12",
									"fontname" : "Arial Bold"
								}

							}
, 							{
								"box" : 								{
									"maxclass" : "newobj",
									"text" : "live.observer",
									"numinlets" : 2,
									"numoutlets" : 2,
									"fontsize" : 10.0,
									"outlettype" : [ "", "" ],
									"color" : [ 0.984314, 0.819608, 0.05098, 1.0 ],
									"patching_rect" : [ 264.0, 176.0, 152.0, 18.0 ],
									"id" : "obj-10",
									"fontname" : "Arial Bold"
								}

							}
, 							{
								"box" : 								{
									"maxclass" : "comment",
									"text" : "Find playing_slot_index clip id\nid 0 : no playing clip (incl NO clip @ all)                      \nid nn : playing clip id\n\n\n\n\n\n\n\n\n\n\n\n\n\n\n\n\n",
									"linecount" : 4,
									"numinlets" : 1,
									"bgcolor" : [ 0.909804, 0.909804, 0.909804, 0.501961 ],
									"numoutlets" : 0,
									"fontsize" : 10.0,
									"background" : 1,
									"patching_rect" : [ 48.0, 104.0, 215.0, 52.0 ],
									"id" : "obj-7",
									"fontname" : "Arial Bold"
								}

							}
, 							{
								"box" : 								{
									"maxclass" : "inlet",
									"numinlets" : 0,
									"numoutlets" : 1,
									"outlettype" : [ "" ],
									"patching_rect" : [ 329.0, 40.0, 25.0, 25.0 ],
									"id" : "obj-4",
									"comment" : "Path to track"
								}

							}
, 							{
								"box" : 								{
									"maxclass" : "outlet",
									"numinlets" : 1,
									"numoutlets" : 0,
									"patching_rect" : [ 136.0, 384.0, 25.0, 25.0 ],
									"id" : "obj-15",
									"comment" : "id of playing_slot_index (incl. \"id 0\")"
								}

							}
 ],
						"lines" : [ 							{
								"patchline" : 								{
									"source" : [ "obj-4", 0 ],
									"destination" : [ "obj-92", 0 ],
									"hidden" : 0,
									"midpoints" : [  ]
								}

							}
, 							{
								"patchline" : 								{
									"source" : [ "obj-4", 0 ],
									"destination" : [ "obj-83", 0 ],
									"hidden" : 0,
									"midpoints" : [  ]
								}

							}
, 							{
								"patchline" : 								{
									"source" : [ "obj-13", 1 ],
									"destination" : [ "obj-10", 1 ],
									"hidden" : 0,
									"color" : [ 0.976471, 0.823529, 0.054902, 1.0 ],
									"midpoints" : [ 406.5, 164.5, 406.5, 164.5 ]
								}

							}
, 							{
								"patchline" : 								{
									"source" : [ "obj-13", 0 ],
									"destination" : [ "obj-12", 0 ],
									"hidden" : 0,
									"midpoints" : [  ]
								}

							}
, 							{
								"patchline" : 								{
									"source" : [ "obj-12", 0 ],
									"destination" : [ "obj-10", 0 ],
									"hidden" : 0,
									"midpoints" : [  ]
								}

							}
, 							{
								"patchline" : 								{
									"source" : [ "obj-89", 0 ],
									"destination" : [ "obj-81", 0 ],
									"hidden" : 0,
									"color" : [ 0.917647, 0.94902, 0.054902, 1.0 ],
									"midpoints" : [ 435.5, 243.5, 273.5, 243.5 ]
								}

							}
, 							{
								"patchline" : 								{
									"source" : [ "obj-94", 0 ],
									"destination" : [ "obj-93", 0 ],
									"hidden" : 0,
									"color" : [ 0.917647, 0.94902, 0.054902, 1.0 ],
									"midpoints" : [  ]
								}

							}
, 							{
								"patchline" : 								{
									"source" : [ "obj-81", 0 ],
									"destination" : [ "obj-99", 0 ],
									"hidden" : 0,
									"color" : [ 0.917647, 0.94902, 0.054902, 1.0 ],
									"midpoints" : [  ]
								}

							}
, 							{
								"patchline" : 								{
									"source" : [ "obj-99", 0 ],
									"destination" : [ "obj-94", 0 ],
									"hidden" : 0,
									"color" : [ 0.917647, 0.94902, 0.054902, 1.0 ],
									"midpoints" : [  ]
								}

							}
, 							{
								"patchline" : 								{
									"source" : [ "obj-83", 1 ],
									"destination" : [ "obj-13", 0 ],
									"hidden" : 0,
									"midpoints" : [  ]
								}

							}
, 							{
								"patchline" : 								{
									"source" : [ "obj-92", 0 ],
									"destination" : [ "obj-89", 0 ],
									"hidden" : 0,
									"color" : [ 0.917647, 0.94902, 0.054902, 1.0 ],
									"midpoints" : [  ]
								}

							}
, 							{
								"patchline" : 								{
									"source" : [ "obj-91", 0 ],
									"destination" : [ "obj-81", 0 ],
									"hidden" : 0,
									"midpoints" : [  ]
								}

							}
, 							{
								"patchline" : 								{
									"source" : [ "obj-93", 1 ],
									"destination" : [ "obj-15", 0 ],
									"hidden" : 0,
									"midpoints" : [  ]
								}

							}
, 							{
								"patchline" : 								{
									"source" : [ "obj-10", 0 ],
									"destination" : [ "obj-2", 0 ],
									"hidden" : 0,
									"midpoints" : [  ]
								}

							}
, 							{
								"patchline" : 								{
									"source" : [ "obj-2", 0 ],
									"destination" : [ "obj-91", 0 ],
									"hidden" : 0,
									"midpoints" : [  ]
								}

							}
 ]
					}
,
					"saved_object_attributes" : 					{
						"default_fontface" : 0,
						"globalpatchername" : "",
						"default_fontname" : "Arial Bold",
						"fontface" : 0,
						"fontsize" : 10.0,
						"default_fontsize" : 10.0,
						"fontname" : "Arial Bold"
					}

				}

			}
, 			{
				"box" : 				{
					"maxclass" : "inlet",
					"numinlets" : 0,
					"numoutlets" : 1,
					"outlettype" : [ "" ],
					"patching_rect" : [ 276.0, 4.0, 25.0, 25.0 ],
					"id" : "obj-68",
					"comment" : "Initial path to track"
				}

			}
, 			{
				"box" : 				{
					"maxclass" : "comment",
					"text" : "Path to track",
					"numinlets" : 1,
					"numoutlets" : 0,
					"fontsize" : 10.0,
					"background" : 1,
					"patching_rect" : [ 300.0, 8.0, 72.0, 18.0 ],
					"id" : "obj-2",
					"fontname" : "Arial Bold"
				}

			}
, 			{
				"box" : 				{
					"maxclass" : "comment",
					"text" : "<<< scene's clip slots",
					"numinlets" : 1,
					"numoutlets" : 0,
					"fontsize" : 10.0,
					"background" : 1,
					"patching_rect" : [ 28.0, 8.0, 114.0, 18.0 ],
					"id" : "obj-13",
					"fontname" : "Arial Bold"
				}

			}
, 			{
				"box" : 				{
					"maxclass" : "comment",
					"text" : "Playing?",
					"numinlets" : 1,
					"bgcolor" : [ 1.0, 0.34902, 0.0, 0.501961 ],
					"numoutlets" : 0,
					"fontsize" : 10.0,
					"background" : 1,
					"patching_rect" : [ 386.0, 73.0, 52.0, 18.0 ],
					"id" : "obj-39",
					"fontname" : "Arial Bold"
				}

			}
, 			{
				"box" : 				{
					"maxclass" : "message",
					"text" : "set $1",
					"numinlets" : 2,
					"numoutlets" : 1,
					"fontsize" : 10.0,
					"outlettype" : [ "" ],
					"patching_rect" : [ 184.0, 216.0, 50.0, 16.0 ],
					"id" : "obj-17",
					"fontname" : "Arial Bold"
				}

			}
 ],
		"lines" : [ 			{
				"patchline" : 				{
					"source" : [ "obj-15", 0 ],
					"destination" : [ "obj-5", 1 ],
					"hidden" : 0,
					"midpoints" : [  ]
				}

			}
, 			{
				"patchline" : 				{
					"source" : [ "obj-10", 0 ],
					"destination" : [ "obj-15", 0 ],
					"hidden" : 0,
					"midpoints" : [  ]
				}

			}
, 			{
				"patchline" : 				{
					"source" : [ "obj-9", 0 ],
					"destination" : [ "obj-15", 0 ],
					"hidden" : 0,
					"midpoints" : [  ]
				}

			}
, 			{
				"patchline" : 				{
					"source" : [ "obj-14", 0 ],
					"destination" : [ "obj-15", 0 ],
					"hidden" : 0,
					"midpoints" : [  ]
				}

			}
, 			{
				"patchline" : 				{
					"source" : [ "obj-21", 0 ],
					"destination" : [ "obj-10", 0 ],
					"hidden" : 0,
					"midpoints" : [  ]
				}

			}
, 			{
				"patchline" : 				{
					"source" : [ "obj-22", 0 ],
					"destination" : [ "obj-9", 0 ],
					"hidden" : 0,
					"midpoints" : [  ]
				}

			}
, 			{
				"patchline" : 				{
					"source" : [ "obj-6", 0 ],
					"destination" : [ "obj-14", 0 ],
					"hidden" : 0,
					"midpoints" : [  ]
				}

			}
, 			{
				"patchline" : 				{
					"source" : [ "obj-11", 0 ],
					"destination" : [ "obj-17", 0 ],
					"hidden" : 0,
					"midpoints" : [  ]
				}

			}
, 			{
				"patchline" : 				{
					"source" : [ "obj-17", 0 ],
					"destination" : [ "obj-15", 0 ],
					"hidden" : 0,
					"midpoints" : [  ]
				}

			}
, 			{
				"patchline" : 				{
					"source" : [ "obj-5", 0 ],
					"destination" : [ "obj-7", 0 ],
					"hidden" : 0,
					"midpoints" : [  ]
				}

			}
, 			{
				"patchline" : 				{
					"source" : [ "obj-20", 0 ],
					"destination" : [ "obj-5", 0 ],
					"hidden" : 0,
					"midpoints" : [  ]
				}

			}
, 			{
				"patchline" : 				{
					"source" : [ "obj-21", 0 ],
					"destination" : [ "obj-42", 0 ],
					"hidden" : 0,
					"midpoints" : [  ]
				}

			}
, 			{
				"patchline" : 				{
					"source" : [ "obj-42", 0 ],
					"destination" : [ "obj-38", 0 ],
					"hidden" : 0,
					"midpoints" : [  ]
				}

			}
, 			{
				"patchline" : 				{
					"source" : [ "obj-6", 0 ],
					"destination" : [ "obj-4", 0 ],
					"hidden" : 0,
					"color" : [ 0.976471, 0.823529, 0.054902, 1.0 ],
					"midpoints" : [  ]
				}

			}
, 			{
				"patchline" : 				{
					"source" : [ "obj-3", 0 ],
					"destination" : [ "obj-6", 0 ],
					"hidden" : 0,
					"midpoints" : [  ]
				}

			}
, 			{
				"patchline" : 				{
					"source" : [ "obj-61", 0 ],
					"destination" : [ "obj-3", 0 ],
					"hidden" : 0,
					"color" : [ 0.976471, 0.823529, 0.054902, 1.0 ],
					"midpoints" : [  ]
				}

			}
, 			{
				"patchline" : 				{
					"source" : [ "obj-11", 0 ],
					"destination" : [ "obj-3", 1 ],
					"hidden" : 0,
					"midpoints" : [ 193.5, 49.5, 33.5, 49.5 ]
				}

			}
, 			{
				"patchline" : 				{
					"source" : [ "obj-68", 0 ],
					"destination" : [ "obj-21", 0 ],
					"hidden" : 0,
					"color" : [ 0.929412, 1.0, 0.0, 1.0 ],
					"midpoints" : [  ]
				}

			}
, 			{
				"patchline" : 				{
					"source" : [ "obj-21", 0 ],
					"destination" : [ "obj-1", 0 ],
					"hidden" : 0,
					"midpoints" : [  ]
				}

			}
, 			{
				"patchline" : 				{
					"source" : [ "obj-68", 0 ],
					"destination" : [ "obj-11", 0 ],
					"hidden" : 0,
					"color" : [ 0.929412, 1.0, 0.0, 1.0 ],
					"midpoints" : [  ]
				}

			}
, 			{
				"patchline" : 				{
					"source" : [ "obj-6", 0 ],
					"destination" : [ "obj-12", 0 ],
					"hidden" : 0,
					"midpoints" : [  ]
				}

			}
, 			{
				"patchline" : 				{
					"source" : [ "obj-12", 1 ],
					"destination" : [ "obj-8", 1 ],
					"hidden" : 0,
					"midpoints" : [  ]
				}

			}
, 			{
				"patchline" : 				{
					"source" : [ "obj-12", 0 ],
					"destination" : [ "obj-16", 0 ],
					"hidden" : 0,
					"midpoints" : [  ]
				}

			}
, 			{
				"patchline" : 				{
					"source" : [ "obj-16", 0 ],
					"destination" : [ "obj-8", 0 ],
					"hidden" : 0,
					"midpoints" : [  ]
				}

			}
, 			{
				"patchline" : 				{
					"source" : [ "obj-8", 0 ],
					"destination" : [ "obj-22", 0 ],
					"hidden" : 0,
					"midpoints" : [  ]
				}

			}
, 			{
				"patchline" : 				{
					"source" : [ "obj-22", 0 ],
					"destination" : [ "obj-18", 0 ],
					"hidden" : 0,
					"midpoints" : [  ]
				}

			}
 ]
	}

}
