{
	"patcher" : 	{
		"fileversion" : 1,
		"rect" : [ 0.0, 44.0, 906.0, 726.0 ],
		"bgcolor" : [ 1.0, 1.0, 1.0, 0.0 ],
		"bglocked" : 0,
		"defrect" : [ 0.0, 44.0, 906.0, 726.0 ],
		"openrect" : [ 0.0, 0.0, 0.0, 0.0 ],
		"openinpresentation" : 1,
		"default_fontsize" : 10.0,
		"default_fontface" : 0,
		"default_fontname" : "Arial Bold",
		"gridonopen" : 0,
		"gridsize" : [ 8.0, 8.0 ],
		"gridsnaponopen" : 0,
		"toolbarvisible" : 1,
		"boxanimatetime" : 200,
		"imprint" : 0,
		"enablehscroll" : 1,
		"enablevscroll" : 1,
		"devicewidth" : 0.0,
		"globalpatchername" : "ficken",
		"boxes" : [ 			{
				"box" : 				{
					"maxclass" : "comment",
					"text" : "2 - Loop * 2",
					"fontface" : 1,
					"fontsize" : 8.0,
					"presentation_rect" : [ 784.0, 32.0, 64.0, 16.0 ],
					"patching_rect" : [ 1464.0, 24.0, 128.0, 16.0 ],
					"presentation" : 1,
					"id" : "obj-238",
					"fontname" : "Tahoma",
					"numinlets" : 1,
					"numoutlets" : 0
				}

			}
, 			{
				"box" : 				{
					"maxclass" : "comment",
					"text" : "2 - Loop / 2",
					"fontface" : 1,
					"fontsize" : 8.0,
					"presentation_rect" : [ 720.0, 32.0, 64.0, 16.0 ],
					"patching_rect" : [ 1328.0, 24.0, 132.0, 16.0 ],
					"presentation" : 1,
					"id" : "obj-239",
					"fontname" : "Tahoma",
					"numinlets" : 1,
					"numoutlets" : 0
				}

			}
, 			{
				"box" : 				{
					"maxclass" : "comment",
					"text" : "2 - Loop * 2",
					"fontface" : 1,
					"fontsize" : 8.0,
					"presentation_rect" : [ 560.0, 32.0, 64.0, 16.0 ],
					"patching_rect" : [ 1464.0, 24.0, 128.0, 16.0 ],
					"presentation" : 1,
					"id" : "obj-236",
					"fontname" : "Tahoma",
					"numinlets" : 1,
					"numoutlets" : 0
				}

			}
, 			{
				"box" : 				{
					"maxclass" : "comment",
					"text" : "2 - Loop / 2",
					"fontface" : 1,
					"fontsize" : 8.0,
					"presentation_rect" : [ 496.0, 32.0, 64.0, 16.0 ],
					"patching_rect" : [ 1328.0, 24.0, 132.0, 16.0 ],
					"presentation" : 1,
					"id" : "obj-237",
					"fontname" : "Tahoma",
					"numinlets" : 1,
					"numoutlets" : 0
				}

			}
, 			{
				"box" : 				{
					"maxclass" : "comment",
					"text" : "2 - Loop * 2",
					"fontface" : 1,
					"fontsize" : 8.0,
					"presentation_rect" : [ 336.0, 32.0, 64.0, 16.0 ],
					"patching_rect" : [ 1464.0, 24.0, 128.0, 16.0 ],
					"presentation" : 1,
					"id" : "obj-234",
					"fontname" : "Tahoma",
					"numinlets" : 1,
					"numoutlets" : 0
				}

			}
, 			{
				"box" : 				{
					"maxclass" : "comment",
					"text" : "2 - Loop / 2",
					"fontface" : 1,
					"fontsize" : 8.0,
					"presentation_rect" : [ 272.0, 32.0, 64.0, 16.0 ],
					"patching_rect" : [ 1328.0, 24.0, 132.0, 16.0 ],
					"presentation" : 1,
					"id" : "obj-235",
					"fontname" : "Tahoma",
					"numinlets" : 1,
					"numoutlets" : 0
				}

			}
, 			{
				"box" : 				{
					"maxclass" : "comment",
					"text" : "1 -Loop End",
					"fontface" : 1,
					"fontsize" : 8.0,
					"presentation_rect" : [ 784.0, 16.0, 64.0, 16.0 ],
					"patching_rect" : [ 1464.0, 8.0, 128.0, 16.0 ],
					"presentation" : 1,
					"id" : "obj-202",
					"fontname" : "Tahoma",
					"numinlets" : 1,
					"numoutlets" : 0
				}

			}
, 			{
				"box" : 				{
					"maxclass" : "comment",
					"text" : "4 -",
					"fontface" : 1,
					"fontsize" : 8.0,
					"presentation_rect" : [ 784.0, 64.0, 64.0, 16.0 ],
					"patching_rect" : [ 1464.0, 56.0, 128.0, 16.0 ],
					"presentation" : 1,
					"id" : "obj-203",
					"fontname" : "Tahoma",
					"numinlets" : 1,
					"numoutlets" : 0
				}

			}
, 			{
				"box" : 				{
					"maxclass" : "comment",
					"text" : "3 -",
					"fontface" : 1,
					"fontsize" : 8.0,
					"presentation_rect" : [ 784.0, 48.0, 64.0, 16.0 ],
					"patching_rect" : [ 1464.0, 40.0, 128.0, 16.0 ],
					"presentation" : 1,
					"id" : "obj-204",
					"fontname" : "Tahoma",
					"numinlets" : 1,
					"numoutlets" : 0
				}

			}
, 			{
				"box" : 				{
					"maxclass" : "comment",
					"text" : "4 -",
					"fontface" : 1,
					"fontsize" : 8.0,
					"presentation_rect" : [ 720.0, 64.0, 64.0, 16.0 ],
					"patching_rect" : [ 1328.0, 56.0, 132.0, 16.0 ],
					"presentation" : 1,
					"id" : "obj-206",
					"fontname" : "Tahoma",
					"numinlets" : 1,
					"numoutlets" : 0
				}

			}
, 			{
				"box" : 				{
					"maxclass" : "comment",
					"text" : "3 -",
					"fontface" : 1,
					"fontsize" : 8.0,
					"presentation_rect" : [ 720.0, 48.0, 64.0, 16.0 ],
					"patching_rect" : [ 1328.0, 40.0, 132.0, 16.0 ],
					"presentation" : 1,
					"id" : "obj-207",
					"fontname" : "Tahoma",
					"numinlets" : 1,
					"numoutlets" : 0
				}

			}
, 			{
				"box" : 				{
					"maxclass" : "comment",
					"text" : "1 - Loop Start",
					"fontface" : 1,
					"fontsize" : 8.0,
					"presentation_rect" : [ 720.0, 16.0, 64.0, 16.0 ],
					"patching_rect" : [ 1328.0, 8.0, 132.0, 16.0 ],
					"presentation" : 1,
					"id" : "obj-209",
					"fontname" : "Tahoma",
					"numinlets" : 1,
					"numoutlets" : 0
				}

			}
, 			{
				"box" : 				{
					"maxclass" : "comment",
					"text" : "1 -Stop Clip",
					"fontface" : 1,
					"fontsize" : 8.0,
					"presentation_rect" : [ 784.0, 80.0, 64.0, 16.0 ],
					"patching_rect" : [ 1464.0, 72.0, 128.0, 16.0 ],
					"presentation" : 1,
					"id" : "obj-210",
					"fontname" : "Tahoma",
					"numinlets" : 1,
					"numoutlets" : 0
				}

			}
, 			{
				"box" : 				{
					"maxclass" : "comment",
					"text" : "4 -",
					"fontface" : 1,
					"fontsize" : 8.0,
					"presentation_rect" : [ 784.0, 128.0, 64.0, 16.0 ],
					"patching_rect" : [ 1464.0, 120.0, 128.0, 16.0 ],
					"presentation" : 1,
					"id" : "obj-211",
					"fontname" : "Tahoma",
					"numinlets" : 1,
					"numoutlets" : 0
				}

			}
, 			{
				"box" : 				{
					"maxclass" : "comment",
					"text" : "3 -",
					"fontface" : 1,
					"fontsize" : 8.0,
					"presentation_rect" : [ 784.0, 112.0, 64.0, 16.0 ],
					"patching_rect" : [ 1464.0, 104.0, 128.0, 16.0 ],
					"presentation" : 1,
					"id" : "obj-212",
					"fontname" : "Tahoma",
					"numinlets" : 1,
					"numoutlets" : 0
				}

			}
, 			{
				"box" : 				{
					"maxclass" : "comment",
					"text" : "2 -",
					"fontface" : 1,
					"fontsize" : 8.0,
					"presentation_rect" : [ 784.0, 96.0, 64.0, 16.0 ],
					"patching_rect" : [ 1464.0, 88.0, 128.0, 16.0 ],
					"presentation" : 1,
					"id" : "obj-213",
					"fontname" : "Tahoma",
					"numinlets" : 1,
					"numoutlets" : 0
				}

			}
, 			{
				"box" : 				{
					"maxclass" : "comment",
					"text" : "4 -",
					"fontface" : 1,
					"fontsize" : 8.0,
					"presentation_rect" : [ 720.0, 128.0, 64.0, 16.0 ],
					"patching_rect" : [ 1328.0, 120.0, 132.0, 16.0 ],
					"presentation" : 1,
					"id" : "obj-214",
					"fontname" : "Tahoma",
					"numinlets" : 1,
					"numoutlets" : 0
				}

			}
, 			{
				"box" : 				{
					"maxclass" : "comment",
					"text" : "3 -",
					"fontface" : 1,
					"fontsize" : 8.0,
					"presentation_rect" : [ 720.0, 112.0, 64.0, 16.0 ],
					"patching_rect" : [ 1328.0, 104.0, 132.0, 16.0 ],
					"presentation" : 1,
					"id" : "obj-215",
					"fontname" : "Tahoma",
					"numinlets" : 1,
					"numoutlets" : 0
				}

			}
, 			{
				"box" : 				{
					"maxclass" : "comment",
					"text" : "2 -",
					"fontface" : 1,
					"fontsize" : 8.0,
					"presentation_rect" : [ 720.0, 96.0, 64.0, 16.0 ],
					"patching_rect" : [ 1328.0, 88.0, 132.0, 16.0 ],
					"presentation" : 1,
					"id" : "obj-216",
					"fontname" : "Tahoma",
					"numinlets" : 1,
					"numoutlets" : 0
				}

			}
, 			{
				"box" : 				{
					"maxclass" : "comment",
					"text" : "1 -Start Clip",
					"fontface" : 1,
					"fontsize" : 8.0,
					"presentation_rect" : [ 720.0, 80.0, 64.0, 16.0 ],
					"patching_rect" : [ 1328.0, 72.0, 132.0, 16.0 ],
					"presentation" : 1,
					"id" : "obj-217",
					"fontname" : "Tahoma",
					"numinlets" : 1,
					"numoutlets" : 0
				}

			}
, 			{
				"box" : 				{
					"maxclass" : "comment",
					"text" : "1 -Loop End",
					"fontface" : 1,
					"fontsize" : 8.0,
					"presentation_rect" : [ 560.0, 16.0, 64.0, 16.0 ],
					"patching_rect" : [ 1464.0, 8.0, 128.0, 16.0 ],
					"presentation" : 1,
					"id" : "obj-186",
					"fontname" : "Tahoma",
					"numinlets" : 1,
					"numoutlets" : 0
				}

			}
, 			{
				"box" : 				{
					"maxclass" : "comment",
					"text" : "4 -",
					"fontface" : 1,
					"fontsize" : 8.0,
					"presentation_rect" : [ 560.0, 64.0, 64.0, 16.0 ],
					"patching_rect" : [ 1464.0, 56.0, 128.0, 16.0 ],
					"presentation" : 1,
					"id" : "obj-187",
					"fontname" : "Tahoma",
					"numinlets" : 1,
					"numoutlets" : 0
				}

			}
, 			{
				"box" : 				{
					"maxclass" : "comment",
					"text" : "3 -",
					"fontface" : 1,
					"fontsize" : 8.0,
					"presentation_rect" : [ 560.0, 48.0, 64.0, 16.0 ],
					"patching_rect" : [ 1464.0, 40.0, 128.0, 16.0 ],
					"presentation" : 1,
					"id" : "obj-188",
					"fontname" : "Tahoma",
					"numinlets" : 1,
					"numoutlets" : 0
				}

			}
, 			{
				"box" : 				{
					"maxclass" : "comment",
					"text" : "4 -",
					"fontface" : 1,
					"fontsize" : 8.0,
					"presentation_rect" : [ 496.0, 64.0, 64.0, 16.0 ],
					"patching_rect" : [ 1328.0, 56.0, 132.0, 16.0 ],
					"presentation" : 1,
					"id" : "obj-190",
					"fontname" : "Tahoma",
					"numinlets" : 1,
					"numoutlets" : 0
				}

			}
, 			{
				"box" : 				{
					"maxclass" : "comment",
					"text" : "3 -",
					"fontface" : 1,
					"fontsize" : 8.0,
					"presentation_rect" : [ 496.0, 48.0, 64.0, 16.0 ],
					"patching_rect" : [ 1328.0, 40.0, 132.0, 16.0 ],
					"presentation" : 1,
					"id" : "obj-191",
					"fontname" : "Tahoma",
					"numinlets" : 1,
					"numoutlets" : 0
				}

			}
, 			{
				"box" : 				{
					"maxclass" : "comment",
					"text" : "1 - Loop Start",
					"fontface" : 1,
					"fontsize" : 8.0,
					"presentation_rect" : [ 496.0, 16.0, 64.0, 16.0 ],
					"patching_rect" : [ 1328.0, 8.0, 132.0, 16.0 ],
					"presentation" : 1,
					"id" : "obj-193",
					"fontname" : "Tahoma",
					"numinlets" : 1,
					"numoutlets" : 0
				}

			}
, 			{
				"box" : 				{
					"maxclass" : "comment",
					"text" : "1 -Stop Clip",
					"fontface" : 1,
					"fontsize" : 8.0,
					"presentation_rect" : [ 560.0, 80.0, 64.0, 16.0 ],
					"patching_rect" : [ 1464.0, 72.0, 128.0, 16.0 ],
					"presentation" : 1,
					"id" : "obj-194",
					"fontname" : "Tahoma",
					"numinlets" : 1,
					"numoutlets" : 0
				}

			}
, 			{
				"box" : 				{
					"maxclass" : "comment",
					"text" : "4 -",
					"fontface" : 1,
					"fontsize" : 8.0,
					"presentation_rect" : [ 560.0, 128.0, 64.0, 16.0 ],
					"patching_rect" : [ 1464.0, 120.0, 128.0, 16.0 ],
					"presentation" : 1,
					"id" : "obj-195",
					"fontname" : "Tahoma",
					"numinlets" : 1,
					"numoutlets" : 0
				}

			}
, 			{
				"box" : 				{
					"maxclass" : "comment",
					"text" : "3 -",
					"fontface" : 1,
					"fontsize" : 8.0,
					"presentation_rect" : [ 560.0, 112.0, 64.0, 16.0 ],
					"patching_rect" : [ 1464.0, 104.0, 128.0, 16.0 ],
					"presentation" : 1,
					"id" : "obj-196",
					"fontname" : "Tahoma",
					"numinlets" : 1,
					"numoutlets" : 0
				}

			}
, 			{
				"box" : 				{
					"maxclass" : "comment",
					"text" : "2 -",
					"fontface" : 1,
					"fontsize" : 8.0,
					"presentation_rect" : [ 560.0, 96.0, 64.0, 16.0 ],
					"patching_rect" : [ 1464.0, 88.0, 128.0, 16.0 ],
					"presentation" : 1,
					"id" : "obj-197",
					"fontname" : "Tahoma",
					"numinlets" : 1,
					"numoutlets" : 0
				}

			}
, 			{
				"box" : 				{
					"maxclass" : "comment",
					"text" : "4 -",
					"fontface" : 1,
					"fontsize" : 8.0,
					"presentation_rect" : [ 496.0, 128.0, 64.0, 16.0 ],
					"patching_rect" : [ 1328.0, 120.0, 132.0, 16.0 ],
					"presentation" : 1,
					"id" : "obj-198",
					"fontname" : "Tahoma",
					"numinlets" : 1,
					"numoutlets" : 0
				}

			}
, 			{
				"box" : 				{
					"maxclass" : "comment",
					"text" : "3 -",
					"fontface" : 1,
					"fontsize" : 8.0,
					"presentation_rect" : [ 496.0, 112.0, 64.0, 16.0 ],
					"patching_rect" : [ 1328.0, 104.0, 132.0, 16.0 ],
					"presentation" : 1,
					"id" : "obj-199",
					"fontname" : "Tahoma",
					"numinlets" : 1,
					"numoutlets" : 0
				}

			}
, 			{
				"box" : 				{
					"maxclass" : "comment",
					"text" : "2 -",
					"fontface" : 1,
					"fontsize" : 8.0,
					"presentation_rect" : [ 496.0, 96.0, 64.0, 16.0 ],
					"patching_rect" : [ 1328.0, 88.0, 132.0, 16.0 ],
					"presentation" : 1,
					"id" : "obj-200",
					"fontname" : "Tahoma",
					"numinlets" : 1,
					"numoutlets" : 0
				}

			}
, 			{
				"box" : 				{
					"maxclass" : "comment",
					"text" : "1 -Start Clip",
					"fontface" : 1,
					"fontsize" : 8.0,
					"presentation_rect" : [ 496.0, 80.0, 64.0, 16.0 ],
					"patching_rect" : [ 1328.0, 72.0, 132.0, 16.0 ],
					"presentation" : 1,
					"id" : "obj-201",
					"fontname" : "Tahoma",
					"numinlets" : 1,
					"numoutlets" : 0
				}

			}
, 			{
				"box" : 				{
					"maxclass" : "comment",
					"text" : "1 -Loop End",
					"fontface" : 1,
					"fontsize" : 8.0,
					"presentation_rect" : [ 336.0, 16.0, 64.0, 16.0 ],
					"patching_rect" : [ 1464.0, 8.0, 128.0, 16.0 ],
					"presentation" : 1,
					"id" : "obj-170",
					"fontname" : "Tahoma",
					"numinlets" : 1,
					"numoutlets" : 0
				}

			}
, 			{
				"box" : 				{
					"maxclass" : "comment",
					"text" : "4 -",
					"fontface" : 1,
					"fontsize" : 8.0,
					"presentation_rect" : [ 336.0, 64.0, 64.0, 16.0 ],
					"patching_rect" : [ 1464.0, 56.0, 128.0, 16.0 ],
					"presentation" : 1,
					"id" : "obj-171",
					"fontname" : "Tahoma",
					"numinlets" : 1,
					"numoutlets" : 0
				}

			}
, 			{
				"box" : 				{
					"maxclass" : "comment",
					"text" : "3 -",
					"fontface" : 1,
					"fontsize" : 8.0,
					"presentation_rect" : [ 336.0, 48.0, 64.0, 16.0 ],
					"patching_rect" : [ 1464.0, 40.0, 128.0, 16.0 ],
					"presentation" : 1,
					"id" : "obj-172",
					"fontname" : "Tahoma",
					"numinlets" : 1,
					"numoutlets" : 0
				}

			}
, 			{
				"box" : 				{
					"maxclass" : "comment",
					"text" : "4 -",
					"fontface" : 1,
					"fontsize" : 8.0,
					"presentation_rect" : [ 272.0, 64.0, 64.0, 16.0 ],
					"patching_rect" : [ 1328.0, 56.0, 132.0, 16.0 ],
					"presentation" : 1,
					"id" : "obj-174",
					"fontname" : "Tahoma",
					"numinlets" : 1,
					"numoutlets" : 0
				}

			}
, 			{
				"box" : 				{
					"maxclass" : "comment",
					"text" : "3 -",
					"fontface" : 1,
					"fontsize" : 8.0,
					"presentation_rect" : [ 272.0, 48.0, 64.0, 16.0 ],
					"patching_rect" : [ 1328.0, 40.0, 132.0, 16.0 ],
					"presentation" : 1,
					"id" : "obj-175",
					"fontname" : "Tahoma",
					"numinlets" : 1,
					"numoutlets" : 0
				}

			}
, 			{
				"box" : 				{
					"maxclass" : "comment",
					"text" : "1 - Loop Start",
					"fontface" : 1,
					"fontsize" : 8.0,
					"presentation_rect" : [ 272.0, 16.0, 64.0, 16.0 ],
					"patching_rect" : [ 1328.0, 8.0, 132.0, 16.0 ],
					"presentation" : 1,
					"id" : "obj-177",
					"fontname" : "Tahoma",
					"numinlets" : 1,
					"numoutlets" : 0
				}

			}
, 			{
				"box" : 				{
					"maxclass" : "comment",
					"text" : "1 -Stop Clip",
					"fontface" : 1,
					"fontsize" : 8.0,
					"presentation_rect" : [ 336.0, 80.0, 64.0, 16.0 ],
					"patching_rect" : [ 1464.0, 72.0, 128.0, 16.0 ],
					"presentation" : 1,
					"id" : "obj-178",
					"fontname" : "Tahoma",
					"numinlets" : 1,
					"numoutlets" : 0
				}

			}
, 			{
				"box" : 				{
					"maxclass" : "comment",
					"text" : "4 -",
					"fontface" : 1,
					"fontsize" : 8.0,
					"presentation_rect" : [ 336.0, 128.0, 64.0, 16.0 ],
					"patching_rect" : [ 1464.0, 120.0, 128.0, 16.0 ],
					"presentation" : 1,
					"id" : "obj-179",
					"fontname" : "Tahoma",
					"numinlets" : 1,
					"numoutlets" : 0
				}

			}
, 			{
				"box" : 				{
					"maxclass" : "comment",
					"text" : "3 -",
					"fontface" : 1,
					"fontsize" : 8.0,
					"presentation_rect" : [ 336.0, 112.0, 64.0, 16.0 ],
					"patching_rect" : [ 1464.0, 104.0, 128.0, 16.0 ],
					"presentation" : 1,
					"id" : "obj-180",
					"fontname" : "Tahoma",
					"numinlets" : 1,
					"numoutlets" : 0
				}

			}
, 			{
				"box" : 				{
					"maxclass" : "comment",
					"text" : "2 -",
					"fontface" : 1,
					"fontsize" : 8.0,
					"presentation_rect" : [ 336.0, 96.0, 64.0, 16.0 ],
					"patching_rect" : [ 1464.0, 88.0, 128.0, 16.0 ],
					"presentation" : 1,
					"id" : "obj-181",
					"fontname" : "Tahoma",
					"numinlets" : 1,
					"numoutlets" : 0
				}

			}
, 			{
				"box" : 				{
					"maxclass" : "comment",
					"text" : "4 -",
					"fontface" : 1,
					"fontsize" : 8.0,
					"presentation_rect" : [ 272.0, 128.0, 64.0, 16.0 ],
					"patching_rect" : [ 1328.0, 120.0, 132.0, 16.0 ],
					"presentation" : 1,
					"id" : "obj-182",
					"fontname" : "Tahoma",
					"numinlets" : 1,
					"numoutlets" : 0
				}

			}
, 			{
				"box" : 				{
					"maxclass" : "comment",
					"text" : "3 -",
					"fontface" : 1,
					"fontsize" : 8.0,
					"presentation_rect" : [ 272.0, 112.0, 64.0, 16.0 ],
					"patching_rect" : [ 1328.0, 104.0, 132.0, 16.0 ],
					"presentation" : 1,
					"id" : "obj-183",
					"fontname" : "Tahoma",
					"numinlets" : 1,
					"numoutlets" : 0
				}

			}
, 			{
				"box" : 				{
					"maxclass" : "comment",
					"text" : "2 -",
					"fontface" : 1,
					"fontsize" : 8.0,
					"presentation_rect" : [ 272.0, 96.0, 64.0, 16.0 ],
					"patching_rect" : [ 1328.0, 88.0, 132.0, 16.0 ],
					"presentation" : 1,
					"id" : "obj-184",
					"fontname" : "Tahoma",
					"numinlets" : 1,
					"numoutlets" : 0
				}

			}
, 			{
				"box" : 				{
					"maxclass" : "comment",
					"text" : "1 -Start Clip",
					"fontface" : 1,
					"fontsize" : 8.0,
					"presentation_rect" : [ 272.0, 80.0, 64.0, 16.0 ],
					"patching_rect" : [ 1328.0, 72.0, 132.0, 16.0 ],
					"presentation" : 1,
					"id" : "obj-185",
					"fontname" : "Tahoma",
					"numinlets" : 1,
					"numoutlets" : 0
				}

			}
, 			{
				"box" : 				{
					"maxclass" : "comment",
					"text" : "1 -Loop End",
					"fontface" : 1,
					"fontsize" : 8.0,
					"presentation_rect" : [ 112.0, 16.0, 64.0, 16.0 ],
					"patching_rect" : [ 1464.0, 8.0, 128.0, 16.0 ],
					"presentation" : 1,
					"id" : "obj-28",
					"fontname" : "Tahoma",
					"numinlets" : 1,
					"numoutlets" : 0
				}

			}
, 			{
				"box" : 				{
					"maxclass" : "comment",
					"text" : "4 -",
					"fontface" : 1,
					"fontsize" : 8.0,
					"presentation_rect" : [ 112.0, 64.0, 64.0, 16.0 ],
					"patching_rect" : [ 1464.0, 56.0, 128.0, 16.0 ],
					"presentation" : 1,
					"id" : "obj-29",
					"fontname" : "Tahoma",
					"numinlets" : 1,
					"numoutlets" : 0
				}

			}
, 			{
				"box" : 				{
					"maxclass" : "comment",
					"text" : "3 -",
					"fontface" : 1,
					"fontsize" : 8.0,
					"presentation_rect" : [ 112.0, 48.0, 64.0, 16.0 ],
					"patching_rect" : [ 1464.0, 40.0, 128.0, 16.0 ],
					"presentation" : 1,
					"id" : "obj-30",
					"fontname" : "Tahoma",
					"numinlets" : 1,
					"numoutlets" : 0
				}

			}
, 			{
				"box" : 				{
					"maxclass" : "comment",
					"text" : "2 - Loop * 2",
					"fontface" : 1,
					"fontsize" : 8.0,
					"presentation_rect" : [ 112.0, 32.0, 64.0, 16.0 ],
					"patching_rect" : [ 1464.0, 24.0, 128.0, 16.0 ],
					"presentation" : 1,
					"id" : "obj-31",
					"fontname" : "Tahoma",
					"numinlets" : 1,
					"numoutlets" : 0
				}

			}
, 			{
				"box" : 				{
					"maxclass" : "comment",
					"text" : "4 -",
					"fontface" : 1,
					"fontsize" : 8.0,
					"presentation_rect" : [ 48.0, 64.0, 64.0, 16.0 ],
					"patching_rect" : [ 1328.0, 56.0, 132.0, 16.0 ],
					"presentation" : 1,
					"id" : "obj-32",
					"fontname" : "Tahoma",
					"numinlets" : 1,
					"numoutlets" : 0
				}

			}
, 			{
				"box" : 				{
					"maxclass" : "comment",
					"text" : "3 -",
					"fontface" : 1,
					"fontsize" : 8.0,
					"presentation_rect" : [ 48.0, 48.0, 64.0, 16.0 ],
					"patching_rect" : [ 1328.0, 40.0, 132.0, 16.0 ],
					"presentation" : 1,
					"id" : "obj-33",
					"fontname" : "Tahoma",
					"numinlets" : 1,
					"numoutlets" : 0
				}

			}
, 			{
				"box" : 				{
					"maxclass" : "comment",
					"text" : "2 - Loop / 2",
					"fontface" : 1,
					"fontsize" : 8.0,
					"presentation_rect" : [ 48.0, 32.0, 64.0, 16.0 ],
					"patching_rect" : [ 1328.0, 24.0, 132.0, 16.0 ],
					"presentation" : 1,
					"id" : "obj-34",
					"fontname" : "Tahoma",
					"numinlets" : 1,
					"numoutlets" : 0
				}

			}
, 			{
				"box" : 				{
					"maxclass" : "comment",
					"text" : "1 - Loop Start",
					"fontface" : 1,
					"fontsize" : 8.0,
					"presentation_rect" : [ 48.0, 16.0, 64.0, 16.0 ],
					"patching_rect" : [ 1328.0, 8.0, 132.0, 16.0 ],
					"presentation" : 1,
					"id" : "obj-35",
					"fontname" : "Tahoma",
					"numinlets" : 1,
					"numoutlets" : 0
				}

			}
, 			{
				"box" : 				{
					"maxclass" : "comment",
					"text" : "1 -Stop Clip",
					"fontface" : 1,
					"fontsize" : 8.0,
					"presentation_rect" : [ 112.0, 80.0, 64.0, 16.0 ],
					"patching_rect" : [ 1464.0, 72.0, 128.0, 16.0 ],
					"presentation" : 1,
					"id" : "obj-27",
					"fontname" : "Tahoma",
					"numinlets" : 1,
					"numoutlets" : 0
				}

			}
, 			{
				"box" : 				{
					"maxclass" : "comment",
					"text" : "4 -",
					"fontface" : 1,
					"fontsize" : 8.0,
					"presentation_rect" : [ 112.0, 128.0, 64.0, 16.0 ],
					"patching_rect" : [ 1464.0, 120.0, 128.0, 16.0 ],
					"presentation" : 1,
					"id" : "obj-23",
					"fontname" : "Tahoma",
					"numinlets" : 1,
					"numoutlets" : 0
				}

			}
, 			{
				"box" : 				{
					"maxclass" : "comment",
					"text" : "3 -",
					"fontface" : 1,
					"fontsize" : 8.0,
					"presentation_rect" : [ 112.0, 112.0, 64.0, 16.0 ],
					"patching_rect" : [ 1464.0, 104.0, 128.0, 16.0 ],
					"presentation" : 1,
					"id" : "obj-24",
					"fontname" : "Tahoma",
					"numinlets" : 1,
					"numoutlets" : 0
				}

			}
, 			{
				"box" : 				{
					"maxclass" : "comment",
					"text" : "2 -",
					"fontface" : 1,
					"fontsize" : 8.0,
					"presentation_rect" : [ 112.0, 96.0, 64.0, 16.0 ],
					"patching_rect" : [ 1464.0, 88.0, 128.0, 16.0 ],
					"presentation" : 1,
					"id" : "obj-25",
					"fontname" : "Tahoma",
					"numinlets" : 1,
					"numoutlets" : 0
				}

			}
, 			{
				"box" : 				{
					"maxclass" : "comment",
					"text" : "4 -",
					"fontface" : 1,
					"fontsize" : 8.0,
					"presentation_rect" : [ 48.0, 128.0, 64.0, 16.0 ],
					"patching_rect" : [ 1328.0, 120.0, 132.0, 16.0 ],
					"presentation" : 1,
					"id" : "obj-19",
					"fontname" : "Tahoma",
					"numinlets" : 1,
					"numoutlets" : 0
				}

			}
, 			{
				"box" : 				{
					"maxclass" : "comment",
					"text" : "3 -",
					"fontface" : 1,
					"fontsize" : 8.0,
					"presentation_rect" : [ 48.0, 112.0, 64.0, 16.0 ],
					"patching_rect" : [ 1328.0, 104.0, 132.0, 16.0 ],
					"presentation" : 1,
					"id" : "obj-18",
					"fontname" : "Tahoma",
					"numinlets" : 1,
					"numoutlets" : 0
				}

			}
, 			{
				"box" : 				{
					"maxclass" : "comment",
					"text" : "2 -",
					"fontface" : 1,
					"fontsize" : 8.0,
					"presentation_rect" : [ 48.0, 96.0, 64.0, 16.0 ],
					"patching_rect" : [ 1328.0, 88.0, 132.0, 16.0 ],
					"presentation" : 1,
					"id" : "obj-17",
					"fontname" : "Tahoma",
					"numinlets" : 1,
					"numoutlets" : 0
				}

			}
, 			{
				"box" : 				{
					"maxclass" : "comment",
					"text" : "1 -Start Clip",
					"fontface" : 1,
					"fontsize" : 8.0,
					"presentation_rect" : [ 48.0, 80.0, 64.0, 16.0 ],
					"patching_rect" : [ 1328.0, 72.0, 132.0, 16.0 ],
					"presentation" : 1,
					"id" : "obj-16",
					"fontname" : "Tahoma",
					"numinlets" : 1,
					"numoutlets" : 0
				}

			}
, 			{
				"box" : 				{
					"maxclass" : "newobj",
					"text" : "pattrmarker ficken",
					"fontsize" : 10.0,
					"outlettype" : [ "" ],
					"patching_rect" : [ 160.0, 160.0, 100.0, 18.0 ],
					"id" : "obj-14",
					"fontname" : "Arial Bold",
					"numinlets" : 1,
					"numoutlets" : 1
				}

			}
, 			{
				"box" : 				{
					"maxclass" : "newobj",
					"text" : "print panelmap",
					"fontsize" : 10.0,
					"patching_rect" : [ 288.0, 208.0, 100.0, 18.0 ],
					"id" : "obj-11",
					"fontname" : "Arial Bold",
					"numinlets" : 1,
					"numoutlets" : 0
				}

			}
, 			{
				"box" : 				{
					"maxclass" : "newobj",
					"text" : "gate",
					"fontsize" : 10.0,
					"outlettype" : [ "" ],
					"patching_rect" : [ 288.0, 184.0, 100.0, 18.0 ],
					"id" : "obj-10",
					"fontname" : "Arial Bold",
					"numinlets" : 2,
					"numoutlets" : 1
				}

			}
, 			{
				"box" : 				{
					"maxclass" : "newobj",
					"varname" : "panelmap-debugbind",
					"text" : "pattr panelmap-debugbind @bindto ::root::debugstate",
					"linecount" : 2,
					"fontsize" : 10.0,
					"outlettype" : [ "", "", "" ],
					"patching_rect" : [ 288.0, 136.0, 168.0, 29.0 ],
					"id" : "obj-50",
					"fontname" : "Arial Bold",
					"numinlets" : 1,
					"numoutlets" : 3,
					"restore" : [ 0.0 ],
					"saved_object_attributes" : 					{
						"parameter_enable" : 0
					}

				}

			}
, 			{
				"box" : 				{
					"maxclass" : "newobj",
					"text" : "tosymbol",
					"fontsize" : 10.0,
					"outlettype" : [ "" ],
					"patching_rect" : [ 160.0, 112.0, 100.0, 18.0 ],
					"id" : "obj-9",
					"fontname" : "Arial Bold",
					"numinlets" : 1,
					"numoutlets" : 1
				}

			}
, 			{
				"box" : 				{
					"maxclass" : "message",
					"text" : "panelfoo",
					"fontsize" : 10.0,
					"outlettype" : [ "" ],
					"patching_rect" : [ 240.0, 72.0, 88.0, 16.0 ],
					"id" : "obj-8",
					"fontname" : "Arial Bold",
					"numinlets" : 2,
					"numoutlets" : 1
				}

			}
, 			{
				"box" : 				{
					"maxclass" : "newobj",
					"text" : "t b b",
					"fontsize" : 10.0,
					"outlettype" : [ "bang", "bang" ],
					"patching_rect" : [ 160.0, 48.0, 100.0, 18.0 ],
					"id" : "obj-6",
					"fontname" : "Arial Bold",
					"numinlets" : 1,
					"numoutlets" : 2
				}

			}
, 			{
				"box" : 				{
					"maxclass" : "newobj",
					"text" : "receive ---ldbng1",
					"fontsize" : 10.0,
					"outlettype" : [ "" ],
					"patching_rect" : [ 8.0, 24.0, 100.0, 18.0 ],
					"id" : "obj-1",
					"color" : [ 0.239216, 0.643137, 0.709804, 1.0 ],
					"fontname" : "Arial Bold",
					"numinlets" : 0,
					"numoutlets" : 1
				}

			}
, 			{
				"box" : 				{
					"maxclass" : "message",
					"text" : "store 2",
					"fontsize" : 10.0,
					"outlettype" : [ "" ],
					"patching_rect" : [ 128.0, 384.0, 50.0, 16.0 ],
					"id" : "obj-167",
					"fontname" : "Arial Bold",
					"numinlets" : 2,
					"numoutlets" : 1
				}

			}
, 			{
				"box" : 				{
					"maxclass" : "message",
					"text" : "2",
					"fontsize" : 10.0,
					"outlettype" : [ "" ],
					"patching_rect" : [ 72.0, 384.0, 32.0, 16.0 ],
					"id" : "obj-165",
					"fontname" : "Arial Bold",
					"numinlets" : 2,
					"numoutlets" : 1
				}

			}
, 			{
				"box" : 				{
					"maxclass" : "message",
					"text" : "1",
					"fontsize" : 10.0,
					"outlettype" : [ "" ],
					"patching_rect" : [ 64.0, 368.0, 32.0, 16.0 ],
					"id" : "obj-163",
					"fontname" : "Arial Bold",
					"numinlets" : 2,
					"numoutlets" : 1
				}

			}
, 			{
				"box" : 				{
					"maxclass" : "toggle",
					"outlettype" : [ "int" ],
					"patching_rect" : [ 184.0, 360.0, 20.0, 20.0 ],
					"id" : "obj-161",
					"numinlets" : 1,
					"numoutlets" : 1
				}

			}
, 			{
				"box" : 				{
					"maxclass" : "message",
					"text" : "store 1",
					"fontsize" : 10.0,
					"outlettype" : [ "" ],
					"patching_rect" : [ 120.0, 368.0, 50.0, 16.0 ],
					"id" : "obj-158",
					"fontname" : "Arial Bold",
					"numinlets" : 2,
					"numoutlets" : 1
				}

			}
, 			{
				"box" : 				{
					"maxclass" : "bpatcher",
					"varname" : "pb7",
					"presentation_rect" : [ 672.0, 16.0, 48.0, 64.0 ],
					"args" : [ 7 ],
					"patching_rect" : [ 664.0, 280.0, 40.0, 32.0 ],
					"presentation" : 1,
					"id" : "obj-141",
					"name" : "DJ-ControllerFG.Panel.Mapping.PushButton.maxpat",
					"numinlets" : 2,
					"numoutlets" : 0
				}

			}
, 			{
				"box" : 				{
					"maxclass" : "message",
					"text" : "but-16",
					"fontsize" : 10.0,
					"outlettype" : [ "" ],
					"patching_rect" : [ 752.0, 328.0, 40.0, 16.0 ],
					"id" : "obj-142",
					"fontname" : "Arial Bold",
					"numinlets" : 2,
					"numoutlets" : 1
				}

			}
, 			{
				"box" : 				{
					"maxclass" : "message",
					"text" : "but-15",
					"fontsize" : 10.0,
					"outlettype" : [ "" ],
					"patching_rect" : [ 696.0, 328.0, 44.0, 16.0 ],
					"id" : "obj-143",
					"fontname" : "Arial Bold",
					"numinlets" : 2,
					"numoutlets" : 1
				}

			}
, 			{
				"box" : 				{
					"maxclass" : "bpatcher",
					"varname" : "pb16",
					"presentation_rect" : [ 848.0, 80.0, 48.0, 64.0 ],
					"args" : [ 16 ],
					"patching_rect" : [ 752.0, 368.0, 40.0, 32.0 ],
					"presentation" : 1,
					"id" : "obj-144",
					"name" : "DJ-ControllerFG.Panel.Mapping.PushButton.maxpat",
					"numinlets" : 2,
					"numoutlets" : 0
				}

			}
, 			{
				"box" : 				{
					"maxclass" : "bpatcher",
					"varname" : "pb15",
					"presentation_rect" : [ 672.0, 80.0, 48.0, 64.0 ],
					"args" : [ 15 ],
					"patching_rect" : [ 696.0, 368.0, 40.0, 32.0 ],
					"presentation" : 1,
					"id" : "obj-145",
					"name" : "DJ-ControllerFG.Panel.Mapping.PushButton.maxpat",
					"numinlets" : 2,
					"numoutlets" : 0
				}

			}
, 			{
				"box" : 				{
					"maxclass" : "message",
					"text" : "but-8",
					"fontsize" : 10.0,
					"outlettype" : [ "" ],
					"patching_rect" : [ 720.0, 240.0, 40.0, 16.0 ],
					"id" : "obj-146",
					"fontname" : "Arial Bold",
					"numinlets" : 2,
					"numoutlets" : 1
				}

			}
, 			{
				"box" : 				{
					"maxclass" : "bpatcher",
					"varname" : "pb8",
					"presentation_rect" : [ 848.0, 16.0, 48.0, 64.0 ],
					"args" : [ 8 ],
					"patching_rect" : [ 720.0, 280.0, 40.0, 32.0 ],
					"presentation" : 1,
					"id" : "obj-147",
					"name" : "DJ-ControllerFG.Panel.Mapping.PushButton.maxpat",
					"numinlets" : 2,
					"numoutlets" : 0
				}

			}
, 			{
				"box" : 				{
					"maxclass" : "message",
					"text" : "but-7",
					"fontsize" : 10.0,
					"outlettype" : [ "" ],
					"patching_rect" : [ 664.0, 240.0, 40.0, 16.0 ],
					"id" : "obj-148",
					"fontname" : "Arial Bold",
					"numinlets" : 2,
					"numoutlets" : 1
				}

			}
, 			{
				"box" : 				{
					"maxclass" : "bpatcher",
					"varname" : "pb5",
					"presentation_rect" : [ 448.0, 16.0, 48.0, 64.0 ],
					"args" : [ 5 ],
					"patching_rect" : [ 552.0, 280.0, 40.0, 32.0 ],
					"presentation" : 1,
					"id" : "obj-149",
					"name" : "DJ-ControllerFG.Panel.Mapping.PushButton.maxpat",
					"numinlets" : 2,
					"numoutlets" : 0
				}

			}
, 			{
				"box" : 				{
					"maxclass" : "message",
					"text" : "but-14",
					"fontsize" : 10.0,
					"outlettype" : [ "" ],
					"patching_rect" : [ 640.0, 328.0, 40.0, 16.0 ],
					"id" : "obj-150",
					"fontname" : "Arial Bold",
					"numinlets" : 2,
					"numoutlets" : 1
				}

			}
, 			{
				"box" : 				{
					"maxclass" : "message",
					"text" : "but-13",
					"fontsize" : 10.0,
					"outlettype" : [ "" ],
					"patching_rect" : [ 584.0, 328.0, 40.0, 16.0 ],
					"id" : "obj-151",
					"fontname" : "Arial Bold",
					"numinlets" : 2,
					"numoutlets" : 1
				}

			}
, 			{
				"box" : 				{
					"maxclass" : "bpatcher",
					"varname" : "pb14",
					"presentation_rect" : [ 624.0, 80.0, 48.0, 64.0 ],
					"args" : [ 14 ],
					"patching_rect" : [ 640.0, 368.0, 40.0, 32.0 ],
					"presentation" : 1,
					"id" : "obj-152",
					"name" : "DJ-ControllerFG.Panel.Mapping.PushButton.maxpat",
					"numinlets" : 2,
					"numoutlets" : 0
				}

			}
, 			{
				"box" : 				{
					"maxclass" : "bpatcher",
					"varname" : "pb13",
					"presentation_rect" : [ 448.0, 80.0, 48.0, 64.0 ],
					"args" : [ 13 ],
					"patching_rect" : [ 584.0, 368.0, 40.0, 32.0 ],
					"presentation" : 1,
					"id" : "obj-153",
					"name" : "DJ-ControllerFG.Panel.Mapping.PushButton.maxpat",
					"numinlets" : 2,
					"numoutlets" : 0
				}

			}
, 			{
				"box" : 				{
					"maxclass" : "message",
					"text" : "but-6",
					"fontsize" : 10.0,
					"outlettype" : [ "" ],
					"patching_rect" : [ 608.0, 240.0, 40.0, 16.0 ],
					"id" : "obj-154",
					"fontname" : "Arial Bold",
					"numinlets" : 2,
					"numoutlets" : 1
				}

			}
, 			{
				"box" : 				{
					"maxclass" : "bpatcher",
					"varname" : "pb6",
					"presentation_rect" : [ 624.0, 16.0, 48.0, 64.0 ],
					"args" : [ 6 ],
					"patching_rect" : [ 608.0, 280.0, 40.0, 32.0 ],
					"presentation" : 1,
					"id" : "obj-155",
					"name" : "DJ-ControllerFG.Panel.Mapping.PushButton.maxpat",
					"numinlets" : 2,
					"numoutlets" : 0
				}

			}
, 			{
				"box" : 				{
					"maxclass" : "message",
					"text" : "but-5",
					"fontsize" : 10.0,
					"outlettype" : [ "" ],
					"patching_rect" : [ 552.0, 240.0, 40.0, 16.0 ],
					"id" : "obj-156",
					"fontname" : "Arial Bold",
					"numinlets" : 2,
					"numoutlets" : 1
				}

			}
, 			{
				"box" : 				{
					"maxclass" : "bpatcher",
					"varname" : "pb3",
					"presentation_rect" : [ 224.0, 16.0, 48.0, 64.0 ],
					"args" : [ 3 ],
					"patching_rect" : [ 440.0, 280.0, 40.0, 32.0 ],
					"presentation" : 1,
					"id" : "obj-133",
					"name" : "DJ-ControllerFG.Panel.Mapping.PushButton.maxpat",
					"numinlets" : 2,
					"numoutlets" : 0
				}

			}
, 			{
				"box" : 				{
					"maxclass" : "message",
					"text" : "but-12",
					"fontsize" : 10.0,
					"outlettype" : [ "" ],
					"patching_rect" : [ 528.0, 328.0, 40.0, 16.0 ],
					"id" : "obj-134",
					"fontname" : "Arial Bold",
					"numinlets" : 2,
					"numoutlets" : 1
				}

			}
, 			{
				"box" : 				{
					"maxclass" : "message",
					"text" : "but-11",
					"fontsize" : 10.0,
					"outlettype" : [ "" ],
					"patching_rect" : [ 472.0, 328.0, 40.0, 16.0 ],
					"id" : "obj-135",
					"fontname" : "Arial Bold",
					"numinlets" : 2,
					"numoutlets" : 1
				}

			}
, 			{
				"box" : 				{
					"maxclass" : "bpatcher",
					"varname" : "pb12",
					"presentation_rect" : [ 400.0, 80.0, 48.0, 64.0 ],
					"args" : [ 12 ],
					"patching_rect" : [ 528.0, 368.0, 40.0, 32.0 ],
					"presentation" : 1,
					"id" : "obj-136",
					"name" : "DJ-ControllerFG.Panel.Mapping.PushButton.maxpat",
					"numinlets" : 2,
					"numoutlets" : 0
				}

			}
, 			{
				"box" : 				{
					"maxclass" : "bpatcher",
					"varname" : "pb11",
					"presentation_rect" : [ 224.0, 80.0, 48.0, 64.0 ],
					"args" : [ 11 ],
					"patching_rect" : [ 472.0, 368.0, 40.0, 32.0 ],
					"presentation" : 1,
					"id" : "obj-137",
					"name" : "DJ-ControllerFG.Panel.Mapping.PushButton.maxpat",
					"numinlets" : 2,
					"numoutlets" : 0
				}

			}
, 			{
				"box" : 				{
					"maxclass" : "message",
					"text" : "but-4",
					"fontsize" : 10.0,
					"outlettype" : [ "" ],
					"patching_rect" : [ 496.0, 240.0, 40.0, 16.0 ],
					"id" : "obj-138",
					"fontname" : "Arial Bold",
					"numinlets" : 2,
					"numoutlets" : 1
				}

			}
, 			{
				"box" : 				{
					"maxclass" : "bpatcher",
					"varname" : "pb4",
					"presentation_rect" : [ 400.0, 16.0, 48.0, 64.0 ],
					"args" : [ 4 ],
					"patching_rect" : [ 496.0, 280.0, 40.0, 32.0 ],
					"presentation" : 1,
					"id" : "obj-139",
					"name" : "DJ-ControllerFG.Panel.Mapping.PushButton.maxpat",
					"numinlets" : 2,
					"numoutlets" : 0
				}

			}
, 			{
				"box" : 				{
					"maxclass" : "message",
					"text" : "but-3",
					"fontsize" : 10.0,
					"outlettype" : [ "" ],
					"patching_rect" : [ 440.0, 240.0, 40.0, 16.0 ],
					"id" : "obj-140",
					"fontname" : "Arial Bold",
					"numinlets" : 2,
					"numoutlets" : 1
				}

			}
, 			{
				"box" : 				{
					"maxclass" : "bpatcher",
					"varname" : "pb1",
					"presentation_rect" : [ 0.0, 16.0, 48.0, 66.0 ],
					"args" : [ 1 ],
					"patching_rect" : [ 328.0, 280.0, 40.0, 32.0 ],
					"presentation" : 1,
					"id" : "obj-128",
					"name" : "DJ-ControllerFG.Panel.Mapping.PushButton.maxpat",
					"numinlets" : 2,
					"numoutlets" : 0
				}

			}
, 			{
				"box" : 				{
					"maxclass" : "message",
					"text" : "but-10",
					"fontsize" : 10.0,
					"outlettype" : [ "" ],
					"patching_rect" : [ 416.0, 328.0, 40.0, 16.0 ],
					"id" : "obj-118",
					"fontname" : "Arial Bold",
					"numinlets" : 2,
					"numoutlets" : 1
				}

			}
, 			{
				"box" : 				{
					"maxclass" : "message",
					"text" : "but-9",
					"fontsize" : 10.0,
					"outlettype" : [ "" ],
					"patching_rect" : [ 360.0, 328.0, 40.0, 16.0 ],
					"id" : "obj-119",
					"fontname" : "Arial Bold",
					"numinlets" : 2,
					"numoutlets" : 1
				}

			}
, 			{
				"box" : 				{
					"maxclass" : "bpatcher",
					"varname" : "pb10",
					"presentation_rect" : [ 176.0, 80.0, 48.0, 64.0 ],
					"args" : [ 10 ],
					"patching_rect" : [ 416.0, 368.0, 40.0, 32.0 ],
					"presentation" : 1,
					"id" : "obj-116",
					"name" : "DJ-ControllerFG.Panel.Mapping.PushButton.maxpat",
					"numinlets" : 2,
					"numoutlets" : 0
				}

			}
, 			{
				"box" : 				{
					"maxclass" : "bpatcher",
					"varname" : "pb9",
					"presentation_rect" : [ 0.0, 80.0, 48.0, 64.0 ],
					"args" : [ 9 ],
					"patching_rect" : [ 360.0, 368.0, 40.0, 32.0 ],
					"presentation" : 1,
					"id" : "obj-117",
					"name" : "DJ-ControllerFG.Panel.Mapping.PushButton.maxpat",
					"numinlets" : 2,
					"numoutlets" : 0
				}

			}
, 			{
				"box" : 				{
					"maxclass" : "message",
					"text" : "but-2",
					"fontsize" : 10.0,
					"outlettype" : [ "" ],
					"patching_rect" : [ 384.0, 240.0, 40.0, 16.0 ],
					"id" : "obj-115",
					"fontname" : "Arial Bold",
					"numinlets" : 2,
					"numoutlets" : 1
				}

			}
, 			{
				"box" : 				{
					"maxclass" : "bpatcher",
					"varname" : "pb2",
					"presentation_rect" : [ 176.0, 16.0, 48.0, 64.0 ],
					"args" : [ 2 ],
					"patching_rect" : [ 384.0, 280.0, 40.0, 32.0 ],
					"presentation" : 1,
					"id" : "obj-114",
					"name" : "DJ-ControllerFG.Panel.Mapping.PushButton.maxpat",
					"numinlets" : 2,
					"numoutlets" : 0
				}

			}
, 			{
				"box" : 				{
					"maxclass" : "newobj",
					"text" : "t b b",
					"fontsize" : 10.0,
					"outlettype" : [ "bang", "bang" ],
					"patching_rect" : [ 8.0, 72.0, 56.0, 18.0 ],
					"id" : "obj-113",
					"color" : [ 0.501961, 0.717647, 0.764706, 1.0 ],
					"fontname" : "Arial Bold",
					"numinlets" : 1,
					"numoutlets" : 2
				}

			}
, 			{
				"box" : 				{
					"maxclass" : "message",
					"text" : "but-1",
					"fontsize" : 10.0,
					"outlettype" : [ "" ],
					"patching_rect" : [ 328.0, 240.0, 40.0, 16.0 ],
					"id" : "obj-112",
					"fontname" : "Arial Bold",
					"numinlets" : 2,
					"numoutlets" : 1
				}

			}
, 			{
				"box" : 				{
					"maxclass" : "newobj",
					"varname" : "panel-map-storage",
					"text" : "pattrstorage panel-map-storage @savemode 2 @greedy 1",
					"linecount" : 4,
					"fontsize" : 10.0,
					"outlettype" : [ "" ],
					"patching_rect" : [ 48.0, 432.0, 105.0, 52.0 ],
					"id" : "obj-87",
					"fontname" : "Arial Bold",
					"numinlets" : 1,
					"numoutlets" : 1,
					"saved_object_attributes" : 					{
						"client_rect" : [ 4, 44, 358, 562 ],
						"parameter_enable" : 0,
						"paraminitmode" : 0,
						"storage_rect" : [ 365, 50, 816, 178 ]
					}

				}

			}
, 			{
				"box" : 				{
					"maxclass" : "bpatcher",
					"outlettype" : [ "" ],
					"presentation_rect" : [ 1128.0, 24.0, 88.0, 48.0 ],
					"args" : [  ],
					"patching_rect" : [ 776.0, 216.0, 88.0, 48.0 ],
					"presentation" : 1,
					"id" : "obj-86",
					"name" : "DJ-ControllerFG.Panel.Mapping.LayerButtons.maxpat",
					"numinlets" : 0,
					"numoutlets" : 1
				}

			}
, 			{
				"box" : 				{
					"maxclass" : "comment",
					"text" : "MIDI-Mapping",
					"fontsize" : 10.0,
					"presentation_rect" : [ 0.0, 0.0, 150.0, 18.0 ],
					"patching_rect" : [ 0.0, 0.0, 150.0, 18.0 ],
					"presentation" : 1,
					"id" : "obj-2",
					"fontname" : "Arial Bold",
					"numinlets" : 1,
					"numoutlets" : 0
				}

			}
, 			{
				"box" : 				{
					"maxclass" : "textbutton",
					"fontsize" : 10.0,
					"outlettype" : [ "", "", "int" ],
					"presentation_rect" : [ 0.0, 0.0, 1304.0, 16.0 ],
					"bgoveroncolor" : [ 1.0, 1.0, 1.0, 1.0 ],
					"border" : 1,
					"borderoncolor" : [ 1.0, 1.0, 1.0, 1.0 ],
					"textcolor" : [ 1.0, 1.0, 1.0, 1.0 ],
					"bgoncolor" : [ 1.0, 1.0, 1.0, 1.0 ],
					"textoveroncolor" : [ 1.0, 1.0, 1.0, 1.0 ],
					"text" : "",
					"patching_rect" : [ 288.0, 0.0, 121.0, 17.0 ],
					"presentation" : 1,
					"id" : "obj-4",
					"bgcolor" : [ 0.501961, 0.717647, 0.764706, 1.0 ],
					"bordercolor" : [ 0.6, 0.6, 0.6, 0.0 ],
					"fontname" : "Arial Bold",
					"numinlets" : 1,
					"texton" : "",
					"textovercolor" : [ 1.0, 1.0, 1.0, 1.0 ],
					"ignoreclick" : 1,
					"numoutlets" : 3,
					"bgovercolor" : [ 1.0, 1.0, 1.0, 1.0 ]
				}

			}
, 			{
				"box" : 				{
					"maxclass" : "panel",
					"presentation_rect" : [ 1.0, 8.0, 1302.0, 8.0 ],
					"border" : 1,
					"patching_rect" : [ 289.0, 9.0, 120.0, 24.0 ],
					"presentation" : 1,
					"id" : "obj-7",
					"rounded" : 0,
					"bgcolor" : [ 0.501961, 0.717647, 0.764706, 1.0 ],
					"bordercolor" : [ 0.0, 0.0, 0.0, 0.0 ],
					"numinlets" : 1,
					"numoutlets" : 0
				}

			}
, 			{
				"box" : 				{
					"maxclass" : "message",
					"text" : "storagewindow $1",
					"fontsize" : 10.0,
					"outlettype" : [ "" ],
					"patching_rect" : [ 184.0, 384.0, 99.0, 16.0 ],
					"id" : "obj-159",
					"fontname" : "Arial Bold",
					"numinlets" : 2,
					"numoutlets" : 1
				}

			}
, 			{
				"box" : 				{
					"maxclass" : "message",
					"text" : "subscribemode 0",
					"fontsize" : 10.0,
					"outlettype" : [ "" ],
					"patching_rect" : [ 48.0, 344.0, 96.0, 16.0 ],
					"id" : "obj-13",
					"fontname" : "Arial Bold",
					"numinlets" : 2,
					"numoutlets" : 1
				}

			}
, 			{
				"box" : 				{
					"maxclass" : "message",
					"text" : "panelmap",
					"fontsize" : 10.0,
					"outlettype" : [ "" ],
					"patching_rect" : [ 160.0, 88.0, 88.0, 16.0 ],
					"id" : "obj-3",
					"fontname" : "Arial Bold",
					"numinlets" : 2,
					"numoutlets" : 1
				}

			}
, 			{
				"box" : 				{
					"maxclass" : "message",
					"text" : "name $1",
					"fontsize" : 10.0,
					"outlettype" : [ "" ],
					"patching_rect" : [ 160.0, 136.0, 50.0, 16.0 ],
					"id" : "obj-5",
					"fontname" : "Arial Bold",
					"numinlets" : 2,
					"numoutlets" : 1
				}

			}
, 			{
				"box" : 				{
					"maxclass" : "textbutton",
					"fontsize" : 10.0,
					"outlettype" : [ "", "", "int" ],
					"presentation_rect" : [ 0.0, 80.0, 112.0, 64.0 ],
					"border" : 1,
					"textcolor" : [ 0.14902, 0.14902, 0.14902, 0.0 ],
					"patching_rect" : [ 1328.0, 72.0, 136.0, 64.0 ],
					"presentation" : 1,
					"id" : "obj-232",
					"background" : 1,
					"bgcolor" : [ 0.74902, 0.74902, 0.74902, 0.0 ],
					"fontname" : "Arial Bold",
					"numinlets" : 1,
					"textovercolor" : [ 0.101961, 0.101961, 0.101961, 0.0 ],
					"ignoreclick" : 1,
					"numoutlets" : 3,
					"bgovercolor" : [ 0.698039, 0.698039, 0.698039, 0.0 ]
				}

			}
, 			{
				"box" : 				{
					"maxclass" : "textbutton",
					"fontsize" : 10.0,
					"outlettype" : [ "", "", "int" ],
					"presentation_rect" : [ 112.0, 80.0, 112.0, 64.0 ],
					"border" : 1,
					"textcolor" : [ 0.14902, 0.14902, 0.14902, 0.0 ],
					"patching_rect" : [ 1464.0, 72.0, 128.0, 64.0 ],
					"presentation" : 1,
					"id" : "obj-230",
					"background" : 1,
					"bgcolor" : [ 0.74902, 0.74902, 0.74902, 0.0 ],
					"fontname" : "Arial Bold",
					"numinlets" : 1,
					"textovercolor" : [ 0.101961, 0.101961, 0.101961, 0.0 ],
					"ignoreclick" : 1,
					"numoutlets" : 3,
					"bgovercolor" : [ 0.698039, 0.698039, 0.698039, 0.0 ]
				}

			}
, 			{
				"box" : 				{
					"maxclass" : "textbutton",
					"fontsize" : 10.0,
					"outlettype" : [ "", "", "int" ],
					"presentation_rect" : [ 112.0, 16.0, 112.0, 64.0 ],
					"border" : 1,
					"textcolor" : [ 0.14902, 0.14902, 0.14902, 0.0 ],
					"patching_rect" : [ 1464.0, 8.0, 128.0, 64.0 ],
					"presentation" : 1,
					"id" : "obj-231",
					"background" : 1,
					"bgcolor" : [ 0.74902, 0.74902, 0.74902, 0.0 ],
					"fontname" : "Arial Bold",
					"numinlets" : 1,
					"textovercolor" : [ 0.101961, 0.101961, 0.101961, 0.0 ],
					"ignoreclick" : 1,
					"numoutlets" : 3,
					"bgovercolor" : [ 0.698039, 0.698039, 0.698039, 0.0 ]
				}

			}
, 			{
				"box" : 				{
					"maxclass" : "textbutton",
					"fontsize" : 10.0,
					"outlettype" : [ "", "", "int" ],
					"presentation_rect" : [ 224.0, 16.0, 112.0, 64.0 ],
					"border" : 1,
					"textcolor" : [ 0.14902, 0.14902, 0.14902, 0.0 ],
					"patching_rect" : [ 1328.0, 8.0, 136.0, 64.0 ],
					"presentation" : 1,
					"id" : "obj-218",
					"background" : 1,
					"bgcolor" : [ 0.74902, 0.74902, 0.74902, 0.0 ],
					"fontname" : "Arial Bold",
					"numinlets" : 1,
					"textovercolor" : [ 0.101961, 0.101961, 0.101961, 0.0 ],
					"ignoreclick" : 1,
					"numoutlets" : 3,
					"bgovercolor" : [ 0.698039, 0.698039, 0.698039, 0.0 ]
				}

			}
, 			{
				"box" : 				{
					"maxclass" : "textbutton",
					"fontsize" : 10.0,
					"outlettype" : [ "", "", "int" ],
					"presentation_rect" : [ 224.0, 80.0, 112.0, 64.0 ],
					"border" : 1,
					"textcolor" : [ 0.14902, 0.14902, 0.14902, 0.0 ],
					"patching_rect" : [ 1328.0, 72.0, 136.0, 64.0 ],
					"presentation" : 1,
					"id" : "obj-219",
					"background" : 1,
					"bgcolor" : [ 0.74902, 0.74902, 0.74902, 0.0 ],
					"fontname" : "Arial Bold",
					"numinlets" : 1,
					"textovercolor" : [ 0.101961, 0.101961, 0.101961, 0.0 ],
					"ignoreclick" : 1,
					"numoutlets" : 3,
					"bgovercolor" : [ 0.698039, 0.698039, 0.698039, 0.0 ]
				}

			}
, 			{
				"box" : 				{
					"maxclass" : "textbutton",
					"fontsize" : 10.0,
					"outlettype" : [ "", "", "int" ],
					"presentation_rect" : [ 336.0, 80.0, 112.0, 64.0 ],
					"border" : 1,
					"textcolor" : [ 0.14902, 0.14902, 0.14902, 0.0 ],
					"patching_rect" : [ 1464.0, 72.0, 128.0, 64.0 ],
					"presentation" : 1,
					"id" : "obj-220",
					"background" : 1,
					"bgcolor" : [ 0.74902, 0.74902, 0.74902, 0.0 ],
					"fontname" : "Arial Bold",
					"numinlets" : 1,
					"textovercolor" : [ 0.101961, 0.101961, 0.101961, 0.0 ],
					"ignoreclick" : 1,
					"numoutlets" : 3,
					"bgovercolor" : [ 0.698039, 0.698039, 0.698039, 0.0 ]
				}

			}
, 			{
				"box" : 				{
					"maxclass" : "textbutton",
					"fontsize" : 10.0,
					"outlettype" : [ "", "", "int" ],
					"presentation_rect" : [ 336.0, 16.0, 112.0, 64.0 ],
					"border" : 1,
					"textcolor" : [ 0.14902, 0.14902, 0.14902, 0.0 ],
					"patching_rect" : [ 1464.0, 8.0, 128.0, 64.0 ],
					"presentation" : 1,
					"id" : "obj-221",
					"background" : 1,
					"bgcolor" : [ 0.74902, 0.74902, 0.74902, 0.0 ],
					"fontname" : "Arial Bold",
					"numinlets" : 1,
					"textovercolor" : [ 0.101961, 0.101961, 0.101961, 0.0 ],
					"ignoreclick" : 1,
					"numoutlets" : 3,
					"bgovercolor" : [ 0.698039, 0.698039, 0.698039, 0.0 ]
				}

			}
, 			{
				"box" : 				{
					"maxclass" : "textbutton",
					"fontsize" : 10.0,
					"outlettype" : [ "", "", "int" ],
					"presentation_rect" : [ 448.0, 16.0, 112.0, 64.0 ],
					"border" : 1,
					"textcolor" : [ 0.14902, 0.14902, 0.14902, 0.0 ],
					"patching_rect" : [ 1328.0, 8.0, 136.0, 64.0 ],
					"presentation" : 1,
					"id" : "obj-225",
					"background" : 1,
					"bgcolor" : [ 0.74902, 0.74902, 0.74902, 0.0 ],
					"fontname" : "Arial Bold",
					"numinlets" : 1,
					"textovercolor" : [ 0.101961, 0.101961, 0.101961, 0.0 ],
					"ignoreclick" : 1,
					"numoutlets" : 3,
					"bgovercolor" : [ 0.698039, 0.698039, 0.698039, 0.0 ]
				}

			}
, 			{
				"box" : 				{
					"maxclass" : "textbutton",
					"fontsize" : 10.0,
					"outlettype" : [ "", "", "int" ],
					"presentation_rect" : [ 448.0, 80.0, 112.0, 64.0 ],
					"border" : 1,
					"textcolor" : [ 0.14902, 0.14902, 0.14902, 0.0 ],
					"patching_rect" : [ 1328.0, 72.0, 136.0, 64.0 ],
					"presentation" : 1,
					"id" : "obj-224",
					"background" : 1,
					"bgcolor" : [ 0.74902, 0.74902, 0.74902, 0.0 ],
					"fontname" : "Arial Bold",
					"numinlets" : 1,
					"textovercolor" : [ 0.101961, 0.101961, 0.101961, 0.0 ],
					"ignoreclick" : 1,
					"numoutlets" : 3,
					"bgovercolor" : [ 0.698039, 0.698039, 0.698039, 0.0 ]
				}

			}
, 			{
				"box" : 				{
					"maxclass" : "textbutton",
					"fontsize" : 10.0,
					"outlettype" : [ "", "", "int" ],
					"presentation_rect" : [ 560.0, 80.0, 112.0, 64.0 ],
					"border" : 1,
					"textcolor" : [ 0.14902, 0.14902, 0.14902, 0.0 ],
					"patching_rect" : [ 1464.0, 72.0, 128.0, 64.0 ],
					"presentation" : 1,
					"id" : "obj-222",
					"background" : 1,
					"bgcolor" : [ 0.74902, 0.74902, 0.74902, 0.0 ],
					"fontname" : "Arial Bold",
					"numinlets" : 1,
					"textovercolor" : [ 0.101961, 0.101961, 0.101961, 0.0 ],
					"ignoreclick" : 1,
					"numoutlets" : 3,
					"bgovercolor" : [ 0.698039, 0.698039, 0.698039, 0.0 ]
				}

			}
, 			{
				"box" : 				{
					"maxclass" : "textbutton",
					"fontsize" : 10.0,
					"outlettype" : [ "", "", "int" ],
					"presentation_rect" : [ 560.0, 16.0, 112.0, 64.0 ],
					"border" : 1,
					"textcolor" : [ 0.14902, 0.14902, 0.14902, 0.0 ],
					"patching_rect" : [ 1464.0, 8.0, 128.0, 64.0 ],
					"presentation" : 1,
					"id" : "obj-223",
					"background" : 1,
					"bgcolor" : [ 0.74902, 0.74902, 0.74902, 0.0 ],
					"fontname" : "Arial Bold",
					"numinlets" : 1,
					"textovercolor" : [ 0.101961, 0.101961, 0.101961, 0.0 ],
					"ignoreclick" : 1,
					"numoutlets" : 3,
					"bgovercolor" : [ 0.698039, 0.698039, 0.698039, 0.0 ]
				}

			}
, 			{
				"box" : 				{
					"maxclass" : "textbutton",
					"fontsize" : 10.0,
					"outlettype" : [ "", "", "int" ],
					"presentation_rect" : [ 672.0, 16.0, 112.0, 64.0 ],
					"border" : 1,
					"textcolor" : [ 0.14902, 0.14902, 0.14902, 0.0 ],
					"patching_rect" : [ 1328.0, 8.0, 136.0, 64.0 ],
					"presentation" : 1,
					"id" : "obj-229",
					"background" : 1,
					"bgcolor" : [ 0.74902, 0.74902, 0.74902, 0.0 ],
					"fontname" : "Arial Bold",
					"numinlets" : 1,
					"textovercolor" : [ 0.101961, 0.101961, 0.101961, 0.0 ],
					"ignoreclick" : 1,
					"numoutlets" : 3,
					"bgovercolor" : [ 0.698039, 0.698039, 0.698039, 0.0 ]
				}

			}
, 			{
				"box" : 				{
					"maxclass" : "textbutton",
					"fontsize" : 10.0,
					"outlettype" : [ "", "", "int" ],
					"presentation_rect" : [ 672.0, 80.0, 112.0, 64.0 ],
					"border" : 1,
					"textcolor" : [ 0.14902, 0.14902, 0.14902, 0.0 ],
					"patching_rect" : [ 1328.0, 72.0, 136.0, 64.0 ],
					"presentation" : 1,
					"id" : "obj-228",
					"background" : 1,
					"bgcolor" : [ 0.74902, 0.74902, 0.74902, 0.0 ],
					"fontname" : "Arial Bold",
					"numinlets" : 1,
					"textovercolor" : [ 0.101961, 0.101961, 0.101961, 0.0 ],
					"ignoreclick" : 1,
					"numoutlets" : 3,
					"bgovercolor" : [ 0.698039, 0.698039, 0.698039, 0.0 ]
				}

			}
, 			{
				"box" : 				{
					"maxclass" : "textbutton",
					"fontsize" : 10.0,
					"outlettype" : [ "", "", "int" ],
					"presentation_rect" : [ 784.0, 80.0, 112.0, 64.0 ],
					"border" : 1,
					"textcolor" : [ 0.14902, 0.14902, 0.14902, 0.0 ],
					"patching_rect" : [ 1464.0, 72.0, 128.0, 64.0 ],
					"presentation" : 1,
					"id" : "obj-226",
					"background" : 1,
					"bgcolor" : [ 0.74902, 0.74902, 0.74902, 0.0 ],
					"fontname" : "Arial Bold",
					"numinlets" : 1,
					"textovercolor" : [ 0.101961, 0.101961, 0.101961, 0.0 ],
					"ignoreclick" : 1,
					"numoutlets" : 3,
					"bgovercolor" : [ 0.698039, 0.698039, 0.698039, 0.0 ]
				}

			}
, 			{
				"box" : 				{
					"maxclass" : "textbutton",
					"fontsize" : 10.0,
					"outlettype" : [ "", "", "int" ],
					"presentation_rect" : [ 784.0, 16.0, 112.0, 64.0 ],
					"border" : 1,
					"textcolor" : [ 0.14902, 0.14902, 0.14902, 0.0 ],
					"patching_rect" : [ 1464.0, 8.0, 128.0, 64.0 ],
					"presentation" : 1,
					"id" : "obj-227",
					"background" : 1,
					"bgcolor" : [ 0.74902, 0.74902, 0.74902, 0.0 ],
					"fontname" : "Arial Bold",
					"numinlets" : 1,
					"textovercolor" : [ 0.101961, 0.101961, 0.101961, 0.0 ],
					"ignoreclick" : 1,
					"numoutlets" : 3,
					"bgovercolor" : [ 0.698039, 0.698039, 0.698039, 0.0 ]
				}

			}
, 			{
				"box" : 				{
					"maxclass" : "textbutton",
					"fontsize" : 10.0,
					"outlettype" : [ "", "", "int" ],
					"presentation_rect" : [ 0.0, 16.0, 112.0, 64.0 ],
					"border" : 1,
					"textcolor" : [ 0.14902, 0.14902, 0.14902, 0.0 ],
					"patching_rect" : [ 1328.0, 8.0, 136.0, 64.0 ],
					"presentation" : 1,
					"id" : "obj-233",
					"background" : 1,
					"bgcolor" : [ 0.74902, 0.74902, 0.74902, 0.0 ],
					"fontname" : "Arial Bold",
					"numinlets" : 1,
					"textovercolor" : [ 0.101961, 0.101961, 0.101961, 0.0 ],
					"ignoreclick" : 1,
					"numoutlets" : 3,
					"bgovercolor" : [ 0.698039, 0.698039, 0.698039, 0.0 ]
				}

			}
, 			{
				"box" : 				{
					"maxclass" : "comment",
					"fontface" : 1,
					"fontsize" : 8.0,
					"presentation_rect" : [ 48.0, 16.0, 128.0, 16.0 ],
					"patching_rect" : [ 1328.0, 8.0, 264.0, 16.0 ],
					"presentation" : 1,
					"id" : "obj-36",
					"background" : 1,
					"bgcolor" : [ 0.047059, 0.913725, 0.913725, 1.0 ],
					"fontname" : "Tahoma",
					"numinlets" : 1,
					"numoutlets" : 0
				}

			}
, 			{
				"box" : 				{
					"maxclass" : "comment",
					"fontface" : 1,
					"fontsize" : 8.0,
					"presentation_rect" : [ 48.0, 48.0, 128.0, 16.0 ],
					"patching_rect" : [ 1328.0, 40.0, 264.0, 16.0 ],
					"presentation" : 1,
					"id" : "obj-37",
					"background" : 1,
					"bgcolor" : [ 0.917647, 0.937255, 0.670588, 1.0 ],
					"fontname" : "Tahoma",
					"numinlets" : 1,
					"numoutlets" : 0
				}

			}
, 			{
				"box" : 				{
					"maxclass" : "comment",
					"fontface" : 1,
					"fontsize" : 8.0,
					"presentation_rect" : [ 48.0, 32.0, 128.0, 16.0 ],
					"patching_rect" : [ 1328.0, 24.0, 264.0, 16.0 ],
					"presentation" : 1,
					"id" : "obj-101",
					"background" : 1,
					"bgcolor" : [ 0.545098, 0.85098, 0.592157, 1.0 ],
					"fontname" : "Tahoma",
					"numinlets" : 1,
					"numoutlets" : 0
				}

			}
, 			{
				"box" : 				{
					"maxclass" : "comment",
					"fontface" : 1,
					"fontsize" : 8.0,
					"presentation_rect" : [ 48.0, 64.0, 128.0, 16.0 ],
					"patching_rect" : [ 1328.0, 56.0, 264.0, 16.0 ],
					"presentation" : 1,
					"id" : "obj-102",
					"background" : 1,
					"bgcolor" : [ 0.94902, 0.756863, 0.309804, 1.0 ],
					"fontname" : "Tahoma",
					"numinlets" : 1,
					"numoutlets" : 0
				}

			}
, 			{
				"box" : 				{
					"maxclass" : "comment",
					"fontface" : 1,
					"fontsize" : 8.0,
					"presentation_rect" : [ 48.0, 128.0, 128.0, 16.0 ],
					"patching_rect" : [ 1328.0, 120.0, 264.0, 16.0 ],
					"presentation" : 1,
					"id" : "obj-103",
					"background" : 1,
					"bgcolor" : [ 0.94902, 0.756863, 0.309804, 1.0 ],
					"fontname" : "Tahoma",
					"numinlets" : 1,
					"numoutlets" : 0
				}

			}
, 			{
				"box" : 				{
					"maxclass" : "comment",
					"fontface" : 1,
					"fontsize" : 8.0,
					"presentation_rect" : [ 48.0, 96.0, 128.0, 16.0 ],
					"patching_rect" : [ 1328.0, 88.0, 264.0, 16.0 ],
					"presentation" : 1,
					"id" : "obj-104",
					"background" : 1,
					"bgcolor" : [ 0.545098, 0.85098, 0.592157, 1.0 ],
					"fontname" : "Tahoma",
					"numinlets" : 1,
					"numoutlets" : 0
				}

			}
, 			{
				"box" : 				{
					"maxclass" : "comment",
					"fontface" : 1,
					"fontsize" : 8.0,
					"presentation_rect" : [ 48.0, 80.0, 128.0, 16.0 ],
					"patching_rect" : [ 1328.0, 72.0, 264.0, 16.0 ],
					"presentation" : 1,
					"id" : "obj-105",
					"background" : 1,
					"bgcolor" : [ 0.047059, 0.913725, 0.913725, 1.0 ],
					"fontname" : "Tahoma",
					"numinlets" : 1,
					"numoutlets" : 0
				}

			}
, 			{
				"box" : 				{
					"maxclass" : "comment",
					"fontface" : 1,
					"fontsize" : 8.0,
					"presentation_rect" : [ 48.0, 112.0, 128.0, 16.0 ],
					"patching_rect" : [ 1328.0, 104.0, 264.0, 16.0 ],
					"presentation" : 1,
					"id" : "obj-106",
					"background" : 1,
					"bgcolor" : [ 0.917647, 0.937255, 0.670588, 1.0 ],
					"fontname" : "Tahoma",
					"numinlets" : 1,
					"numoutlets" : 0
				}

			}
, 			{
				"box" : 				{
					"maxclass" : "comment",
					"fontface" : 1,
					"fontsize" : 8.0,
					"presentation_rect" : [ 272.0, 128.0, 128.0, 16.0 ],
					"patching_rect" : [ 1328.0, 120.0, 264.0, 16.0 ],
					"presentation" : 1,
					"id" : "obj-107",
					"background" : 1,
					"bgcolor" : [ 0.94902, 0.756863, 0.309804, 1.0 ],
					"fontname" : "Tahoma",
					"numinlets" : 1,
					"numoutlets" : 0
				}

			}
, 			{
				"box" : 				{
					"maxclass" : "comment",
					"fontface" : 1,
					"fontsize" : 8.0,
					"presentation_rect" : [ 272.0, 96.0, 128.0, 16.0 ],
					"patching_rect" : [ 1328.0, 88.0, 264.0, 16.0 ],
					"presentation" : 1,
					"id" : "obj-108",
					"background" : 1,
					"bgcolor" : [ 0.545098, 0.85098, 0.592157, 1.0 ],
					"fontname" : "Tahoma",
					"numinlets" : 1,
					"numoutlets" : 0
				}

			}
, 			{
				"box" : 				{
					"maxclass" : "comment",
					"fontface" : 1,
					"fontsize" : 8.0,
					"presentation_rect" : [ 272.0, 80.0, 128.0, 16.0 ],
					"patching_rect" : [ 1328.0, 72.0, 264.0, 16.0 ],
					"presentation" : 1,
					"id" : "obj-109",
					"background" : 1,
					"bgcolor" : [ 0.047059, 0.913725, 0.913725, 1.0 ],
					"fontname" : "Tahoma",
					"numinlets" : 1,
					"numoutlets" : 0
				}

			}
, 			{
				"box" : 				{
					"maxclass" : "comment",
					"fontface" : 1,
					"fontsize" : 8.0,
					"presentation_rect" : [ 272.0, 112.0, 128.0, 16.0 ],
					"patching_rect" : [ 1328.0, 104.0, 264.0, 16.0 ],
					"presentation" : 1,
					"id" : "obj-110",
					"background" : 1,
					"bgcolor" : [ 0.917647, 0.937255, 0.670588, 1.0 ],
					"fontname" : "Tahoma",
					"numinlets" : 1,
					"numoutlets" : 0
				}

			}
, 			{
				"box" : 				{
					"maxclass" : "comment",
					"fontface" : 1,
					"fontsize" : 8.0,
					"presentation_rect" : [ 272.0, 64.0, 128.0, 16.0 ],
					"patching_rect" : [ 1328.0, 56.0, 264.0, 16.0 ],
					"presentation" : 1,
					"id" : "obj-111",
					"background" : 1,
					"bgcolor" : [ 0.94902, 0.756863, 0.309804, 1.0 ],
					"fontname" : "Tahoma",
					"numinlets" : 1,
					"numoutlets" : 0
				}

			}
, 			{
				"box" : 				{
					"maxclass" : "comment",
					"fontface" : 1,
					"fontsize" : 8.0,
					"presentation_rect" : [ 272.0, 32.0, 128.0, 16.0 ],
					"patching_rect" : [ 1328.0, 24.0, 264.0, 16.0 ],
					"presentation" : 1,
					"id" : "obj-120",
					"background" : 1,
					"bgcolor" : [ 0.545098, 0.85098, 0.592157, 1.0 ],
					"fontname" : "Tahoma",
					"numinlets" : 1,
					"numoutlets" : 0
				}

			}
, 			{
				"box" : 				{
					"maxclass" : "comment",
					"fontface" : 1,
					"fontsize" : 8.0,
					"presentation_rect" : [ 272.0, 16.0, 128.0, 16.0 ],
					"patching_rect" : [ 1328.0, 8.0, 264.0, 16.0 ],
					"presentation" : 1,
					"id" : "obj-121",
					"background" : 1,
					"bgcolor" : [ 0.047059, 0.913725, 0.913725, 1.0 ],
					"fontname" : "Tahoma",
					"numinlets" : 1,
					"numoutlets" : 0
				}

			}
, 			{
				"box" : 				{
					"maxclass" : "comment",
					"fontface" : 1,
					"fontsize" : 8.0,
					"presentation_rect" : [ 272.0, 48.0, 128.0, 16.0 ],
					"patching_rect" : [ 1328.0, 40.0, 264.0, 16.0 ],
					"presentation" : 1,
					"id" : "obj-122",
					"background" : 1,
					"bgcolor" : [ 0.917647, 0.937255, 0.670588, 1.0 ],
					"fontname" : "Tahoma",
					"numinlets" : 1,
					"numoutlets" : 0
				}

			}
, 			{
				"box" : 				{
					"maxclass" : "comment",
					"fontface" : 1,
					"fontsize" : 8.0,
					"presentation_rect" : [ 496.0, 128.0, 128.0, 16.0 ],
					"patching_rect" : [ 1328.0, 120.0, 264.0, 16.0 ],
					"presentation" : 1,
					"id" : "obj-123",
					"background" : 1,
					"bgcolor" : [ 0.94902, 0.756863, 0.309804, 1.0 ],
					"fontname" : "Tahoma",
					"numinlets" : 1,
					"numoutlets" : 0
				}

			}
, 			{
				"box" : 				{
					"maxclass" : "comment",
					"fontface" : 1,
					"fontsize" : 8.0,
					"presentation_rect" : [ 496.0, 96.0, 128.0, 16.0 ],
					"patching_rect" : [ 1328.0, 88.0, 264.0, 16.0 ],
					"presentation" : 1,
					"id" : "obj-124",
					"background" : 1,
					"bgcolor" : [ 0.545098, 0.85098, 0.592157, 1.0 ],
					"fontname" : "Tahoma",
					"numinlets" : 1,
					"numoutlets" : 0
				}

			}
, 			{
				"box" : 				{
					"maxclass" : "comment",
					"fontface" : 1,
					"fontsize" : 8.0,
					"presentation_rect" : [ 496.0, 80.0, 128.0, 16.0 ],
					"patching_rect" : [ 1328.0, 72.0, 264.0, 16.0 ],
					"presentation" : 1,
					"id" : "obj-125",
					"background" : 1,
					"bgcolor" : [ 0.047059, 0.913725, 0.913725, 1.0 ],
					"fontname" : "Tahoma",
					"numinlets" : 1,
					"numoutlets" : 0
				}

			}
, 			{
				"box" : 				{
					"maxclass" : "comment",
					"fontface" : 1,
					"fontsize" : 8.0,
					"presentation_rect" : [ 496.0, 112.0, 128.0, 16.0 ],
					"patching_rect" : [ 1328.0, 104.0, 264.0, 16.0 ],
					"presentation" : 1,
					"id" : "obj-126",
					"background" : 1,
					"bgcolor" : [ 0.917647, 0.937255, 0.670588, 1.0 ],
					"fontname" : "Tahoma",
					"numinlets" : 1,
					"numoutlets" : 0
				}

			}
, 			{
				"box" : 				{
					"maxclass" : "comment",
					"fontface" : 1,
					"fontsize" : 8.0,
					"presentation_rect" : [ 496.0, 64.0, 128.0, 16.0 ],
					"patching_rect" : [ 1328.0, 56.0, 264.0, 16.0 ],
					"presentation" : 1,
					"id" : "obj-127",
					"background" : 1,
					"bgcolor" : [ 0.94902, 0.756863, 0.309804, 1.0 ],
					"fontname" : "Tahoma",
					"numinlets" : 1,
					"numoutlets" : 0
				}

			}
, 			{
				"box" : 				{
					"maxclass" : "comment",
					"fontface" : 1,
					"fontsize" : 8.0,
					"presentation_rect" : [ 496.0, 32.0, 128.0, 16.0 ],
					"patching_rect" : [ 1328.0, 24.0, 264.0, 16.0 ],
					"presentation" : 1,
					"id" : "obj-129",
					"background" : 1,
					"bgcolor" : [ 0.545098, 0.85098, 0.592157, 1.0 ],
					"fontname" : "Tahoma",
					"numinlets" : 1,
					"numoutlets" : 0
				}

			}
, 			{
				"box" : 				{
					"maxclass" : "comment",
					"fontface" : 1,
					"fontsize" : 8.0,
					"presentation_rect" : [ 496.0, 16.0, 128.0, 16.0 ],
					"patching_rect" : [ 1328.0, 8.0, 264.0, 16.0 ],
					"presentation" : 1,
					"id" : "obj-130",
					"background" : 1,
					"bgcolor" : [ 0.047059, 0.913725, 0.913725, 1.0 ],
					"fontname" : "Tahoma",
					"numinlets" : 1,
					"numoutlets" : 0
				}

			}
, 			{
				"box" : 				{
					"maxclass" : "comment",
					"fontface" : 1,
					"fontsize" : 8.0,
					"presentation_rect" : [ 496.0, 48.0, 128.0, 16.0 ],
					"patching_rect" : [ 1328.0, 40.0, 264.0, 16.0 ],
					"presentation" : 1,
					"id" : "obj-131",
					"background" : 1,
					"bgcolor" : [ 0.917647, 0.937255, 0.670588, 1.0 ],
					"fontname" : "Tahoma",
					"numinlets" : 1,
					"numoutlets" : 0
				}

			}
, 			{
				"box" : 				{
					"maxclass" : "comment",
					"fontface" : 1,
					"fontsize" : 8.0,
					"presentation_rect" : [ 720.0, 128.0, 128.0, 16.0 ],
					"patching_rect" : [ 1328.0, 120.0, 264.0, 16.0 ],
					"presentation" : 1,
					"id" : "obj-132",
					"background" : 1,
					"bgcolor" : [ 0.94902, 0.756863, 0.309804, 1.0 ],
					"fontname" : "Tahoma",
					"numinlets" : 1,
					"numoutlets" : 0
				}

			}
, 			{
				"box" : 				{
					"maxclass" : "comment",
					"fontface" : 1,
					"fontsize" : 8.0,
					"presentation_rect" : [ 720.0, 96.0, 128.0, 16.0 ],
					"patching_rect" : [ 1328.0, 88.0, 264.0, 16.0 ],
					"presentation" : 1,
					"id" : "obj-157",
					"background" : 1,
					"bgcolor" : [ 0.545098, 0.85098, 0.592157, 1.0 ],
					"fontname" : "Tahoma",
					"numinlets" : 1,
					"numoutlets" : 0
				}

			}
, 			{
				"box" : 				{
					"maxclass" : "comment",
					"fontface" : 1,
					"fontsize" : 8.0,
					"presentation_rect" : [ 720.0, 80.0, 128.0, 16.0 ],
					"patching_rect" : [ 1328.0, 72.0, 264.0, 16.0 ],
					"presentation" : 1,
					"id" : "obj-160",
					"background" : 1,
					"bgcolor" : [ 0.047059, 0.913725, 0.913725, 1.0 ],
					"fontname" : "Tahoma",
					"numinlets" : 1,
					"numoutlets" : 0
				}

			}
, 			{
				"box" : 				{
					"maxclass" : "comment",
					"fontface" : 1,
					"fontsize" : 8.0,
					"presentation_rect" : [ 720.0, 112.0, 128.0, 16.0 ],
					"patching_rect" : [ 1328.0, 104.0, 264.0, 16.0 ],
					"presentation" : 1,
					"id" : "obj-162",
					"background" : 1,
					"bgcolor" : [ 0.917647, 0.937255, 0.670588, 1.0 ],
					"fontname" : "Tahoma",
					"numinlets" : 1,
					"numoutlets" : 0
				}

			}
, 			{
				"box" : 				{
					"maxclass" : "comment",
					"fontface" : 1,
					"fontsize" : 8.0,
					"presentation_rect" : [ 720.0, 64.0, 128.0, 16.0 ],
					"patching_rect" : [ 1328.0, 56.0, 264.0, 16.0 ],
					"presentation" : 1,
					"id" : "obj-164",
					"background" : 1,
					"bgcolor" : [ 0.94902, 0.756863, 0.309804, 1.0 ],
					"fontname" : "Tahoma",
					"numinlets" : 1,
					"numoutlets" : 0
				}

			}
, 			{
				"box" : 				{
					"maxclass" : "comment",
					"fontface" : 1,
					"fontsize" : 8.0,
					"presentation_rect" : [ 720.0, 32.0, 128.0, 16.0 ],
					"patching_rect" : [ 1328.0, 24.0, 264.0, 16.0 ],
					"presentation" : 1,
					"id" : "obj-166",
					"background" : 1,
					"bgcolor" : [ 0.545098, 0.85098, 0.592157, 1.0 ],
					"fontname" : "Tahoma",
					"numinlets" : 1,
					"numoutlets" : 0
				}

			}
, 			{
				"box" : 				{
					"maxclass" : "comment",
					"fontface" : 1,
					"fontsize" : 8.0,
					"presentation_rect" : [ 720.0, 16.0, 128.0, 16.0 ],
					"patching_rect" : [ 1328.0, 8.0, 264.0, 16.0 ],
					"presentation" : 1,
					"id" : "obj-168",
					"background" : 1,
					"bgcolor" : [ 0.047059, 0.913725, 0.913725, 1.0 ],
					"fontname" : "Tahoma",
					"numinlets" : 1,
					"numoutlets" : 0
				}

			}
, 			{
				"box" : 				{
					"maxclass" : "comment",
					"fontface" : 1,
					"fontsize" : 8.0,
					"presentation_rect" : [ 720.0, 48.0, 128.0, 16.0 ],
					"patching_rect" : [ 1328.0, 40.0, 264.0, 16.0 ],
					"presentation" : 1,
					"id" : "obj-169",
					"background" : 1,
					"bgcolor" : [ 0.917647, 0.937255, 0.670588, 1.0 ],
					"fontname" : "Tahoma",
					"numinlets" : 1,
					"numoutlets" : 0
				}

			}
 ],
		"lines" : [ 			{
				"patchline" : 				{
					"source" : [ "obj-86", 0 ],
					"destination" : [ "obj-117", 1 ],
					"hidden" : 0,
					"midpoints" : [ 785.5, 355.5, 390.5, 355.5 ]
				}

			}
, 			{
				"patchline" : 				{
					"source" : [ "obj-119", 0 ],
					"destination" : [ "obj-117", 0 ],
					"hidden" : 0,
					"midpoints" : [  ]
				}

			}
, 			{
				"patchline" : 				{
					"source" : [ "obj-86", 0 ],
					"destination" : [ "obj-128", 1 ],
					"hidden" : 0,
					"midpoints" : [ 785.5, 267.5, 358.5, 267.5 ]
				}

			}
, 			{
				"patchline" : 				{
					"source" : [ "obj-112", 0 ],
					"destination" : [ "obj-128", 0 ],
					"hidden" : 0,
					"midpoints" : [  ]
				}

			}
, 			{
				"patchline" : 				{
					"source" : [ "obj-86", 0 ],
					"destination" : [ "obj-114", 1 ],
					"hidden" : 0,
					"midpoints" : [ 785.5, 267.5, 414.5, 267.5 ]
				}

			}
, 			{
				"patchline" : 				{
					"source" : [ "obj-115", 0 ],
					"destination" : [ "obj-114", 0 ],
					"hidden" : 0,
					"midpoints" : [  ]
				}

			}
, 			{
				"patchline" : 				{
					"source" : [ "obj-86", 0 ],
					"destination" : [ "obj-116", 1 ],
					"hidden" : 0,
					"midpoints" : [ 785.5, 355.5, 446.5, 355.5 ]
				}

			}
, 			{
				"patchline" : 				{
					"source" : [ "obj-118", 0 ],
					"destination" : [ "obj-116", 0 ],
					"hidden" : 0,
					"midpoints" : [  ]
				}

			}
, 			{
				"patchline" : 				{
					"source" : [ "obj-86", 0 ],
					"destination" : [ "obj-137", 1 ],
					"hidden" : 0,
					"midpoints" : [ 785.5, 355.5, 502.5, 355.5 ]
				}

			}
, 			{
				"patchline" : 				{
					"source" : [ "obj-135", 0 ],
					"destination" : [ "obj-137", 0 ],
					"hidden" : 0,
					"midpoints" : [  ]
				}

			}
, 			{
				"patchline" : 				{
					"source" : [ "obj-86", 0 ],
					"destination" : [ "obj-133", 1 ],
					"hidden" : 0,
					"midpoints" : [ 785.5, 267.5, 470.5, 267.5 ]
				}

			}
, 			{
				"patchline" : 				{
					"source" : [ "obj-140", 0 ],
					"destination" : [ "obj-133", 0 ],
					"hidden" : 0,
					"midpoints" : [  ]
				}

			}
, 			{
				"patchline" : 				{
					"source" : [ "obj-86", 0 ],
					"destination" : [ "obj-139", 1 ],
					"hidden" : 0,
					"midpoints" : [ 785.5, 267.5, 526.5, 267.5 ]
				}

			}
, 			{
				"patchline" : 				{
					"source" : [ "obj-138", 0 ],
					"destination" : [ "obj-139", 0 ],
					"hidden" : 0,
					"midpoints" : [  ]
				}

			}
, 			{
				"patchline" : 				{
					"source" : [ "obj-86", 0 ],
					"destination" : [ "obj-136", 1 ],
					"hidden" : 0,
					"midpoints" : [ 785.5, 355.5, 558.5, 355.5 ]
				}

			}
, 			{
				"patchline" : 				{
					"source" : [ "obj-134", 0 ],
					"destination" : [ "obj-136", 0 ],
					"hidden" : 0,
					"midpoints" : [  ]
				}

			}
, 			{
				"patchline" : 				{
					"source" : [ "obj-86", 0 ],
					"destination" : [ "obj-153", 1 ],
					"hidden" : 0,
					"midpoints" : [ 785.5, 355.5, 614.5, 355.5 ]
				}

			}
, 			{
				"patchline" : 				{
					"source" : [ "obj-151", 0 ],
					"destination" : [ "obj-153", 0 ],
					"hidden" : 0,
					"midpoints" : [  ]
				}

			}
, 			{
				"patchline" : 				{
					"source" : [ "obj-86", 0 ],
					"destination" : [ "obj-149", 1 ],
					"hidden" : 0,
					"midpoints" : [ 785.5, 267.5, 582.5, 267.5 ]
				}

			}
, 			{
				"patchline" : 				{
					"source" : [ "obj-156", 0 ],
					"destination" : [ "obj-149", 0 ],
					"hidden" : 0,
					"midpoints" : [  ]
				}

			}
, 			{
				"patchline" : 				{
					"source" : [ "obj-86", 0 ],
					"destination" : [ "obj-155", 1 ],
					"hidden" : 0,
					"midpoints" : [ 785.5, 267.5, 638.5, 267.5 ]
				}

			}
, 			{
				"patchline" : 				{
					"source" : [ "obj-154", 0 ],
					"destination" : [ "obj-155", 0 ],
					"hidden" : 0,
					"midpoints" : [  ]
				}

			}
, 			{
				"patchline" : 				{
					"source" : [ "obj-86", 0 ],
					"destination" : [ "obj-152", 1 ],
					"hidden" : 0,
					"midpoints" : [ 785.5, 355.5, 670.5, 355.5 ]
				}

			}
, 			{
				"patchline" : 				{
					"source" : [ "obj-150", 0 ],
					"destination" : [ "obj-152", 0 ],
					"hidden" : 0,
					"midpoints" : [  ]
				}

			}
, 			{
				"patchline" : 				{
					"source" : [ "obj-86", 0 ],
					"destination" : [ "obj-145", 1 ],
					"hidden" : 0,
					"midpoints" : [ 785.5, 355.5, 726.5, 355.5 ]
				}

			}
, 			{
				"patchline" : 				{
					"source" : [ "obj-143", 0 ],
					"destination" : [ "obj-145", 0 ],
					"hidden" : 0,
					"midpoints" : [  ]
				}

			}
, 			{
				"patchline" : 				{
					"source" : [ "obj-86", 0 ],
					"destination" : [ "obj-141", 1 ],
					"hidden" : 0,
					"midpoints" : [ 785.5, 267.5, 694.5, 267.5 ]
				}

			}
, 			{
				"patchline" : 				{
					"source" : [ "obj-148", 0 ],
					"destination" : [ "obj-141", 0 ],
					"hidden" : 0,
					"midpoints" : [  ]
				}

			}
, 			{
				"patchline" : 				{
					"source" : [ "obj-86", 0 ],
					"destination" : [ "obj-147", 1 ],
					"hidden" : 0,
					"midpoints" : [ 785.5, 267.5, 750.5, 267.5 ]
				}

			}
, 			{
				"patchline" : 				{
					"source" : [ "obj-146", 0 ],
					"destination" : [ "obj-147", 0 ],
					"hidden" : 0,
					"midpoints" : [  ]
				}

			}
, 			{
				"patchline" : 				{
					"source" : [ "obj-86", 0 ],
					"destination" : [ "obj-144", 1 ],
					"hidden" : 0,
					"midpoints" : [ 785.5, 355.5, 782.5, 355.5 ]
				}

			}
, 			{
				"patchline" : 				{
					"source" : [ "obj-142", 0 ],
					"destination" : [ "obj-144", 0 ],
					"hidden" : 0,
					"midpoints" : [  ]
				}

			}
, 			{
				"patchline" : 				{
					"source" : [ "obj-1", 0 ],
					"destination" : [ "obj-6", 0 ],
					"hidden" : 0,
					"midpoints" : [ 17.5, 44.5, 169.5, 44.5 ]
				}

			}
, 			{
				"patchline" : 				{
					"source" : [ "obj-1", 0 ],
					"destination" : [ "obj-113", 0 ],
					"hidden" : 0,
					"color" : [ 0.239216, 0.643137, 0.709804, 1.0 ],
					"midpoints" : [  ]
				}

			}
, 			{
				"patchline" : 				{
					"source" : [ "obj-50", 0 ],
					"destination" : [ "obj-10", 0 ],
					"hidden" : 0,
					"midpoints" : [  ]
				}

			}
, 			{
				"patchline" : 				{
					"source" : [ "obj-5", 0 ],
					"destination" : [ "obj-10", 1 ],
					"hidden" : 0,
					"color" : [ 0.917647, 0.937255, 0.670588, 1.0 ],
					"midpoints" : [  ]
				}

			}
, 			{
				"patchline" : 				{
					"source" : [ "obj-10", 0 ],
					"destination" : [ "obj-11", 0 ],
					"hidden" : 0,
					"midpoints" : [  ]
				}

			}
, 			{
				"patchline" : 				{
					"source" : [ "obj-9", 0 ],
					"destination" : [ "obj-5", 0 ],
					"hidden" : 0,
					"midpoints" : [  ]
				}

			}
, 			{
				"patchline" : 				{
					"source" : [ "obj-3", 0 ],
					"destination" : [ "obj-9", 0 ],
					"hidden" : 0,
					"midpoints" : [  ]
				}

			}
, 			{
				"patchline" : 				{
					"source" : [ "obj-8", 0 ],
					"destination" : [ "obj-9", 0 ],
					"hidden" : 0,
					"midpoints" : [  ]
				}

			}
, 			{
				"patchline" : 				{
					"source" : [ "obj-6", 0 ],
					"destination" : [ "obj-3", 0 ],
					"hidden" : 0,
					"midpoints" : [  ]
				}

			}
, 			{
				"patchline" : 				{
					"source" : [ "obj-161", 0 ],
					"destination" : [ "obj-159", 0 ],
					"hidden" : 0,
					"midpoints" : [  ]
				}

			}
, 			{
				"patchline" : 				{
					"source" : [ "obj-113", 0 ],
					"destination" : [ "obj-112", 0 ],
					"hidden" : 0,
					"color" : [ 0.501961, 0.717647, 0.764706, 1.0 ],
					"midpoints" : [ 17.5, 232.0, 337.5, 232.0 ]
				}

			}
, 			{
				"patchline" : 				{
					"source" : [ "obj-113", 0 ],
					"destination" : [ "obj-142", 0 ],
					"hidden" : 0,
					"color" : [ 0.501961, 0.717647, 0.764706, 1.0 ],
					"midpoints" : [ 17.5, 232.5, 761.5, 232.5 ]
				}

			}
, 			{
				"patchline" : 				{
					"source" : [ "obj-113", 0 ],
					"destination" : [ "obj-143", 0 ],
					"hidden" : 0,
					"color" : [ 0.501961, 0.717647, 0.764706, 1.0 ],
					"midpoints" : [ 17.5, 232.5, 705.5, 232.5 ]
				}

			}
, 			{
				"patchline" : 				{
					"source" : [ "obj-113", 0 ],
					"destination" : [ "obj-150", 0 ],
					"hidden" : 0,
					"color" : [ 0.501961, 0.717647, 0.764706, 1.0 ],
					"midpoints" : [ 17.5, 232.5, 649.5, 232.5 ]
				}

			}
, 			{
				"patchline" : 				{
					"source" : [ "obj-113", 0 ],
					"destination" : [ "obj-151", 0 ],
					"hidden" : 0,
					"color" : [ 0.501961, 0.717647, 0.764706, 1.0 ],
					"midpoints" : [ 17.5, 232.5, 593.5, 232.5 ]
				}

			}
, 			{
				"patchline" : 				{
					"source" : [ "obj-113", 0 ],
					"destination" : [ "obj-134", 0 ],
					"hidden" : 0,
					"color" : [ 0.501961, 0.717647, 0.764706, 1.0 ],
					"midpoints" : [ 17.5, 232.5, 537.5, 232.5 ]
				}

			}
, 			{
				"patchline" : 				{
					"source" : [ "obj-113", 0 ],
					"destination" : [ "obj-135", 0 ],
					"hidden" : 0,
					"color" : [ 0.501961, 0.717647, 0.764706, 1.0 ],
					"midpoints" : [ 17.5, 232.5, 481.5, 232.5 ]
				}

			}
, 			{
				"patchline" : 				{
					"source" : [ "obj-113", 0 ],
					"destination" : [ "obj-146", 0 ],
					"hidden" : 0,
					"color" : [ 0.501961, 0.717647, 0.764706, 1.0 ],
					"midpoints" : [ 17.5, 232.5, 729.5, 232.5 ]
				}

			}
, 			{
				"patchline" : 				{
					"source" : [ "obj-113", 0 ],
					"destination" : [ "obj-148", 0 ],
					"hidden" : 0,
					"color" : [ 0.501961, 0.717647, 0.764706, 1.0 ],
					"midpoints" : [ 17.5, 232.5, 673.5, 232.5 ]
				}

			}
, 			{
				"patchline" : 				{
					"source" : [ "obj-113", 0 ],
					"destination" : [ "obj-154", 0 ],
					"hidden" : 0,
					"color" : [ 0.501961, 0.717647, 0.764706, 1.0 ],
					"midpoints" : [ 17.5, 232.5, 617.5, 232.5 ]
				}

			}
, 			{
				"patchline" : 				{
					"source" : [ "obj-113", 0 ],
					"destination" : [ "obj-156", 0 ],
					"hidden" : 0,
					"color" : [ 0.501961, 0.717647, 0.764706, 1.0 ],
					"midpoints" : [ 17.5, 232.5, 561.5, 232.5 ]
				}

			}
, 			{
				"patchline" : 				{
					"source" : [ "obj-113", 0 ],
					"destination" : [ "obj-138", 0 ],
					"hidden" : 0,
					"color" : [ 0.501961, 0.717647, 0.764706, 1.0 ],
					"midpoints" : [ 17.5, 232.5, 505.5, 232.5 ]
				}

			}
, 			{
				"patchline" : 				{
					"source" : [ "obj-113", 0 ],
					"destination" : [ "obj-140", 0 ],
					"hidden" : 0,
					"color" : [ 0.501961, 0.717647, 0.764706, 1.0 ],
					"midpoints" : [ 17.5, 232.5, 449.5, 232.5 ]
				}

			}
, 			{
				"patchline" : 				{
					"source" : [ "obj-113", 0 ],
					"destination" : [ "obj-118", 0 ],
					"hidden" : 0,
					"color" : [ 0.501961, 0.717647, 0.764706, 1.0 ],
					"midpoints" : [ 17.5, 232.5, 425.5, 232.5 ]
				}

			}
, 			{
				"patchline" : 				{
					"source" : [ "obj-113", 0 ],
					"destination" : [ "obj-119", 0 ],
					"hidden" : 0,
					"color" : [ 0.501961, 0.717647, 0.764706, 1.0 ],
					"midpoints" : [ 17.5, 232.5, 369.5, 232.5 ]
				}

			}
, 			{
				"patchline" : 				{
					"source" : [ "obj-113", 0 ],
					"destination" : [ "obj-115", 0 ],
					"hidden" : 0,
					"color" : [ 0.501961, 0.717647, 0.764706, 1.0 ],
					"midpoints" : [ 17.5, 232.5, 393.5, 232.5 ]
				}

			}
, 			{
				"patchline" : 				{
					"source" : [ "obj-113", 1 ],
					"destination" : [ "obj-13", 0 ],
					"hidden" : 0,
					"color" : [ 0.239216, 0.643137, 0.709804, 1.0 ],
					"midpoints" : [  ]
				}

			}
, 			{
				"patchline" : 				{
					"source" : [ "obj-6", 1 ],
					"destination" : [ "obj-8", 0 ],
					"hidden" : 0,
					"midpoints" : [  ]
				}

			}
, 			{
				"patchline" : 				{
					"source" : [ "obj-5", 0 ],
					"destination" : [ "obj-14", 0 ],
					"hidden" : 0,
					"midpoints" : [  ]
				}

			}
, 			{
				"patchline" : 				{
					"source" : [ "obj-14", 0 ],
					"destination" : [ "obj-10", 1 ],
					"hidden" : 0,
					"color" : [ 0.917647, 0.937255, 0.670588, 1.0 ],
					"midpoints" : [  ]
				}

			}
, 			{
				"patchline" : 				{
					"source" : [ "obj-13", 0 ],
					"destination" : [ "obj-87", 0 ],
					"hidden" : 0,
					"midpoints" : [  ]
				}

			}
, 			{
				"patchline" : 				{
					"source" : [ "obj-167", 0 ],
					"destination" : [ "obj-87", 0 ],
					"hidden" : 0,
					"midpoints" : [  ]
				}

			}
, 			{
				"patchline" : 				{
					"source" : [ "obj-165", 0 ],
					"destination" : [ "obj-87", 0 ],
					"hidden" : 0,
					"midpoints" : [  ]
				}

			}
, 			{
				"patchline" : 				{
					"source" : [ "obj-163", 0 ],
					"destination" : [ "obj-87", 0 ],
					"hidden" : 0,
					"midpoints" : [  ]
				}

			}
, 			{
				"patchline" : 				{
					"source" : [ "obj-159", 0 ],
					"destination" : [ "obj-87", 0 ],
					"hidden" : 0,
					"midpoints" : [  ]
				}

			}
, 			{
				"patchline" : 				{
					"source" : [ "obj-158", 0 ],
					"destination" : [ "obj-87", 0 ],
					"hidden" : 0,
					"midpoints" : [  ]
				}

			}
 ],
		"parameters" : 		{
			"obj-147::obj-7" : [ "button-3[3]", "button-3[3]", 0 ],
			"obj-137::obj-101" : [ "live.toggle[10]", "live.toggle", 0 ],
			"obj-114::obj-5" : [ "button-2[15]", "button-2[15]", 0 ],
			"obj-141::obj-101" : [ "live.toggle[16]", "live.toggle", 0 ],
			"obj-133::obj-7" : [ "button-3[8]", "button-3[8]", 0 ],
			"obj-128::obj-8" : [ "button-4[12]", "button-4[12]", 0 ],
			"obj-145::obj-3" : [ "button-1[2]", "button-1[2]", 0 ],
			"obj-152::obj-3" : [ "button-1[5]", "button-1[5]", 0 ],
			"obj-136::obj-5" : [ "button-2[9]", "button-2[9]", 0 ],
			"obj-117::obj-7" : [ "button-3[14]", "button-3[14]", 0 ],
			"obj-153::obj-101" : [ "live.toggle[6]", "live.toggle", 0 ],
			"obj-139::obj-5" : [ "button-2[11]", "button-2[11]", 0 ],
			"obj-86::obj-80" : [ "live.text[4]", "live.text", 0 ],
			"obj-86::obj-81" : [ "live.text[5]", "live.text", 0 ],
			"obj-116::obj-5" : [ "button-2[13]", "button-2[13]", 0 ],
			"obj-144::obj-3" : [ "button-1[1]", "button-1[1]", 0 ],
			"obj-149::obj-3" : [ "button-1[4]", "button-1[4]", 0 ],
			"obj-147::obj-3" : [ "button-1[3]", "button-1[3]", 0 ],
			"obj-153::obj-5" : [ "button-2[6]", "button-2[6]", 0 ],
			"obj-137::obj-3" : [ "button-1[10]", "button-1[10]", 0 ],
			"obj-114::obj-8" : [ "button-4[15]", "button-4[15]", 0 ],
			"obj-128::obj-5" : [ "button-2[12]", "button-2[12]", 0 ],
			"obj-133::obj-5" : [ "button-2[8]", "button-2[8]", 0 ],
			"obj-141::obj-5" : [ "button-2", "button-2", 0 ],
			"obj-117::obj-8" : [ "button-4[14]", "button-4[14]", 0 ],
			"obj-145::obj-101" : [ "live.toggle[2]", "live.toggle", 0 ],
			"obj-152::obj-101" : [ "live.toggle[5]", "live.toggle", 0 ],
			"obj-136::obj-3" : [ "button-1[9]", "button-1[9]", 0 ],
			"obj-155::obj-8" : [ "button-4[7]", "button-4[7]", 0 ],
			"obj-139::obj-3" : [ "button-1[11]", "button-1[11]", 0 ],
			"obj-116::obj-7" : [ "button-3[13]", "button-3[13]", 0 ],
			"obj-149::obj-8" : [ "button-4[4]", "button-4[4]", 0 ],
			"obj-147::obj-5" : [ "button-2[3]", "button-2[3]", 0 ],
			"obj-153::obj-3" : [ "button-1[6]", "button-1[6]", 0 ],
			"obj-137::obj-8" : [ "button-4[10]", "button-4[10]", 0 ],
			"obj-114::obj-3" : [ "button-1[15]", "button-1[15]", 0 ],
			"obj-128::obj-101" : [ "live.toggle[12]", "live.toggle", 0 ],
			"obj-86::obj-83" : [ "live.text[7]", "live.text", 0 ],
			"obj-141::obj-7" : [ "button-3", "button-3", 0 ],
			"obj-133::obj-8" : [ "button-4[8]", "button-4[8]", 0 ],
			"obj-145::obj-7" : [ "button-3[2]", "button-3[2]", 0 ],
			"obj-136::obj-8" : [ "button-4[9]", "button-4[9]", 0 ],
			"obj-117::obj-5" : [ "button-2[14]", "button-2[14]", 0 ],
			"obj-152::obj-7" : [ "button-3[5]", "button-3[5]", 0 ],
			"obj-155::obj-101" : [ "live.toggle[7]", "live.toggle", 0 ],
			"obj-155::obj-7" : [ "button-3[7]", "button-3[7]", 0 ],
			"obj-139::obj-101" : [ "live.toggle[11]", "live.toggle", 0 ],
			"obj-144::obj-7" : [ "button-3[1]", "button-3[1]", 0 ],
			"obj-149::obj-101" : [ "live.toggle[4]", "live.toggle", 0 ],
			"obj-116::obj-8" : [ "button-4[13]", "button-4[13]", 0 ],
			"obj-137::obj-5" : [ "button-2[10]", "button-2[10]", 0 ],
			"obj-114::obj-101" : [ "live.toggle[15]", "live.toggle", 0 ],
			"obj-147::obj-101" : [ "live.toggle[3]", "live.toggle", 0 ],
			"obj-153::obj-8" : [ "button-4[6]", "button-4[6]", 0 ],
			"obj-141::obj-8" : [ "button-4", "button-4", 0 ],
			"obj-128::obj-7" : [ "button-3[12]", "button-3[12]", 0 ],
			"obj-133::obj-3" : [ "button-1[8]", "button-1[8]", 0 ],
			"obj-145::obj-8" : [ "button-4[2]", "button-4[2]", 0 ],
			"obj-136::obj-101" : [ "live.toggle[9]", "live.toggle", 0 ],
			"obj-117::obj-3" : [ "button-1[14]", "button-1[14]", 0 ],
			"obj-144::obj-101" : [ "live.toggle[1]", "live.toggle", 0 ],
			"obj-152::obj-8" : [ "button-4[5]", "button-4[5]", 0 ],
			"obj-155::obj-5" : [ "button-2[7]", "button-2[7]", 0 ],
			"obj-139::obj-7" : [ "button-3[11]", "button-3[11]", 0 ],
			"obj-144::obj-5" : [ "button-2[1]", "button-2[1]", 0 ],
			"obj-141::obj-3" : [ "button-1", "button-1", 0 ],
			"obj-149::obj-7" : [ "button-3[4]", "button-3[4]", 0 ],
			"obj-116::obj-3" : [ "button-1[13]", "button-1[13]", 0 ],
			"obj-147::obj-8" : [ "button-4[3]", "button-4[3]", 0 ],
			"obj-137::obj-7" : [ "button-3[10]", "button-3[10]", 0 ],
			"obj-114::obj-7" : [ "button-3[15]", "button-3[15]", 0 ],
			"obj-153::obj-7" : [ "button-3[6]", "button-3[6]", 0 ],
			"obj-133::obj-101" : [ "live.toggle[8]", "live.toggle", 0 ],
			"obj-128::obj-3" : [ "button-1[12]", "button-1[12]", 0 ],
			"obj-145::obj-5" : [ "button-2[2]", "button-2[2]", 0 ],
			"obj-136::obj-7" : [ "button-3[9]", "button-3[9]", 0 ],
			"obj-117::obj-101" : [ "live.toggle[14]", "live.toggle", 0 ],
			"obj-152::obj-5" : [ "button-2[5]", "button-2[5]", 0 ],
			"obj-139::obj-8" : [ "button-4[11]", "button-4[11]", 0 ],
			"obj-86::obj-82" : [ "live.text[6]", "live.text", 0 ],
			"obj-155::obj-3" : [ "button-1[7]", "button-1[7]", 0 ],
			"obj-144::obj-8" : [ "button-4[1]", "button-4[1]", 0 ],
			"obj-149::obj-5" : [ "button-2[4]", "button-2[4]", 0 ],
			"obj-116::obj-101" : [ "live.toggle[13]", "live.toggle", 0 ]
		}

	}

}
