{
	"patcher" : 	{
		"fileversion" : 1,
		"rect" : [ 4.0, 309.0, 1603.0, 500.0 ],
		"bgcolor" : [ 1.0, 1.0, 1.0, 0.0 ],
		"bglocked" : 0,
		"defrect" : [ 4.0, 309.0, 1603.0, 500.0 ],
		"openrect" : [ 0.0, 0.0, 0.0, 0.0 ],
		"openinpresentation" : 1,
		"default_fontsize" : 10.0,
		"default_fontface" : 0,
		"default_fontname" : "Arial Bold",
		"gridonopen" : 0,
		"gridsize" : [ 8.0, 8.0 ],
		"gridsnaponopen" : 0,
		"toolbarvisible" : 1,
		"boxanimatetime" : 200,
		"imprint" : 0,
		"enablehscroll" : 1,
		"enablevscroll" : 1,
		"devicewidth" : 0.0,
		"globalpatchername" : "ficken",
		"boxes" : [ 			{
				"box" : 				{
					"maxclass" : "comment",
					"text" : "2 - Loop * 2",
					"presentation_rect" : [ 784.0, 32.0, 64.0, 16.0 ],
					"fontface" : 1,
					"fontsize" : 8.0,
					"patching_rect" : [ 1464.0, 24.0, 128.0, 16.0 ],
					"presentation" : 1,
					"numinlets" : 1,
					"fontname" : "Tahoma",
					"numoutlets" : 0,
					"id" : "obj-238"
				}

			}
, 			{
				"box" : 				{
					"maxclass" : "comment",
					"text" : "2 - Loop / 2",
					"presentation_rect" : [ 720.0, 32.0, 64.0, 16.0 ],
					"fontface" : 1,
					"fontsize" : 8.0,
					"patching_rect" : [ 1328.0, 24.0, 132.0, 16.0 ],
					"presentation" : 1,
					"numinlets" : 1,
					"fontname" : "Tahoma",
					"numoutlets" : 0,
					"id" : "obj-239"
				}

			}
, 			{
				"box" : 				{
					"maxclass" : "comment",
					"text" : "2 - Loop * 2",
					"presentation_rect" : [ 560.0, 32.0, 64.0, 16.0 ],
					"fontface" : 1,
					"fontsize" : 8.0,
					"patching_rect" : [ 1464.0, 24.0, 128.0, 16.0 ],
					"presentation" : 1,
					"numinlets" : 1,
					"fontname" : "Tahoma",
					"numoutlets" : 0,
					"id" : "obj-236"
				}

			}
, 			{
				"box" : 				{
					"maxclass" : "comment",
					"text" : "2 - Loop / 2",
					"presentation_rect" : [ 496.0, 32.0, 64.0, 16.0 ],
					"fontface" : 1,
					"fontsize" : 8.0,
					"patching_rect" : [ 1328.0, 24.0, 132.0, 16.0 ],
					"presentation" : 1,
					"numinlets" : 1,
					"fontname" : "Tahoma",
					"numoutlets" : 0,
					"id" : "obj-237"
				}

			}
, 			{
				"box" : 				{
					"maxclass" : "comment",
					"text" : "2 - Loop * 2",
					"presentation_rect" : [ 336.0, 32.0, 64.0, 16.0 ],
					"fontface" : 1,
					"fontsize" : 8.0,
					"patching_rect" : [ 1464.0, 24.0, 128.0, 16.0 ],
					"presentation" : 1,
					"numinlets" : 1,
					"fontname" : "Tahoma",
					"numoutlets" : 0,
					"id" : "obj-234"
				}

			}
, 			{
				"box" : 				{
					"maxclass" : "comment",
					"text" : "2 - Loop / 2",
					"presentation_rect" : [ 272.0, 32.0, 64.0, 16.0 ],
					"fontface" : 1,
					"fontsize" : 8.0,
					"patching_rect" : [ 1328.0, 24.0, 132.0, 16.0 ],
					"presentation" : 1,
					"numinlets" : 1,
					"fontname" : "Tahoma",
					"numoutlets" : 0,
					"id" : "obj-235"
				}

			}
, 			{
				"box" : 				{
					"maxclass" : "comment",
					"text" : "1 -Loop End",
					"presentation_rect" : [ 784.0, 16.0, 64.0, 16.0 ],
					"fontface" : 1,
					"fontsize" : 8.0,
					"patching_rect" : [ 1464.0, 8.0, 128.0, 16.0 ],
					"presentation" : 1,
					"numinlets" : 1,
					"fontname" : "Tahoma",
					"numoutlets" : 0,
					"id" : "obj-202"
				}

			}
, 			{
				"box" : 				{
					"maxclass" : "comment",
					"text" : "4 -",
					"presentation_rect" : [ 784.0, 64.0, 64.0, 16.0 ],
					"fontface" : 1,
					"fontsize" : 8.0,
					"patching_rect" : [ 1464.0, 56.0, 128.0, 16.0 ],
					"presentation" : 1,
					"numinlets" : 1,
					"fontname" : "Tahoma",
					"numoutlets" : 0,
					"id" : "obj-203"
				}

			}
, 			{
				"box" : 				{
					"maxclass" : "comment",
					"text" : "3 -",
					"presentation_rect" : [ 784.0, 48.0, 64.0, 16.0 ],
					"fontface" : 1,
					"fontsize" : 8.0,
					"patching_rect" : [ 1464.0, 40.0, 128.0, 16.0 ],
					"presentation" : 1,
					"numinlets" : 1,
					"fontname" : "Tahoma",
					"numoutlets" : 0,
					"id" : "obj-204"
				}

			}
, 			{
				"box" : 				{
					"maxclass" : "comment",
					"text" : "4 -",
					"presentation_rect" : [ 720.0, 64.0, 64.0, 16.0 ],
					"fontface" : 1,
					"fontsize" : 8.0,
					"patching_rect" : [ 1328.0, 56.0, 132.0, 16.0 ],
					"presentation" : 1,
					"numinlets" : 1,
					"fontname" : "Tahoma",
					"numoutlets" : 0,
					"id" : "obj-206"
				}

			}
, 			{
				"box" : 				{
					"maxclass" : "comment",
					"text" : "3 -",
					"presentation_rect" : [ 720.0, 48.0, 64.0, 16.0 ],
					"fontface" : 1,
					"fontsize" : 8.0,
					"patching_rect" : [ 1328.0, 40.0, 132.0, 16.0 ],
					"presentation" : 1,
					"numinlets" : 1,
					"fontname" : "Tahoma",
					"numoutlets" : 0,
					"id" : "obj-207"
				}

			}
, 			{
				"box" : 				{
					"maxclass" : "comment",
					"text" : "1 - Loop Start",
					"presentation_rect" : [ 720.0, 16.0, 64.0, 16.0 ],
					"fontface" : 1,
					"fontsize" : 8.0,
					"patching_rect" : [ 1328.0, 8.0, 132.0, 16.0 ],
					"presentation" : 1,
					"numinlets" : 1,
					"fontname" : "Tahoma",
					"numoutlets" : 0,
					"id" : "obj-209"
				}

			}
, 			{
				"box" : 				{
					"maxclass" : "comment",
					"text" : "1 -Stop Clip",
					"presentation_rect" : [ 784.0, 80.0, 64.0, 16.0 ],
					"fontface" : 1,
					"fontsize" : 8.0,
					"patching_rect" : [ 1464.0, 72.0, 128.0, 16.0 ],
					"presentation" : 1,
					"numinlets" : 1,
					"fontname" : "Tahoma",
					"numoutlets" : 0,
					"id" : "obj-210"
				}

			}
, 			{
				"box" : 				{
					"maxclass" : "comment",
					"text" : "4 -",
					"presentation_rect" : [ 784.0, 128.0, 64.0, 16.0 ],
					"fontface" : 1,
					"fontsize" : 8.0,
					"patching_rect" : [ 1464.0, 120.0, 128.0, 16.0 ],
					"presentation" : 1,
					"numinlets" : 1,
					"fontname" : "Tahoma",
					"numoutlets" : 0,
					"id" : "obj-211"
				}

			}
, 			{
				"box" : 				{
					"maxclass" : "comment",
					"text" : "3 -",
					"presentation_rect" : [ 784.0, 112.0, 64.0, 16.0 ],
					"fontface" : 1,
					"fontsize" : 8.0,
					"patching_rect" : [ 1464.0, 104.0, 128.0, 16.0 ],
					"presentation" : 1,
					"numinlets" : 1,
					"fontname" : "Tahoma",
					"numoutlets" : 0,
					"id" : "obj-212"
				}

			}
, 			{
				"box" : 				{
					"maxclass" : "comment",
					"text" : "2 -",
					"presentation_rect" : [ 784.0, 96.0, 64.0, 16.0 ],
					"fontface" : 1,
					"fontsize" : 8.0,
					"patching_rect" : [ 1464.0, 88.0, 128.0, 16.0 ],
					"presentation" : 1,
					"numinlets" : 1,
					"fontname" : "Tahoma",
					"numoutlets" : 0,
					"id" : "obj-213"
				}

			}
, 			{
				"box" : 				{
					"maxclass" : "comment",
					"text" : "4 -",
					"presentation_rect" : [ 720.0, 128.0, 64.0, 16.0 ],
					"fontface" : 1,
					"fontsize" : 8.0,
					"patching_rect" : [ 1328.0, 120.0, 132.0, 16.0 ],
					"presentation" : 1,
					"numinlets" : 1,
					"fontname" : "Tahoma",
					"numoutlets" : 0,
					"id" : "obj-214"
				}

			}
, 			{
				"box" : 				{
					"maxclass" : "comment",
					"text" : "3 -",
					"presentation_rect" : [ 720.0, 112.0, 64.0, 16.0 ],
					"fontface" : 1,
					"fontsize" : 8.0,
					"patching_rect" : [ 1328.0, 104.0, 132.0, 16.0 ],
					"presentation" : 1,
					"numinlets" : 1,
					"fontname" : "Tahoma",
					"numoutlets" : 0,
					"id" : "obj-215"
				}

			}
, 			{
				"box" : 				{
					"maxclass" : "comment",
					"text" : "2 -",
					"presentation_rect" : [ 720.0, 96.0, 64.0, 16.0 ],
					"fontface" : 1,
					"fontsize" : 8.0,
					"patching_rect" : [ 1328.0, 88.0, 132.0, 16.0 ],
					"presentation" : 1,
					"numinlets" : 1,
					"fontname" : "Tahoma",
					"numoutlets" : 0,
					"id" : "obj-216"
				}

			}
, 			{
				"box" : 				{
					"maxclass" : "comment",
					"text" : "1 -Start Clip",
					"presentation_rect" : [ 720.0, 80.0, 64.0, 16.0 ],
					"fontface" : 1,
					"fontsize" : 8.0,
					"patching_rect" : [ 1328.0, 72.0, 132.0, 16.0 ],
					"presentation" : 1,
					"numinlets" : 1,
					"fontname" : "Tahoma",
					"numoutlets" : 0,
					"id" : "obj-217"
				}

			}
, 			{
				"box" : 				{
					"maxclass" : "comment",
					"text" : "1 -Loop End",
					"presentation_rect" : [ 560.0, 16.0, 64.0, 16.0 ],
					"fontface" : 1,
					"fontsize" : 8.0,
					"patching_rect" : [ 1464.0, 8.0, 128.0, 16.0 ],
					"presentation" : 1,
					"numinlets" : 1,
					"fontname" : "Tahoma",
					"numoutlets" : 0,
					"id" : "obj-186"
				}

			}
, 			{
				"box" : 				{
					"maxclass" : "comment",
					"text" : "4 -",
					"presentation_rect" : [ 560.0, 64.0, 64.0, 16.0 ],
					"fontface" : 1,
					"fontsize" : 8.0,
					"patching_rect" : [ 1464.0, 56.0, 128.0, 16.0 ],
					"presentation" : 1,
					"numinlets" : 1,
					"fontname" : "Tahoma",
					"numoutlets" : 0,
					"id" : "obj-187"
				}

			}
, 			{
				"box" : 				{
					"maxclass" : "comment",
					"text" : "3 -",
					"presentation_rect" : [ 560.0, 48.0, 64.0, 16.0 ],
					"fontface" : 1,
					"fontsize" : 8.0,
					"patching_rect" : [ 1464.0, 40.0, 128.0, 16.0 ],
					"presentation" : 1,
					"numinlets" : 1,
					"fontname" : "Tahoma",
					"numoutlets" : 0,
					"id" : "obj-188"
				}

			}
, 			{
				"box" : 				{
					"maxclass" : "comment",
					"text" : "4 -",
					"presentation_rect" : [ 496.0, 64.0, 64.0, 16.0 ],
					"fontface" : 1,
					"fontsize" : 8.0,
					"patching_rect" : [ 1328.0, 56.0, 132.0, 16.0 ],
					"presentation" : 1,
					"numinlets" : 1,
					"fontname" : "Tahoma",
					"numoutlets" : 0,
					"id" : "obj-190"
				}

			}
, 			{
				"box" : 				{
					"maxclass" : "comment",
					"text" : "3 -",
					"presentation_rect" : [ 496.0, 48.0, 64.0, 16.0 ],
					"fontface" : 1,
					"fontsize" : 8.0,
					"patching_rect" : [ 1328.0, 40.0, 132.0, 16.0 ],
					"presentation" : 1,
					"numinlets" : 1,
					"fontname" : "Tahoma",
					"numoutlets" : 0,
					"id" : "obj-191"
				}

			}
, 			{
				"box" : 				{
					"maxclass" : "comment",
					"text" : "1 - Loop Start",
					"presentation_rect" : [ 496.0, 16.0, 64.0, 16.0 ],
					"fontface" : 1,
					"fontsize" : 8.0,
					"patching_rect" : [ 1328.0, 8.0, 132.0, 16.0 ],
					"presentation" : 1,
					"numinlets" : 1,
					"fontname" : "Tahoma",
					"numoutlets" : 0,
					"id" : "obj-193"
				}

			}
, 			{
				"box" : 				{
					"maxclass" : "comment",
					"text" : "1 -Stop Clip",
					"presentation_rect" : [ 560.0, 80.0, 64.0, 16.0 ],
					"fontface" : 1,
					"fontsize" : 8.0,
					"patching_rect" : [ 1464.0, 72.0, 128.0, 16.0 ],
					"presentation" : 1,
					"numinlets" : 1,
					"fontname" : "Tahoma",
					"numoutlets" : 0,
					"id" : "obj-194"
				}

			}
, 			{
				"box" : 				{
					"maxclass" : "comment",
					"text" : "4 -",
					"presentation_rect" : [ 560.0, 128.0, 64.0, 16.0 ],
					"fontface" : 1,
					"fontsize" : 8.0,
					"patching_rect" : [ 1464.0, 120.0, 128.0, 16.0 ],
					"presentation" : 1,
					"numinlets" : 1,
					"fontname" : "Tahoma",
					"numoutlets" : 0,
					"id" : "obj-195"
				}

			}
, 			{
				"box" : 				{
					"maxclass" : "comment",
					"text" : "3 -",
					"presentation_rect" : [ 560.0, 112.0, 64.0, 16.0 ],
					"fontface" : 1,
					"fontsize" : 8.0,
					"patching_rect" : [ 1464.0, 104.0, 128.0, 16.0 ],
					"presentation" : 1,
					"numinlets" : 1,
					"fontname" : "Tahoma",
					"numoutlets" : 0,
					"id" : "obj-196"
				}

			}
, 			{
				"box" : 				{
					"maxclass" : "comment",
					"text" : "2 -",
					"presentation_rect" : [ 560.0, 96.0, 64.0, 16.0 ],
					"fontface" : 1,
					"fontsize" : 8.0,
					"patching_rect" : [ 1464.0, 88.0, 128.0, 16.0 ],
					"presentation" : 1,
					"numinlets" : 1,
					"fontname" : "Tahoma",
					"numoutlets" : 0,
					"id" : "obj-197"
				}

			}
, 			{
				"box" : 				{
					"maxclass" : "comment",
					"text" : "4 -",
					"presentation_rect" : [ 496.0, 128.0, 64.0, 16.0 ],
					"fontface" : 1,
					"fontsize" : 8.0,
					"patching_rect" : [ 1328.0, 120.0, 132.0, 16.0 ],
					"presentation" : 1,
					"numinlets" : 1,
					"fontname" : "Tahoma",
					"numoutlets" : 0,
					"id" : "obj-198"
				}

			}
, 			{
				"box" : 				{
					"maxclass" : "comment",
					"text" : "3 -",
					"presentation_rect" : [ 496.0, 112.0, 64.0, 16.0 ],
					"fontface" : 1,
					"fontsize" : 8.0,
					"patching_rect" : [ 1328.0, 104.0, 132.0, 16.0 ],
					"presentation" : 1,
					"numinlets" : 1,
					"fontname" : "Tahoma",
					"numoutlets" : 0,
					"id" : "obj-199"
				}

			}
, 			{
				"box" : 				{
					"maxclass" : "comment",
					"text" : "2 -",
					"presentation_rect" : [ 496.0, 96.0, 64.0, 16.0 ],
					"fontface" : 1,
					"fontsize" : 8.0,
					"patching_rect" : [ 1328.0, 88.0, 132.0, 16.0 ],
					"presentation" : 1,
					"numinlets" : 1,
					"fontname" : "Tahoma",
					"numoutlets" : 0,
					"id" : "obj-200"
				}

			}
, 			{
				"box" : 				{
					"maxclass" : "comment",
					"text" : "1 -Start Clip",
					"presentation_rect" : [ 496.0, 80.0, 64.0, 16.0 ],
					"fontface" : 1,
					"fontsize" : 8.0,
					"patching_rect" : [ 1328.0, 72.0, 132.0, 16.0 ],
					"presentation" : 1,
					"numinlets" : 1,
					"fontname" : "Tahoma",
					"numoutlets" : 0,
					"id" : "obj-201"
				}

			}
, 			{
				"box" : 				{
					"maxclass" : "comment",
					"text" : "1 -Loop End",
					"presentation_rect" : [ 336.0, 16.0, 64.0, 16.0 ],
					"fontface" : 1,
					"fontsize" : 8.0,
					"patching_rect" : [ 1464.0, 8.0, 128.0, 16.0 ],
					"presentation" : 1,
					"numinlets" : 1,
					"fontname" : "Tahoma",
					"numoutlets" : 0,
					"id" : "obj-170"
				}

			}
, 			{
				"box" : 				{
					"maxclass" : "comment",
					"text" : "4 -",
					"presentation_rect" : [ 336.0, 64.0, 64.0, 16.0 ],
					"fontface" : 1,
					"fontsize" : 8.0,
					"patching_rect" : [ 1464.0, 56.0, 128.0, 16.0 ],
					"presentation" : 1,
					"numinlets" : 1,
					"fontname" : "Tahoma",
					"numoutlets" : 0,
					"id" : "obj-171"
				}

			}
, 			{
				"box" : 				{
					"maxclass" : "comment",
					"text" : "3 -",
					"presentation_rect" : [ 336.0, 48.0, 64.0, 16.0 ],
					"fontface" : 1,
					"fontsize" : 8.0,
					"patching_rect" : [ 1464.0, 40.0, 128.0, 16.0 ],
					"presentation" : 1,
					"numinlets" : 1,
					"fontname" : "Tahoma",
					"numoutlets" : 0,
					"id" : "obj-172"
				}

			}
, 			{
				"box" : 				{
					"maxclass" : "comment",
					"text" : "4 -",
					"presentation_rect" : [ 272.0, 64.0, 64.0, 16.0 ],
					"fontface" : 1,
					"fontsize" : 8.0,
					"patching_rect" : [ 1328.0, 56.0, 132.0, 16.0 ],
					"presentation" : 1,
					"numinlets" : 1,
					"fontname" : "Tahoma",
					"numoutlets" : 0,
					"id" : "obj-174"
				}

			}
, 			{
				"box" : 				{
					"maxclass" : "comment",
					"text" : "3 -",
					"presentation_rect" : [ 272.0, 48.0, 64.0, 16.0 ],
					"fontface" : 1,
					"fontsize" : 8.0,
					"patching_rect" : [ 1328.0, 40.0, 132.0, 16.0 ],
					"presentation" : 1,
					"numinlets" : 1,
					"fontname" : "Tahoma",
					"numoutlets" : 0,
					"id" : "obj-175"
				}

			}
, 			{
				"box" : 				{
					"maxclass" : "comment",
					"text" : "1 - Loop Start",
					"presentation_rect" : [ 272.0, 16.0, 64.0, 16.0 ],
					"fontface" : 1,
					"fontsize" : 8.0,
					"patching_rect" : [ 1328.0, 8.0, 132.0, 16.0 ],
					"presentation" : 1,
					"numinlets" : 1,
					"fontname" : "Tahoma",
					"numoutlets" : 0,
					"id" : "obj-177"
				}

			}
, 			{
				"box" : 				{
					"maxclass" : "comment",
					"text" : "1 -Stop Clip",
					"presentation_rect" : [ 336.0, 80.0, 64.0, 16.0 ],
					"fontface" : 1,
					"fontsize" : 8.0,
					"patching_rect" : [ 1464.0, 72.0, 128.0, 16.0 ],
					"presentation" : 1,
					"numinlets" : 1,
					"fontname" : "Tahoma",
					"numoutlets" : 0,
					"id" : "obj-178"
				}

			}
, 			{
				"box" : 				{
					"maxclass" : "comment",
					"text" : "4 -",
					"presentation_rect" : [ 336.0, 128.0, 64.0, 16.0 ],
					"fontface" : 1,
					"fontsize" : 8.0,
					"patching_rect" : [ 1464.0, 120.0, 128.0, 16.0 ],
					"presentation" : 1,
					"numinlets" : 1,
					"fontname" : "Tahoma",
					"numoutlets" : 0,
					"id" : "obj-179"
				}

			}
, 			{
				"box" : 				{
					"maxclass" : "comment",
					"text" : "3 -",
					"presentation_rect" : [ 336.0, 112.0, 64.0, 16.0 ],
					"fontface" : 1,
					"fontsize" : 8.0,
					"patching_rect" : [ 1464.0, 104.0, 128.0, 16.0 ],
					"presentation" : 1,
					"numinlets" : 1,
					"fontname" : "Tahoma",
					"numoutlets" : 0,
					"id" : "obj-180"
				}

			}
, 			{
				"box" : 				{
					"maxclass" : "comment",
					"text" : "2 -",
					"presentation_rect" : [ 336.0, 96.0, 64.0, 16.0 ],
					"fontface" : 1,
					"fontsize" : 8.0,
					"patching_rect" : [ 1464.0, 88.0, 128.0, 16.0 ],
					"presentation" : 1,
					"numinlets" : 1,
					"fontname" : "Tahoma",
					"numoutlets" : 0,
					"id" : "obj-181"
				}

			}
, 			{
				"box" : 				{
					"maxclass" : "comment",
					"text" : "4 -",
					"presentation_rect" : [ 272.0, 128.0, 64.0, 16.0 ],
					"fontface" : 1,
					"fontsize" : 8.0,
					"patching_rect" : [ 1328.0, 120.0, 132.0, 16.0 ],
					"presentation" : 1,
					"numinlets" : 1,
					"fontname" : "Tahoma",
					"numoutlets" : 0,
					"id" : "obj-182"
				}

			}
, 			{
				"box" : 				{
					"maxclass" : "comment",
					"text" : "3 -",
					"presentation_rect" : [ 272.0, 112.0, 64.0, 16.0 ],
					"fontface" : 1,
					"fontsize" : 8.0,
					"patching_rect" : [ 1328.0, 104.0, 132.0, 16.0 ],
					"presentation" : 1,
					"numinlets" : 1,
					"fontname" : "Tahoma",
					"numoutlets" : 0,
					"id" : "obj-183"
				}

			}
, 			{
				"box" : 				{
					"maxclass" : "comment",
					"text" : "2 -",
					"presentation_rect" : [ 272.0, 96.0, 64.0, 16.0 ],
					"fontface" : 1,
					"fontsize" : 8.0,
					"patching_rect" : [ 1328.0, 88.0, 132.0, 16.0 ],
					"presentation" : 1,
					"numinlets" : 1,
					"fontname" : "Tahoma",
					"numoutlets" : 0,
					"id" : "obj-184"
				}

			}
, 			{
				"box" : 				{
					"maxclass" : "comment",
					"text" : "1 -Start Clip",
					"presentation_rect" : [ 272.0, 80.0, 64.0, 16.0 ],
					"fontface" : 1,
					"fontsize" : 8.0,
					"patching_rect" : [ 1328.0, 72.0, 132.0, 16.0 ],
					"presentation" : 1,
					"numinlets" : 1,
					"fontname" : "Tahoma",
					"numoutlets" : 0,
					"id" : "obj-185"
				}

			}
, 			{
				"box" : 				{
					"maxclass" : "comment",
					"text" : "1 -Loop End",
					"presentation_rect" : [ 112.0, 16.0, 64.0, 16.0 ],
					"fontface" : 1,
					"fontsize" : 8.0,
					"patching_rect" : [ 1464.0, 8.0, 128.0, 16.0 ],
					"presentation" : 1,
					"numinlets" : 1,
					"fontname" : "Tahoma",
					"numoutlets" : 0,
					"id" : "obj-28"
				}

			}
, 			{
				"box" : 				{
					"maxclass" : "comment",
					"text" : "4 -",
					"presentation_rect" : [ 112.0, 64.0, 64.0, 16.0 ],
					"fontface" : 1,
					"fontsize" : 8.0,
					"patching_rect" : [ 1464.0, 56.0, 128.0, 16.0 ],
					"presentation" : 1,
					"numinlets" : 1,
					"fontname" : "Tahoma",
					"numoutlets" : 0,
					"id" : "obj-29"
				}

			}
, 			{
				"box" : 				{
					"maxclass" : "comment",
					"text" : "3 -",
					"presentation_rect" : [ 112.0, 48.0, 64.0, 16.0 ],
					"fontface" : 1,
					"fontsize" : 8.0,
					"patching_rect" : [ 1464.0, 40.0, 128.0, 16.0 ],
					"presentation" : 1,
					"numinlets" : 1,
					"fontname" : "Tahoma",
					"numoutlets" : 0,
					"id" : "obj-30"
				}

			}
, 			{
				"box" : 				{
					"maxclass" : "comment",
					"text" : "2 - Loop * 2",
					"presentation_rect" : [ 112.0, 32.0, 64.0, 16.0 ],
					"fontface" : 1,
					"fontsize" : 8.0,
					"patching_rect" : [ 1464.0, 24.0, 128.0, 16.0 ],
					"presentation" : 1,
					"numinlets" : 1,
					"fontname" : "Tahoma",
					"numoutlets" : 0,
					"id" : "obj-31"
				}

			}
, 			{
				"box" : 				{
					"maxclass" : "comment",
					"text" : "4 -",
					"presentation_rect" : [ 48.0, 64.0, 64.0, 16.0 ],
					"fontface" : 1,
					"fontsize" : 8.0,
					"patching_rect" : [ 1328.0, 56.0, 132.0, 16.0 ],
					"presentation" : 1,
					"numinlets" : 1,
					"fontname" : "Tahoma",
					"numoutlets" : 0,
					"id" : "obj-32"
				}

			}
, 			{
				"box" : 				{
					"maxclass" : "comment",
					"text" : "3 -",
					"presentation_rect" : [ 48.0, 48.0, 64.0, 16.0 ],
					"fontface" : 1,
					"fontsize" : 8.0,
					"patching_rect" : [ 1328.0, 40.0, 132.0, 16.0 ],
					"presentation" : 1,
					"numinlets" : 1,
					"fontname" : "Tahoma",
					"numoutlets" : 0,
					"id" : "obj-33"
				}

			}
, 			{
				"box" : 				{
					"maxclass" : "comment",
					"text" : "2 - Loop / 2",
					"presentation_rect" : [ 48.0, 32.0, 64.0, 16.0 ],
					"fontface" : 1,
					"fontsize" : 8.0,
					"patching_rect" : [ 1328.0, 24.0, 132.0, 16.0 ],
					"presentation" : 1,
					"numinlets" : 1,
					"fontname" : "Tahoma",
					"numoutlets" : 0,
					"id" : "obj-34"
				}

			}
, 			{
				"box" : 				{
					"maxclass" : "comment",
					"text" : "1 - Loop Start",
					"presentation_rect" : [ 48.0, 16.0, 64.0, 16.0 ],
					"fontface" : 1,
					"fontsize" : 8.0,
					"patching_rect" : [ 1328.0, 8.0, 132.0, 16.0 ],
					"presentation" : 1,
					"numinlets" : 1,
					"fontname" : "Tahoma",
					"numoutlets" : 0,
					"id" : "obj-35"
				}

			}
, 			{
				"box" : 				{
					"maxclass" : "comment",
					"text" : "1 -Stop Clip",
					"presentation_rect" : [ 112.0, 80.0, 64.0, 16.0 ],
					"fontface" : 1,
					"fontsize" : 8.0,
					"patching_rect" : [ 1464.0, 72.0, 128.0, 16.0 ],
					"presentation" : 1,
					"numinlets" : 1,
					"fontname" : "Tahoma",
					"numoutlets" : 0,
					"id" : "obj-27"
				}

			}
, 			{
				"box" : 				{
					"maxclass" : "comment",
					"text" : "4 -",
					"presentation_rect" : [ 112.0, 128.0, 64.0, 16.0 ],
					"fontface" : 1,
					"fontsize" : 8.0,
					"patching_rect" : [ 1464.0, 120.0, 128.0, 16.0 ],
					"presentation" : 1,
					"numinlets" : 1,
					"fontname" : "Tahoma",
					"numoutlets" : 0,
					"id" : "obj-23"
				}

			}
, 			{
				"box" : 				{
					"maxclass" : "comment",
					"text" : "3 -",
					"presentation_rect" : [ 112.0, 112.0, 64.0, 16.0 ],
					"fontface" : 1,
					"fontsize" : 8.0,
					"patching_rect" : [ 1464.0, 104.0, 128.0, 16.0 ],
					"presentation" : 1,
					"numinlets" : 1,
					"fontname" : "Tahoma",
					"numoutlets" : 0,
					"id" : "obj-24"
				}

			}
, 			{
				"box" : 				{
					"maxclass" : "comment",
					"text" : "2 -",
					"presentation_rect" : [ 112.0, 96.0, 64.0, 16.0 ],
					"fontface" : 1,
					"fontsize" : 8.0,
					"patching_rect" : [ 1464.0, 88.0, 128.0, 16.0 ],
					"presentation" : 1,
					"numinlets" : 1,
					"fontname" : "Tahoma",
					"numoutlets" : 0,
					"id" : "obj-25"
				}

			}
, 			{
				"box" : 				{
					"maxclass" : "comment",
					"text" : "4 -",
					"presentation_rect" : [ 48.0, 128.0, 64.0, 16.0 ],
					"fontface" : 1,
					"fontsize" : 8.0,
					"patching_rect" : [ 1328.0, 120.0, 132.0, 16.0 ],
					"presentation" : 1,
					"numinlets" : 1,
					"fontname" : "Tahoma",
					"numoutlets" : 0,
					"id" : "obj-19"
				}

			}
, 			{
				"box" : 				{
					"maxclass" : "comment",
					"text" : "3 -",
					"presentation_rect" : [ 48.0, 112.0, 64.0, 16.0 ],
					"fontface" : 1,
					"fontsize" : 8.0,
					"patching_rect" : [ 1328.0, 104.0, 132.0, 16.0 ],
					"presentation" : 1,
					"numinlets" : 1,
					"fontname" : "Tahoma",
					"numoutlets" : 0,
					"id" : "obj-18"
				}

			}
, 			{
				"box" : 				{
					"maxclass" : "comment",
					"text" : "2 -",
					"presentation_rect" : [ 48.0, 96.0, 64.0, 16.0 ],
					"fontface" : 1,
					"fontsize" : 8.0,
					"patching_rect" : [ 1328.0, 88.0, 132.0, 16.0 ],
					"presentation" : 1,
					"numinlets" : 1,
					"fontname" : "Tahoma",
					"numoutlets" : 0,
					"id" : "obj-17"
				}

			}
, 			{
				"box" : 				{
					"maxclass" : "comment",
					"text" : "1 -Start Clip",
					"presentation_rect" : [ 48.0, 80.0, 64.0, 16.0 ],
					"fontface" : 1,
					"fontsize" : 8.0,
					"patching_rect" : [ 1328.0, 72.0, 132.0, 16.0 ],
					"presentation" : 1,
					"numinlets" : 1,
					"fontname" : "Tahoma",
					"numoutlets" : 0,
					"id" : "obj-16"
				}

			}
, 			{
				"box" : 				{
					"maxclass" : "newobj",
					"text" : "pattrmarker ficken",
					"outlettype" : [ "" ],
					"fontsize" : 10.0,
					"patching_rect" : [ 160.0, 160.0, 100.0, 18.0 ],
					"numinlets" : 1,
					"fontname" : "Arial Bold",
					"numoutlets" : 1,
					"id" : "obj-14"
				}

			}
, 			{
				"box" : 				{
					"maxclass" : "newobj",
					"text" : "print panelmap",
					"fontsize" : 10.0,
					"patching_rect" : [ 288.0, 208.0, 100.0, 18.0 ],
					"numinlets" : 1,
					"fontname" : "Arial Bold",
					"numoutlets" : 0,
					"id" : "obj-11"
				}

			}
, 			{
				"box" : 				{
					"maxclass" : "newobj",
					"text" : "gate",
					"outlettype" : [ "" ],
					"fontsize" : 10.0,
					"patching_rect" : [ 288.0, 184.0, 100.0, 18.0 ],
					"numinlets" : 2,
					"fontname" : "Arial Bold",
					"numoutlets" : 1,
					"id" : "obj-10"
				}

			}
, 			{
				"box" : 				{
					"maxclass" : "newobj",
					"varname" : "panelmap-debugbind",
					"text" : "pattr panelmap-debugbind @bindto ::root::debugstate",
					"linecount" : 2,
					"outlettype" : [ "", "", "" ],
					"fontsize" : 10.0,
					"patching_rect" : [ 288.0, 136.0, 168.0, 29.0 ],
					"numinlets" : 1,
					"fontname" : "Arial Bold",
					"numoutlets" : 3,
					"id" : "obj-50",
					"restore" : [ 0 ],
					"saved_object_attributes" : 					{
						"parameter_enable" : 0
					}

				}

			}
, 			{
				"box" : 				{
					"maxclass" : "newobj",
					"text" : "tosymbol",
					"outlettype" : [ "" ],
					"fontsize" : 10.0,
					"patching_rect" : [ 160.0, 112.0, 100.0, 18.0 ],
					"numinlets" : 1,
					"fontname" : "Arial Bold",
					"numoutlets" : 1,
					"id" : "obj-9"
				}

			}
, 			{
				"box" : 				{
					"maxclass" : "message",
					"text" : "panelfoo",
					"outlettype" : [ "" ],
					"fontsize" : 10.0,
					"patching_rect" : [ 240.0, 72.0, 88.0, 16.0 ],
					"numinlets" : 2,
					"fontname" : "Arial Bold",
					"numoutlets" : 1,
					"id" : "obj-8"
				}

			}
, 			{
				"box" : 				{
					"maxclass" : "newobj",
					"text" : "t b b",
					"outlettype" : [ "bang", "bang" ],
					"fontsize" : 10.0,
					"patching_rect" : [ 160.0, 48.0, 100.0, 18.0 ],
					"numinlets" : 1,
					"fontname" : "Arial Bold",
					"numoutlets" : 2,
					"id" : "obj-6"
				}

			}
, 			{
				"box" : 				{
					"maxclass" : "newobj",
					"text" : "receive ---ldbng1",
					"outlettype" : [ "" ],
					"fontsize" : 10.0,
					"patching_rect" : [ 8.0, 24.0, 100.0, 18.0 ],
					"numinlets" : 0,
					"fontname" : "Arial Bold",
					"numoutlets" : 1,
					"id" : "obj-1",
					"color" : [ 0.239216, 0.643137, 0.709804, 1.0 ]
				}

			}
, 			{
				"box" : 				{
					"maxclass" : "message",
					"text" : "store 2",
					"outlettype" : [ "" ],
					"fontsize" : 10.0,
					"patching_rect" : [ 128.0, 384.0, 50.0, 16.0 ],
					"numinlets" : 2,
					"fontname" : "Arial Bold",
					"numoutlets" : 1,
					"id" : "obj-167"
				}

			}
, 			{
				"box" : 				{
					"maxclass" : "message",
					"text" : "2",
					"outlettype" : [ "" ],
					"fontsize" : 10.0,
					"patching_rect" : [ 72.0, 384.0, 32.0, 16.0 ],
					"numinlets" : 2,
					"fontname" : "Arial Bold",
					"numoutlets" : 1,
					"id" : "obj-165"
				}

			}
, 			{
				"box" : 				{
					"maxclass" : "message",
					"text" : "1",
					"outlettype" : [ "" ],
					"fontsize" : 10.0,
					"patching_rect" : [ 64.0, 368.0, 32.0, 16.0 ],
					"numinlets" : 2,
					"fontname" : "Arial Bold",
					"numoutlets" : 1,
					"id" : "obj-163"
				}

			}
, 			{
				"box" : 				{
					"maxclass" : "toggle",
					"outlettype" : [ "int" ],
					"patching_rect" : [ 184.0, 360.0, 20.0, 20.0 ],
					"numinlets" : 1,
					"numoutlets" : 1,
					"id" : "obj-161"
				}

			}
, 			{
				"box" : 				{
					"maxclass" : "message",
					"text" : "store 1",
					"outlettype" : [ "" ],
					"fontsize" : 10.0,
					"patching_rect" : [ 120.0, 368.0, 50.0, 16.0 ],
					"numinlets" : 2,
					"fontname" : "Arial Bold",
					"numoutlets" : 1,
					"id" : "obj-158"
				}

			}
, 			{
				"box" : 				{
					"maxclass" : "bpatcher",
					"varname" : "pb7",
					"presentation_rect" : [ 672.0, 16.0, 48.0, 64.0 ],
					"args" : [ 7 ],
					"name" : "ARC-Panel-Map-PushButton-0.1-001-r3.maxpat",
					"patching_rect" : [ 664.0, 280.0, 40.0, 32.0 ],
					"presentation" : 1,
					"numinlets" : 2,
					"numoutlets" : 0,
					"id" : "obj-141"
				}

			}
, 			{
				"box" : 				{
					"maxclass" : "message",
					"text" : "but-16",
					"outlettype" : [ "" ],
					"fontsize" : 10.0,
					"patching_rect" : [ 752.0, 328.0, 40.0, 16.0 ],
					"numinlets" : 2,
					"fontname" : "Arial Bold",
					"numoutlets" : 1,
					"id" : "obj-142"
				}

			}
, 			{
				"box" : 				{
					"maxclass" : "message",
					"text" : "but-15",
					"outlettype" : [ "" ],
					"fontsize" : 10.0,
					"patching_rect" : [ 696.0, 328.0, 44.0, 16.0 ],
					"numinlets" : 2,
					"fontname" : "Arial Bold",
					"numoutlets" : 1,
					"id" : "obj-143"
				}

			}
, 			{
				"box" : 				{
					"maxclass" : "bpatcher",
					"varname" : "pb16",
					"presentation_rect" : [ 848.0, 80.0, 48.0, 64.0 ],
					"args" : [ 16 ],
					"name" : "ARC-Panel-Map-PushButton-0.1-001-r3.maxpat",
					"patching_rect" : [ 752.0, 368.0, 40.0, 32.0 ],
					"presentation" : 1,
					"numinlets" : 2,
					"numoutlets" : 0,
					"id" : "obj-144"
				}

			}
, 			{
				"box" : 				{
					"maxclass" : "bpatcher",
					"varname" : "pb15",
					"presentation_rect" : [ 672.0, 80.0, 48.0, 64.0 ],
					"args" : [ 15 ],
					"name" : "ARC-Panel-Map-PushButton-0.1-001-r3.maxpat",
					"patching_rect" : [ 696.0, 368.0, 40.0, 32.0 ],
					"presentation" : 1,
					"numinlets" : 2,
					"numoutlets" : 0,
					"id" : "obj-145"
				}

			}
, 			{
				"box" : 				{
					"maxclass" : "message",
					"text" : "but-8",
					"outlettype" : [ "" ],
					"fontsize" : 10.0,
					"patching_rect" : [ 720.0, 240.0, 40.0, 16.0 ],
					"numinlets" : 2,
					"fontname" : "Arial Bold",
					"numoutlets" : 1,
					"id" : "obj-146"
				}

			}
, 			{
				"box" : 				{
					"maxclass" : "bpatcher",
					"varname" : "pb8",
					"presentation_rect" : [ 848.0, 16.0, 48.0, 64.0 ],
					"args" : [ 8 ],
					"name" : "ARC-Panel-Map-PushButton-0.1-001-r3.maxpat",
					"patching_rect" : [ 720.0, 280.0, 40.0, 32.0 ],
					"presentation" : 1,
					"numinlets" : 2,
					"numoutlets" : 0,
					"id" : "obj-147"
				}

			}
, 			{
				"box" : 				{
					"maxclass" : "message",
					"text" : "but-7",
					"outlettype" : [ "" ],
					"fontsize" : 10.0,
					"patching_rect" : [ 664.0, 240.0, 40.0, 16.0 ],
					"numinlets" : 2,
					"fontname" : "Arial Bold",
					"numoutlets" : 1,
					"id" : "obj-148"
				}

			}
, 			{
				"box" : 				{
					"maxclass" : "bpatcher",
					"varname" : "pb5",
					"presentation_rect" : [ 448.0, 16.0, 48.0, 64.0 ],
					"args" : [ 5 ],
					"name" : "ARC-Panel-Map-PushButton-0.1-001-r3.maxpat",
					"patching_rect" : [ 552.0, 280.0, 40.0, 32.0 ],
					"presentation" : 1,
					"numinlets" : 2,
					"numoutlets" : 0,
					"id" : "obj-149"
				}

			}
, 			{
				"box" : 				{
					"maxclass" : "message",
					"text" : "but-14",
					"outlettype" : [ "" ],
					"fontsize" : 10.0,
					"patching_rect" : [ 640.0, 328.0, 40.0, 16.0 ],
					"numinlets" : 2,
					"fontname" : "Arial Bold",
					"numoutlets" : 1,
					"id" : "obj-150"
				}

			}
, 			{
				"box" : 				{
					"maxclass" : "message",
					"text" : "but-13",
					"outlettype" : [ "" ],
					"fontsize" : 10.0,
					"patching_rect" : [ 584.0, 328.0, 40.0, 16.0 ],
					"numinlets" : 2,
					"fontname" : "Arial Bold",
					"numoutlets" : 1,
					"id" : "obj-151"
				}

			}
, 			{
				"box" : 				{
					"maxclass" : "bpatcher",
					"varname" : "pb14",
					"presentation_rect" : [ 624.0, 80.0, 48.0, 64.0 ],
					"args" : [ 14 ],
					"name" : "ARC-Panel-Map-PushButton-0.1-001-r3.maxpat",
					"patching_rect" : [ 640.0, 368.0, 40.0, 32.0 ],
					"presentation" : 1,
					"numinlets" : 2,
					"numoutlets" : 0,
					"id" : "obj-152"
				}

			}
, 			{
				"box" : 				{
					"maxclass" : "bpatcher",
					"varname" : "pb13",
					"presentation_rect" : [ 448.0, 80.0, 48.0, 64.0 ],
					"args" : [ 13 ],
					"name" : "ARC-Panel-Map-PushButton-0.1-001-r3.maxpat",
					"patching_rect" : [ 584.0, 368.0, 40.0, 32.0 ],
					"presentation" : 1,
					"numinlets" : 2,
					"numoutlets" : 0,
					"id" : "obj-153"
				}

			}
, 			{
				"box" : 				{
					"maxclass" : "message",
					"text" : "but-6",
					"outlettype" : [ "" ],
					"fontsize" : 10.0,
					"patching_rect" : [ 608.0, 240.0, 40.0, 16.0 ],
					"numinlets" : 2,
					"fontname" : "Arial Bold",
					"numoutlets" : 1,
					"id" : "obj-154"
				}

			}
, 			{
				"box" : 				{
					"maxclass" : "bpatcher",
					"varname" : "pb6",
					"presentation_rect" : [ 624.0, 16.0, 48.0, 64.0 ],
					"args" : [ 6 ],
					"name" : "ARC-Panel-Map-PushButton-0.1-001-r3.maxpat",
					"patching_rect" : [ 608.0, 280.0, 40.0, 32.0 ],
					"presentation" : 1,
					"numinlets" : 2,
					"numoutlets" : 0,
					"id" : "obj-155"
				}

			}
, 			{
				"box" : 				{
					"maxclass" : "message",
					"text" : "but-5",
					"outlettype" : [ "" ],
					"fontsize" : 10.0,
					"patching_rect" : [ 552.0, 240.0, 40.0, 16.0 ],
					"numinlets" : 2,
					"fontname" : "Arial Bold",
					"numoutlets" : 1,
					"id" : "obj-156"
				}

			}
, 			{
				"box" : 				{
					"maxclass" : "bpatcher",
					"varname" : "pb3",
					"presentation_rect" : [ 224.0, 16.0, 48.0, 64.0 ],
					"args" : [ 3 ],
					"name" : "ARC-Panel-Map-PushButton-0.1-001-r3.maxpat",
					"patching_rect" : [ 440.0, 280.0, 40.0, 32.0 ],
					"presentation" : 1,
					"numinlets" : 2,
					"numoutlets" : 0,
					"id" : "obj-133"
				}

			}
, 			{
				"box" : 				{
					"maxclass" : "message",
					"text" : "but-12",
					"outlettype" : [ "" ],
					"fontsize" : 10.0,
					"patching_rect" : [ 528.0, 328.0, 40.0, 16.0 ],
					"numinlets" : 2,
					"fontname" : "Arial Bold",
					"numoutlets" : 1,
					"id" : "obj-134"
				}

			}
, 			{
				"box" : 				{
					"maxclass" : "message",
					"text" : "but-11",
					"outlettype" : [ "" ],
					"fontsize" : 10.0,
					"patching_rect" : [ 472.0, 328.0, 40.0, 16.0 ],
					"numinlets" : 2,
					"fontname" : "Arial Bold",
					"numoutlets" : 1,
					"id" : "obj-135"
				}

			}
, 			{
				"box" : 				{
					"maxclass" : "bpatcher",
					"varname" : "pb12",
					"presentation_rect" : [ 400.0, 80.0, 48.0, 64.0 ],
					"args" : [ 12 ],
					"name" : "ARC-Panel-Map-PushButton-0.1-001-r3.maxpat",
					"patching_rect" : [ 528.0, 368.0, 40.0, 32.0 ],
					"presentation" : 1,
					"numinlets" : 2,
					"numoutlets" : 0,
					"id" : "obj-136"
				}

			}
, 			{
				"box" : 				{
					"maxclass" : "bpatcher",
					"varname" : "pb11",
					"presentation_rect" : [ 224.0, 80.0, 48.0, 64.0 ],
					"args" : [ 11 ],
					"name" : "ARC-Panel-Map-PushButton-0.1-001-r3.maxpat",
					"patching_rect" : [ 472.0, 368.0, 40.0, 32.0 ],
					"presentation" : 1,
					"numinlets" : 2,
					"numoutlets" : 0,
					"id" : "obj-137"
				}

			}
, 			{
				"box" : 				{
					"maxclass" : "message",
					"text" : "but-4",
					"outlettype" : [ "" ],
					"fontsize" : 10.0,
					"patching_rect" : [ 496.0, 240.0, 40.0, 16.0 ],
					"numinlets" : 2,
					"fontname" : "Arial Bold",
					"numoutlets" : 1,
					"id" : "obj-138"
				}

			}
, 			{
				"box" : 				{
					"maxclass" : "bpatcher",
					"varname" : "pb4",
					"presentation_rect" : [ 400.0, 16.0, 48.0, 64.0 ],
					"args" : [ 4 ],
					"name" : "ARC-Panel-Map-PushButton-0.1-001-r3.maxpat",
					"patching_rect" : [ 496.0, 280.0, 40.0, 32.0 ],
					"presentation" : 1,
					"numinlets" : 2,
					"numoutlets" : 0,
					"id" : "obj-139"
				}

			}
, 			{
				"box" : 				{
					"maxclass" : "message",
					"text" : "but-3",
					"outlettype" : [ "" ],
					"fontsize" : 10.0,
					"patching_rect" : [ 440.0, 240.0, 40.0, 16.0 ],
					"numinlets" : 2,
					"fontname" : "Arial Bold",
					"numoutlets" : 1,
					"id" : "obj-140"
				}

			}
, 			{
				"box" : 				{
					"maxclass" : "bpatcher",
					"varname" : "pb1",
					"presentation_rect" : [ 0.0, 16.0, 48.0, 66.0 ],
					"args" : [ 1 ],
					"name" : "ARC-Panel-Map-PushButton-0.1-001-r3.maxpat",
					"patching_rect" : [ 328.0, 280.0, 40.0, 32.0 ],
					"presentation" : 1,
					"numinlets" : 2,
					"numoutlets" : 0,
					"id" : "obj-128"
				}

			}
, 			{
				"box" : 				{
					"maxclass" : "message",
					"text" : "but-10",
					"outlettype" : [ "" ],
					"fontsize" : 10.0,
					"patching_rect" : [ 416.0, 328.0, 40.0, 16.0 ],
					"numinlets" : 2,
					"fontname" : "Arial Bold",
					"numoutlets" : 1,
					"id" : "obj-118"
				}

			}
, 			{
				"box" : 				{
					"maxclass" : "message",
					"text" : "but-9",
					"outlettype" : [ "" ],
					"fontsize" : 10.0,
					"patching_rect" : [ 360.0, 328.0, 40.0, 16.0 ],
					"numinlets" : 2,
					"fontname" : "Arial Bold",
					"numoutlets" : 1,
					"id" : "obj-119"
				}

			}
, 			{
				"box" : 				{
					"maxclass" : "bpatcher",
					"varname" : "pb10",
					"presentation_rect" : [ 176.0, 80.0, 48.0, 64.0 ],
					"args" : [ 10 ],
					"name" : "ARC-Panel-Map-PushButton-0.1-001-r3.maxpat",
					"patching_rect" : [ 416.0, 368.0, 40.0, 32.0 ],
					"presentation" : 1,
					"numinlets" : 2,
					"numoutlets" : 0,
					"id" : "obj-116"
				}

			}
, 			{
				"box" : 				{
					"maxclass" : "bpatcher",
					"varname" : "pb9",
					"presentation_rect" : [ 0.0, 80.0, 48.0, 64.0 ],
					"args" : [ 9 ],
					"name" : "ARC-Panel-Map-PushButton-0.1-001-r3.maxpat",
					"patching_rect" : [ 360.0, 368.0, 40.0, 32.0 ],
					"presentation" : 1,
					"numinlets" : 2,
					"numoutlets" : 0,
					"id" : "obj-117"
				}

			}
, 			{
				"box" : 				{
					"maxclass" : "message",
					"text" : "but-2",
					"outlettype" : [ "" ],
					"fontsize" : 10.0,
					"patching_rect" : [ 384.0, 240.0, 40.0, 16.0 ],
					"numinlets" : 2,
					"fontname" : "Arial Bold",
					"numoutlets" : 1,
					"id" : "obj-115"
				}

			}
, 			{
				"box" : 				{
					"maxclass" : "bpatcher",
					"varname" : "pb2",
					"presentation_rect" : [ 176.0, 16.0, 48.0, 64.0 ],
					"args" : [ 2 ],
					"name" : "ARC-Panel-Map-PushButton-0.1-001-r3.maxpat",
					"patching_rect" : [ 384.0, 280.0, 40.0, 32.0 ],
					"presentation" : 1,
					"numinlets" : 2,
					"numoutlets" : 0,
					"id" : "obj-114"
				}

			}
, 			{
				"box" : 				{
					"maxclass" : "newobj",
					"text" : "t b b",
					"outlettype" : [ "bang", "bang" ],
					"fontsize" : 10.0,
					"patching_rect" : [ 8.0, 72.0, 56.0, 18.0 ],
					"numinlets" : 1,
					"fontname" : "Arial Bold",
					"numoutlets" : 2,
					"id" : "obj-113",
					"color" : [ 0.501961, 0.717647, 0.764706, 1.0 ]
				}

			}
, 			{
				"box" : 				{
					"maxclass" : "message",
					"text" : "but-1",
					"outlettype" : [ "" ],
					"fontsize" : 10.0,
					"patching_rect" : [ 328.0, 240.0, 40.0, 16.0 ],
					"numinlets" : 2,
					"fontname" : "Arial Bold",
					"numoutlets" : 1,
					"id" : "obj-112"
				}

			}
, 			{
				"box" : 				{
					"maxclass" : "newobj",
					"varname" : "panel-map-storage",
					"text" : "pattrstorage panel-map-storage @savemode 2 @greedy 1",
					"linecount" : 4,
					"outlettype" : [ "" ],
					"fontsize" : 10.0,
					"patching_rect" : [ 48.0, 432.0, 105.0, 52.0 ],
					"numinlets" : 1,
					"fontname" : "Arial Bold",
					"numoutlets" : 1,
					"id" : "obj-87",
					"saved_object_attributes" : 					{
						"storage_rect" : [ 365, 50, 816, 178 ],
						"client_rect" : [ 4, 44, 358, 562 ],
						"parameter_enable" : 0,
						"paraminitmode" : 0
					}

				}

			}
, 			{
				"box" : 				{
					"maxclass" : "bpatcher",
					"presentation_rect" : [ 1128.0, 24.0, 88.0, 48.0 ],
					"args" : [  ],
					"outlettype" : [ "" ],
					"name" : "ARC-Panel-Map-LayerButtons-0.0-001-r2.maxpat",
					"patching_rect" : [ 776.0, 216.0, 88.0, 48.0 ],
					"presentation" : 1,
					"numinlets" : 0,
					"numoutlets" : 1,
					"id" : "obj-86"
				}

			}
, 			{
				"box" : 				{
					"maxclass" : "comment",
					"text" : "MIDI-Mapping",
					"presentation_rect" : [ 0.0, 0.0, 150.0, 18.0 ],
					"fontsize" : 10.0,
					"patching_rect" : [ 0.0, 0.0, 150.0, 18.0 ],
					"presentation" : 1,
					"numinlets" : 1,
					"fontname" : "Arial Bold",
					"numoutlets" : 0,
					"id" : "obj-2"
				}

			}
, 			{
				"box" : 				{
					"maxclass" : "textbutton",
					"textcolor" : [ 1.0, 1.0, 1.0, 1.0 ],
					"presentation_rect" : [ 0.0, 0.0, 1304.0, 16.0 ],
					"texton" : "",
					"bgoveroncolor" : [ 1.0, 1.0, 1.0, 1.0 ],
					"outlettype" : [ "", "", "int" ],
					"fontsize" : 10.0,
					"ignoreclick" : 1,
					"bordercolor" : [ 0.6, 0.6, 0.6, 0.0 ],
					"bgoncolor" : [ 1.0, 1.0, 1.0, 1.0 ],
					"patching_rect" : [ 288.0, 0.0, 121.0, 17.0 ],
					"bgcolor" : [ 0.501961, 0.717647, 0.764706, 1.0 ],
					"presentation" : 1,
					"border" : 1,
					"borderoncolor" : [ 1.0, 1.0, 1.0, 1.0 ],
					"textoveroncolor" : [ 1.0, 1.0, 1.0, 1.0 ],
					"numinlets" : 1,
					"textovercolor" : [ 1.0, 1.0, 1.0, 1.0 ],
					"fontname" : "Arial Bold",
					"text" : "",
					"bgovercolor" : [ 1.0, 1.0, 1.0, 1.0 ],
					"numoutlets" : 3,
					"id" : "obj-4"
				}

			}
, 			{
				"box" : 				{
					"maxclass" : "panel",
					"presentation_rect" : [ 1.0, 8.0, 1302.0, 8.0 ],
					"bordercolor" : [ 0.0, 0.0, 0.0, 0.0 ],
					"patching_rect" : [ 289.0, 9.0, 120.0, 24.0 ],
					"bgcolor" : [ 0.501961, 0.717647, 0.764706, 1.0 ],
					"presentation" : 1,
					"border" : 1,
					"numinlets" : 1,
					"rounded" : 0,
					"numoutlets" : 0,
					"id" : "obj-7"
				}

			}
, 			{
				"box" : 				{
					"maxclass" : "message",
					"text" : "storagewindow $1",
					"outlettype" : [ "" ],
					"fontsize" : 10.0,
					"patching_rect" : [ 184.0, 384.0, 99.0, 16.0 ],
					"numinlets" : 2,
					"fontname" : "Arial Bold",
					"numoutlets" : 1,
					"id" : "obj-159"
				}

			}
, 			{
				"box" : 				{
					"maxclass" : "message",
					"text" : "subscribemode 0",
					"outlettype" : [ "" ],
					"fontsize" : 10.0,
					"patching_rect" : [ 48.0, 344.0, 96.0, 16.0 ],
					"numinlets" : 2,
					"fontname" : "Arial Bold",
					"numoutlets" : 1,
					"id" : "obj-13"
				}

			}
, 			{
				"box" : 				{
					"maxclass" : "message",
					"text" : "panelmap",
					"outlettype" : [ "" ],
					"fontsize" : 10.0,
					"patching_rect" : [ 160.0, 88.0, 88.0, 16.0 ],
					"numinlets" : 2,
					"fontname" : "Arial Bold",
					"numoutlets" : 1,
					"id" : "obj-3"
				}

			}
, 			{
				"box" : 				{
					"maxclass" : "message",
					"text" : "name $1",
					"outlettype" : [ "" ],
					"fontsize" : 10.0,
					"patching_rect" : [ 160.0, 136.0, 50.0, 16.0 ],
					"numinlets" : 2,
					"fontname" : "Arial Bold",
					"numoutlets" : 1,
					"id" : "obj-5"
				}

			}
, 			{
				"box" : 				{
					"maxclass" : "textbutton",
					"textcolor" : [ 0.14902, 0.14902, 0.14902, 0.0 ],
					"presentation_rect" : [ 0.0, 80.0, 112.0, 64.0 ],
					"outlettype" : [ "", "", "int" ],
					"fontsize" : 10.0,
					"ignoreclick" : 1,
					"patching_rect" : [ 1328.0, 72.0, 136.0, 64.0 ],
					"bgcolor" : [ 0.74902, 0.74902, 0.74902, 0.0 ],
					"presentation" : 1,
					"border" : 1,
					"numinlets" : 1,
					"textovercolor" : [ 0.101961, 0.101961, 0.101961, 0.0 ],
					"fontname" : "Arial Bold",
					"bgovercolor" : [ 0.698039, 0.698039, 0.698039, 0.0 ],
					"numoutlets" : 3,
					"background" : 1,
					"id" : "obj-232"
				}

			}
, 			{
				"box" : 				{
					"maxclass" : "textbutton",
					"textcolor" : [ 0.14902, 0.14902, 0.14902, 0.0 ],
					"presentation_rect" : [ 112.0, 80.0, 112.0, 64.0 ],
					"outlettype" : [ "", "", "int" ],
					"fontsize" : 10.0,
					"ignoreclick" : 1,
					"patching_rect" : [ 1464.0, 72.0, 128.0, 64.0 ],
					"bgcolor" : [ 0.74902, 0.74902, 0.74902, 0.0 ],
					"presentation" : 1,
					"border" : 1,
					"numinlets" : 1,
					"textovercolor" : [ 0.101961, 0.101961, 0.101961, 0.0 ],
					"fontname" : "Arial Bold",
					"bgovercolor" : [ 0.698039, 0.698039, 0.698039, 0.0 ],
					"numoutlets" : 3,
					"background" : 1,
					"id" : "obj-230"
				}

			}
, 			{
				"box" : 				{
					"maxclass" : "textbutton",
					"textcolor" : [ 0.14902, 0.14902, 0.14902, 0.0 ],
					"presentation_rect" : [ 112.0, 16.0, 112.0, 64.0 ],
					"outlettype" : [ "", "", "int" ],
					"fontsize" : 10.0,
					"ignoreclick" : 1,
					"patching_rect" : [ 1464.0, 8.0, 128.0, 64.0 ],
					"bgcolor" : [ 0.74902, 0.74902, 0.74902, 0.0 ],
					"presentation" : 1,
					"border" : 1,
					"numinlets" : 1,
					"textovercolor" : [ 0.101961, 0.101961, 0.101961, 0.0 ],
					"fontname" : "Arial Bold",
					"bgovercolor" : [ 0.698039, 0.698039, 0.698039, 0.0 ],
					"numoutlets" : 3,
					"background" : 1,
					"id" : "obj-231"
				}

			}
, 			{
				"box" : 				{
					"maxclass" : "textbutton",
					"textcolor" : [ 0.14902, 0.14902, 0.14902, 0.0 ],
					"presentation_rect" : [ 224.0, 16.0, 112.0, 64.0 ],
					"outlettype" : [ "", "", "int" ],
					"fontsize" : 10.0,
					"ignoreclick" : 1,
					"patching_rect" : [ 1328.0, 8.0, 136.0, 64.0 ],
					"bgcolor" : [ 0.74902, 0.74902, 0.74902, 0.0 ],
					"presentation" : 1,
					"border" : 1,
					"numinlets" : 1,
					"textovercolor" : [ 0.101961, 0.101961, 0.101961, 0.0 ],
					"fontname" : "Arial Bold",
					"bgovercolor" : [ 0.698039, 0.698039, 0.698039, 0.0 ],
					"numoutlets" : 3,
					"background" : 1,
					"id" : "obj-218"
				}

			}
, 			{
				"box" : 				{
					"maxclass" : "textbutton",
					"textcolor" : [ 0.14902, 0.14902, 0.14902, 0.0 ],
					"presentation_rect" : [ 224.0, 80.0, 112.0, 64.0 ],
					"outlettype" : [ "", "", "int" ],
					"fontsize" : 10.0,
					"ignoreclick" : 1,
					"patching_rect" : [ 1328.0, 72.0, 136.0, 64.0 ],
					"bgcolor" : [ 0.74902, 0.74902, 0.74902, 0.0 ],
					"presentation" : 1,
					"border" : 1,
					"numinlets" : 1,
					"textovercolor" : [ 0.101961, 0.101961, 0.101961, 0.0 ],
					"fontname" : "Arial Bold",
					"bgovercolor" : [ 0.698039, 0.698039, 0.698039, 0.0 ],
					"numoutlets" : 3,
					"background" : 1,
					"id" : "obj-219"
				}

			}
, 			{
				"box" : 				{
					"maxclass" : "textbutton",
					"textcolor" : [ 0.14902, 0.14902, 0.14902, 0.0 ],
					"presentation_rect" : [ 336.0, 80.0, 112.0, 64.0 ],
					"outlettype" : [ "", "", "int" ],
					"fontsize" : 10.0,
					"ignoreclick" : 1,
					"patching_rect" : [ 1464.0, 72.0, 128.0, 64.0 ],
					"bgcolor" : [ 0.74902, 0.74902, 0.74902, 0.0 ],
					"presentation" : 1,
					"border" : 1,
					"numinlets" : 1,
					"textovercolor" : [ 0.101961, 0.101961, 0.101961, 0.0 ],
					"fontname" : "Arial Bold",
					"bgovercolor" : [ 0.698039, 0.698039, 0.698039, 0.0 ],
					"numoutlets" : 3,
					"background" : 1,
					"id" : "obj-220"
				}

			}
, 			{
				"box" : 				{
					"maxclass" : "textbutton",
					"textcolor" : [ 0.14902, 0.14902, 0.14902, 0.0 ],
					"presentation_rect" : [ 336.0, 16.0, 112.0, 64.0 ],
					"outlettype" : [ "", "", "int" ],
					"fontsize" : 10.0,
					"ignoreclick" : 1,
					"patching_rect" : [ 1464.0, 8.0, 128.0, 64.0 ],
					"bgcolor" : [ 0.74902, 0.74902, 0.74902, 0.0 ],
					"presentation" : 1,
					"border" : 1,
					"numinlets" : 1,
					"textovercolor" : [ 0.101961, 0.101961, 0.101961, 0.0 ],
					"fontname" : "Arial Bold",
					"bgovercolor" : [ 0.698039, 0.698039, 0.698039, 0.0 ],
					"numoutlets" : 3,
					"background" : 1,
					"id" : "obj-221"
				}

			}
, 			{
				"box" : 				{
					"maxclass" : "textbutton",
					"textcolor" : [ 0.14902, 0.14902, 0.14902, 0.0 ],
					"presentation_rect" : [ 448.0, 16.0, 112.0, 64.0 ],
					"outlettype" : [ "", "", "int" ],
					"fontsize" : 10.0,
					"ignoreclick" : 1,
					"patching_rect" : [ 1328.0, 8.0, 136.0, 64.0 ],
					"bgcolor" : [ 0.74902, 0.74902, 0.74902, 0.0 ],
					"presentation" : 1,
					"border" : 1,
					"numinlets" : 1,
					"textovercolor" : [ 0.101961, 0.101961, 0.101961, 0.0 ],
					"fontname" : "Arial Bold",
					"bgovercolor" : [ 0.698039, 0.698039, 0.698039, 0.0 ],
					"numoutlets" : 3,
					"background" : 1,
					"id" : "obj-225"
				}

			}
, 			{
				"box" : 				{
					"maxclass" : "textbutton",
					"textcolor" : [ 0.14902, 0.14902, 0.14902, 0.0 ],
					"presentation_rect" : [ 448.0, 80.0, 112.0, 64.0 ],
					"outlettype" : [ "", "", "int" ],
					"fontsize" : 10.0,
					"ignoreclick" : 1,
					"patching_rect" : [ 1328.0, 72.0, 136.0, 64.0 ],
					"bgcolor" : [ 0.74902, 0.74902, 0.74902, 0.0 ],
					"presentation" : 1,
					"border" : 1,
					"numinlets" : 1,
					"textovercolor" : [ 0.101961, 0.101961, 0.101961, 0.0 ],
					"fontname" : "Arial Bold",
					"bgovercolor" : [ 0.698039, 0.698039, 0.698039, 0.0 ],
					"numoutlets" : 3,
					"background" : 1,
					"id" : "obj-224"
				}

			}
, 			{
				"box" : 				{
					"maxclass" : "textbutton",
					"textcolor" : [ 0.14902, 0.14902, 0.14902, 0.0 ],
					"presentation_rect" : [ 560.0, 80.0, 112.0, 64.0 ],
					"outlettype" : [ "", "", "int" ],
					"fontsize" : 10.0,
					"ignoreclick" : 1,
					"patching_rect" : [ 1464.0, 72.0, 128.0, 64.0 ],
					"bgcolor" : [ 0.74902, 0.74902, 0.74902, 0.0 ],
					"presentation" : 1,
					"border" : 1,
					"numinlets" : 1,
					"textovercolor" : [ 0.101961, 0.101961, 0.101961, 0.0 ],
					"fontname" : "Arial Bold",
					"bgovercolor" : [ 0.698039, 0.698039, 0.698039, 0.0 ],
					"numoutlets" : 3,
					"background" : 1,
					"id" : "obj-222"
				}

			}
, 			{
				"box" : 				{
					"maxclass" : "textbutton",
					"textcolor" : [ 0.14902, 0.14902, 0.14902, 0.0 ],
					"presentation_rect" : [ 560.0, 16.0, 112.0, 64.0 ],
					"outlettype" : [ "", "", "int" ],
					"fontsize" : 10.0,
					"ignoreclick" : 1,
					"patching_rect" : [ 1464.0, 8.0, 128.0, 64.0 ],
					"bgcolor" : [ 0.74902, 0.74902, 0.74902, 0.0 ],
					"presentation" : 1,
					"border" : 1,
					"numinlets" : 1,
					"textovercolor" : [ 0.101961, 0.101961, 0.101961, 0.0 ],
					"fontname" : "Arial Bold",
					"bgovercolor" : [ 0.698039, 0.698039, 0.698039, 0.0 ],
					"numoutlets" : 3,
					"background" : 1,
					"id" : "obj-223"
				}

			}
, 			{
				"box" : 				{
					"maxclass" : "textbutton",
					"textcolor" : [ 0.14902, 0.14902, 0.14902, 0.0 ],
					"presentation_rect" : [ 672.0, 16.0, 112.0, 64.0 ],
					"outlettype" : [ "", "", "int" ],
					"fontsize" : 10.0,
					"ignoreclick" : 1,
					"patching_rect" : [ 1328.0, 8.0, 136.0, 64.0 ],
					"bgcolor" : [ 0.74902, 0.74902, 0.74902, 0.0 ],
					"presentation" : 1,
					"border" : 1,
					"numinlets" : 1,
					"textovercolor" : [ 0.101961, 0.101961, 0.101961, 0.0 ],
					"fontname" : "Arial Bold",
					"bgovercolor" : [ 0.698039, 0.698039, 0.698039, 0.0 ],
					"numoutlets" : 3,
					"background" : 1,
					"id" : "obj-229"
				}

			}
, 			{
				"box" : 				{
					"maxclass" : "textbutton",
					"textcolor" : [ 0.14902, 0.14902, 0.14902, 0.0 ],
					"presentation_rect" : [ 672.0, 80.0, 112.0, 64.0 ],
					"outlettype" : [ "", "", "int" ],
					"fontsize" : 10.0,
					"ignoreclick" : 1,
					"patching_rect" : [ 1328.0, 72.0, 136.0, 64.0 ],
					"bgcolor" : [ 0.74902, 0.74902, 0.74902, 0.0 ],
					"presentation" : 1,
					"border" : 1,
					"numinlets" : 1,
					"textovercolor" : [ 0.101961, 0.101961, 0.101961, 0.0 ],
					"fontname" : "Arial Bold",
					"bgovercolor" : [ 0.698039, 0.698039, 0.698039, 0.0 ],
					"numoutlets" : 3,
					"background" : 1,
					"id" : "obj-228"
				}

			}
, 			{
				"box" : 				{
					"maxclass" : "textbutton",
					"textcolor" : [ 0.14902, 0.14902, 0.14902, 0.0 ],
					"presentation_rect" : [ 784.0, 80.0, 112.0, 64.0 ],
					"outlettype" : [ "", "", "int" ],
					"fontsize" : 10.0,
					"ignoreclick" : 1,
					"patching_rect" : [ 1464.0, 72.0, 128.0, 64.0 ],
					"bgcolor" : [ 0.74902, 0.74902, 0.74902, 0.0 ],
					"presentation" : 1,
					"border" : 1,
					"numinlets" : 1,
					"textovercolor" : [ 0.101961, 0.101961, 0.101961, 0.0 ],
					"fontname" : "Arial Bold",
					"bgovercolor" : [ 0.698039, 0.698039, 0.698039, 0.0 ],
					"numoutlets" : 3,
					"background" : 1,
					"id" : "obj-226"
				}

			}
, 			{
				"box" : 				{
					"maxclass" : "textbutton",
					"textcolor" : [ 0.14902, 0.14902, 0.14902, 0.0 ],
					"presentation_rect" : [ 784.0, 16.0, 112.0, 64.0 ],
					"outlettype" : [ "", "", "int" ],
					"fontsize" : 10.0,
					"ignoreclick" : 1,
					"patching_rect" : [ 1464.0, 8.0, 128.0, 64.0 ],
					"bgcolor" : [ 0.74902, 0.74902, 0.74902, 0.0 ],
					"presentation" : 1,
					"border" : 1,
					"numinlets" : 1,
					"textovercolor" : [ 0.101961, 0.101961, 0.101961, 0.0 ],
					"fontname" : "Arial Bold",
					"bgovercolor" : [ 0.698039, 0.698039, 0.698039, 0.0 ],
					"numoutlets" : 3,
					"background" : 1,
					"id" : "obj-227"
				}

			}
, 			{
				"box" : 				{
					"maxclass" : "textbutton",
					"textcolor" : [ 0.14902, 0.14902, 0.14902, 0.0 ],
					"presentation_rect" : [ 0.0, 16.0, 112.0, 64.0 ],
					"outlettype" : [ "", "", "int" ],
					"fontsize" : 10.0,
					"ignoreclick" : 1,
					"patching_rect" : [ 1328.0, 8.0, 136.0, 64.0 ],
					"bgcolor" : [ 0.74902, 0.74902, 0.74902, 0.0 ],
					"presentation" : 1,
					"border" : 1,
					"numinlets" : 1,
					"textovercolor" : [ 0.101961, 0.101961, 0.101961, 0.0 ],
					"fontname" : "Arial Bold",
					"bgovercolor" : [ 0.698039, 0.698039, 0.698039, 0.0 ],
					"numoutlets" : 3,
					"background" : 1,
					"id" : "obj-233"
				}

			}
, 			{
				"box" : 				{
					"maxclass" : "comment",
					"presentation_rect" : [ 48.0, 16.0, 128.0, 16.0 ],
					"fontface" : 1,
					"fontsize" : 8.0,
					"patching_rect" : [ 1328.0, 8.0, 264.0, 16.0 ],
					"bgcolor" : [ 0.047059, 0.913725, 0.913725, 1.0 ],
					"presentation" : 1,
					"numinlets" : 1,
					"fontname" : "Tahoma",
					"numoutlets" : 0,
					"background" : 1,
					"id" : "obj-36"
				}

			}
, 			{
				"box" : 				{
					"maxclass" : "comment",
					"presentation_rect" : [ 48.0, 48.0, 128.0, 16.0 ],
					"fontface" : 1,
					"fontsize" : 8.0,
					"patching_rect" : [ 1328.0, 40.0, 264.0, 16.0 ],
					"bgcolor" : [ 0.917647, 0.937255, 0.670588, 1.0 ],
					"presentation" : 1,
					"numinlets" : 1,
					"fontname" : "Tahoma",
					"numoutlets" : 0,
					"background" : 1,
					"id" : "obj-37"
				}

			}
, 			{
				"box" : 				{
					"maxclass" : "comment",
					"presentation_rect" : [ 48.0, 32.0, 128.0, 16.0 ],
					"fontface" : 1,
					"fontsize" : 8.0,
					"patching_rect" : [ 1328.0, 24.0, 264.0, 16.0 ],
					"bgcolor" : [ 0.545098, 0.85098, 0.592157, 1.0 ],
					"presentation" : 1,
					"numinlets" : 1,
					"fontname" : "Tahoma",
					"numoutlets" : 0,
					"background" : 1,
					"id" : "obj-101"
				}

			}
, 			{
				"box" : 				{
					"maxclass" : "comment",
					"presentation_rect" : [ 48.0, 64.0, 128.0, 16.0 ],
					"fontface" : 1,
					"fontsize" : 8.0,
					"patching_rect" : [ 1328.0, 56.0, 264.0, 16.0 ],
					"bgcolor" : [ 0.94902, 0.756863, 0.309804, 1.0 ],
					"presentation" : 1,
					"numinlets" : 1,
					"fontname" : "Tahoma",
					"numoutlets" : 0,
					"background" : 1,
					"id" : "obj-102"
				}

			}
, 			{
				"box" : 				{
					"maxclass" : "comment",
					"presentation_rect" : [ 48.0, 128.0, 128.0, 16.0 ],
					"fontface" : 1,
					"fontsize" : 8.0,
					"patching_rect" : [ 1328.0, 120.0, 264.0, 16.0 ],
					"bgcolor" : [ 0.94902, 0.756863, 0.309804, 1.0 ],
					"presentation" : 1,
					"numinlets" : 1,
					"fontname" : "Tahoma",
					"numoutlets" : 0,
					"background" : 1,
					"id" : "obj-103"
				}

			}
, 			{
				"box" : 				{
					"maxclass" : "comment",
					"presentation_rect" : [ 48.0, 96.0, 128.0, 16.0 ],
					"fontface" : 1,
					"fontsize" : 8.0,
					"patching_rect" : [ 1328.0, 88.0, 264.0, 16.0 ],
					"bgcolor" : [ 0.545098, 0.85098, 0.592157, 1.0 ],
					"presentation" : 1,
					"numinlets" : 1,
					"fontname" : "Tahoma",
					"numoutlets" : 0,
					"background" : 1,
					"id" : "obj-104"
				}

			}
, 			{
				"box" : 				{
					"maxclass" : "comment",
					"presentation_rect" : [ 48.0, 80.0, 128.0, 16.0 ],
					"fontface" : 1,
					"fontsize" : 8.0,
					"patching_rect" : [ 1328.0, 72.0, 264.0, 16.0 ],
					"bgcolor" : [ 0.047059, 0.913725, 0.913725, 1.0 ],
					"presentation" : 1,
					"numinlets" : 1,
					"fontname" : "Tahoma",
					"numoutlets" : 0,
					"background" : 1,
					"id" : "obj-105"
				}

			}
, 			{
				"box" : 				{
					"maxclass" : "comment",
					"presentation_rect" : [ 48.0, 112.0, 128.0, 16.0 ],
					"fontface" : 1,
					"fontsize" : 8.0,
					"patching_rect" : [ 1328.0, 104.0, 264.0, 16.0 ],
					"bgcolor" : [ 0.917647, 0.937255, 0.670588, 1.0 ],
					"presentation" : 1,
					"numinlets" : 1,
					"fontname" : "Tahoma",
					"numoutlets" : 0,
					"background" : 1,
					"id" : "obj-106"
				}

			}
, 			{
				"box" : 				{
					"maxclass" : "comment",
					"presentation_rect" : [ 272.0, 128.0, 128.0, 16.0 ],
					"fontface" : 1,
					"fontsize" : 8.0,
					"patching_rect" : [ 1328.0, 120.0, 264.0, 16.0 ],
					"bgcolor" : [ 0.94902, 0.756863, 0.309804, 1.0 ],
					"presentation" : 1,
					"numinlets" : 1,
					"fontname" : "Tahoma",
					"numoutlets" : 0,
					"background" : 1,
					"id" : "obj-107"
				}

			}
, 			{
				"box" : 				{
					"maxclass" : "comment",
					"presentation_rect" : [ 272.0, 96.0, 128.0, 16.0 ],
					"fontface" : 1,
					"fontsize" : 8.0,
					"patching_rect" : [ 1328.0, 88.0, 264.0, 16.0 ],
					"bgcolor" : [ 0.545098, 0.85098, 0.592157, 1.0 ],
					"presentation" : 1,
					"numinlets" : 1,
					"fontname" : "Tahoma",
					"numoutlets" : 0,
					"background" : 1,
					"id" : "obj-108"
				}

			}
, 			{
				"box" : 				{
					"maxclass" : "comment",
					"presentation_rect" : [ 272.0, 80.0, 128.0, 16.0 ],
					"fontface" : 1,
					"fontsize" : 8.0,
					"patching_rect" : [ 1328.0, 72.0, 264.0, 16.0 ],
					"bgcolor" : [ 0.047059, 0.913725, 0.913725, 1.0 ],
					"presentation" : 1,
					"numinlets" : 1,
					"fontname" : "Tahoma",
					"numoutlets" : 0,
					"background" : 1,
					"id" : "obj-109"
				}

			}
, 			{
				"box" : 				{
					"maxclass" : "comment",
					"presentation_rect" : [ 272.0, 112.0, 128.0, 16.0 ],
					"fontface" : 1,
					"fontsize" : 8.0,
					"patching_rect" : [ 1328.0, 104.0, 264.0, 16.0 ],
					"bgcolor" : [ 0.917647, 0.937255, 0.670588, 1.0 ],
					"presentation" : 1,
					"numinlets" : 1,
					"fontname" : "Tahoma",
					"numoutlets" : 0,
					"background" : 1,
					"id" : "obj-110"
				}

			}
, 			{
				"box" : 				{
					"maxclass" : "comment",
					"presentation_rect" : [ 272.0, 64.0, 128.0, 16.0 ],
					"fontface" : 1,
					"fontsize" : 8.0,
					"patching_rect" : [ 1328.0, 56.0, 264.0, 16.0 ],
					"bgcolor" : [ 0.94902, 0.756863, 0.309804, 1.0 ],
					"presentation" : 1,
					"numinlets" : 1,
					"fontname" : "Tahoma",
					"numoutlets" : 0,
					"background" : 1,
					"id" : "obj-111"
				}

			}
, 			{
				"box" : 				{
					"maxclass" : "comment",
					"presentation_rect" : [ 272.0, 32.0, 128.0, 16.0 ],
					"fontface" : 1,
					"fontsize" : 8.0,
					"patching_rect" : [ 1328.0, 24.0, 264.0, 16.0 ],
					"bgcolor" : [ 0.545098, 0.85098, 0.592157, 1.0 ],
					"presentation" : 1,
					"numinlets" : 1,
					"fontname" : "Tahoma",
					"numoutlets" : 0,
					"background" : 1,
					"id" : "obj-120"
				}

			}
, 			{
				"box" : 				{
					"maxclass" : "comment",
					"presentation_rect" : [ 272.0, 16.0, 128.0, 16.0 ],
					"fontface" : 1,
					"fontsize" : 8.0,
					"patching_rect" : [ 1328.0, 8.0, 264.0, 16.0 ],
					"bgcolor" : [ 0.047059, 0.913725, 0.913725, 1.0 ],
					"presentation" : 1,
					"numinlets" : 1,
					"fontname" : "Tahoma",
					"numoutlets" : 0,
					"background" : 1,
					"id" : "obj-121"
				}

			}
, 			{
				"box" : 				{
					"maxclass" : "comment",
					"presentation_rect" : [ 272.0, 48.0, 128.0, 16.0 ],
					"fontface" : 1,
					"fontsize" : 8.0,
					"patching_rect" : [ 1328.0, 40.0, 264.0, 16.0 ],
					"bgcolor" : [ 0.917647, 0.937255, 0.670588, 1.0 ],
					"presentation" : 1,
					"numinlets" : 1,
					"fontname" : "Tahoma",
					"numoutlets" : 0,
					"background" : 1,
					"id" : "obj-122"
				}

			}
, 			{
				"box" : 				{
					"maxclass" : "comment",
					"presentation_rect" : [ 496.0, 128.0, 128.0, 16.0 ],
					"fontface" : 1,
					"fontsize" : 8.0,
					"patching_rect" : [ 1328.0, 120.0, 264.0, 16.0 ],
					"bgcolor" : [ 0.94902, 0.756863, 0.309804, 1.0 ],
					"presentation" : 1,
					"numinlets" : 1,
					"fontname" : "Tahoma",
					"numoutlets" : 0,
					"background" : 1,
					"id" : "obj-123"
				}

			}
, 			{
				"box" : 				{
					"maxclass" : "comment",
					"presentation_rect" : [ 496.0, 96.0, 128.0, 16.0 ],
					"fontface" : 1,
					"fontsize" : 8.0,
					"patching_rect" : [ 1328.0, 88.0, 264.0, 16.0 ],
					"bgcolor" : [ 0.545098, 0.85098, 0.592157, 1.0 ],
					"presentation" : 1,
					"numinlets" : 1,
					"fontname" : "Tahoma",
					"numoutlets" : 0,
					"background" : 1,
					"id" : "obj-124"
				}

			}
, 			{
				"box" : 				{
					"maxclass" : "comment",
					"presentation_rect" : [ 496.0, 80.0, 128.0, 16.0 ],
					"fontface" : 1,
					"fontsize" : 8.0,
					"patching_rect" : [ 1328.0, 72.0, 264.0, 16.0 ],
					"bgcolor" : [ 0.047059, 0.913725, 0.913725, 1.0 ],
					"presentation" : 1,
					"numinlets" : 1,
					"fontname" : "Tahoma",
					"numoutlets" : 0,
					"background" : 1,
					"id" : "obj-125"
				}

			}
, 			{
				"box" : 				{
					"maxclass" : "comment",
					"presentation_rect" : [ 496.0, 112.0, 128.0, 16.0 ],
					"fontface" : 1,
					"fontsize" : 8.0,
					"patching_rect" : [ 1328.0, 104.0, 264.0, 16.0 ],
					"bgcolor" : [ 0.917647, 0.937255, 0.670588, 1.0 ],
					"presentation" : 1,
					"numinlets" : 1,
					"fontname" : "Tahoma",
					"numoutlets" : 0,
					"background" : 1,
					"id" : "obj-126"
				}

			}
, 			{
				"box" : 				{
					"maxclass" : "comment",
					"presentation_rect" : [ 496.0, 64.0, 128.0, 16.0 ],
					"fontface" : 1,
					"fontsize" : 8.0,
					"patching_rect" : [ 1328.0, 56.0, 264.0, 16.0 ],
					"bgcolor" : [ 0.94902, 0.756863, 0.309804, 1.0 ],
					"presentation" : 1,
					"numinlets" : 1,
					"fontname" : "Tahoma",
					"numoutlets" : 0,
					"background" : 1,
					"id" : "obj-127"
				}

			}
, 			{
				"box" : 				{
					"maxclass" : "comment",
					"presentation_rect" : [ 496.0, 32.0, 128.0, 16.0 ],
					"fontface" : 1,
					"fontsize" : 8.0,
					"patching_rect" : [ 1328.0, 24.0, 264.0, 16.0 ],
					"bgcolor" : [ 0.545098, 0.85098, 0.592157, 1.0 ],
					"presentation" : 1,
					"numinlets" : 1,
					"fontname" : "Tahoma",
					"numoutlets" : 0,
					"background" : 1,
					"id" : "obj-129"
				}

			}
, 			{
				"box" : 				{
					"maxclass" : "comment",
					"presentation_rect" : [ 496.0, 16.0, 128.0, 16.0 ],
					"fontface" : 1,
					"fontsize" : 8.0,
					"patching_rect" : [ 1328.0, 8.0, 264.0, 16.0 ],
					"bgcolor" : [ 0.047059, 0.913725, 0.913725, 1.0 ],
					"presentation" : 1,
					"numinlets" : 1,
					"fontname" : "Tahoma",
					"numoutlets" : 0,
					"background" : 1,
					"id" : "obj-130"
				}

			}
, 			{
				"box" : 				{
					"maxclass" : "comment",
					"presentation_rect" : [ 496.0, 48.0, 128.0, 16.0 ],
					"fontface" : 1,
					"fontsize" : 8.0,
					"patching_rect" : [ 1328.0, 40.0, 264.0, 16.0 ],
					"bgcolor" : [ 0.917647, 0.937255, 0.670588, 1.0 ],
					"presentation" : 1,
					"numinlets" : 1,
					"fontname" : "Tahoma",
					"numoutlets" : 0,
					"background" : 1,
					"id" : "obj-131"
				}

			}
, 			{
				"box" : 				{
					"maxclass" : "comment",
					"presentation_rect" : [ 720.0, 128.0, 128.0, 16.0 ],
					"fontface" : 1,
					"fontsize" : 8.0,
					"patching_rect" : [ 1328.0, 120.0, 264.0, 16.0 ],
					"bgcolor" : [ 0.94902, 0.756863, 0.309804, 1.0 ],
					"presentation" : 1,
					"numinlets" : 1,
					"fontname" : "Tahoma",
					"numoutlets" : 0,
					"background" : 1,
					"id" : "obj-132"
				}

			}
, 			{
				"box" : 				{
					"maxclass" : "comment",
					"presentation_rect" : [ 720.0, 96.0, 128.0, 16.0 ],
					"fontface" : 1,
					"fontsize" : 8.0,
					"patching_rect" : [ 1328.0, 88.0, 264.0, 16.0 ],
					"bgcolor" : [ 0.545098, 0.85098, 0.592157, 1.0 ],
					"presentation" : 1,
					"numinlets" : 1,
					"fontname" : "Tahoma",
					"numoutlets" : 0,
					"background" : 1,
					"id" : "obj-157"
				}

			}
, 			{
				"box" : 				{
					"maxclass" : "comment",
					"presentation_rect" : [ 720.0, 80.0, 128.0, 16.0 ],
					"fontface" : 1,
					"fontsize" : 8.0,
					"patching_rect" : [ 1328.0, 72.0, 264.0, 16.0 ],
					"bgcolor" : [ 0.047059, 0.913725, 0.913725, 1.0 ],
					"presentation" : 1,
					"numinlets" : 1,
					"fontname" : "Tahoma",
					"numoutlets" : 0,
					"background" : 1,
					"id" : "obj-160"
				}

			}
, 			{
				"box" : 				{
					"maxclass" : "comment",
					"presentation_rect" : [ 720.0, 112.0, 128.0, 16.0 ],
					"fontface" : 1,
					"fontsize" : 8.0,
					"patching_rect" : [ 1328.0, 104.0, 264.0, 16.0 ],
					"bgcolor" : [ 0.917647, 0.937255, 0.670588, 1.0 ],
					"presentation" : 1,
					"numinlets" : 1,
					"fontname" : "Tahoma",
					"numoutlets" : 0,
					"background" : 1,
					"id" : "obj-162"
				}

			}
, 			{
				"box" : 				{
					"maxclass" : "comment",
					"presentation_rect" : [ 720.0, 64.0, 128.0, 16.0 ],
					"fontface" : 1,
					"fontsize" : 8.0,
					"patching_rect" : [ 1328.0, 56.0, 264.0, 16.0 ],
					"bgcolor" : [ 0.94902, 0.756863, 0.309804, 1.0 ],
					"presentation" : 1,
					"numinlets" : 1,
					"fontname" : "Tahoma",
					"numoutlets" : 0,
					"background" : 1,
					"id" : "obj-164"
				}

			}
, 			{
				"box" : 				{
					"maxclass" : "comment",
					"presentation_rect" : [ 720.0, 32.0, 128.0, 16.0 ],
					"fontface" : 1,
					"fontsize" : 8.0,
					"patching_rect" : [ 1328.0, 24.0, 264.0, 16.0 ],
					"bgcolor" : [ 0.545098, 0.85098, 0.592157, 1.0 ],
					"presentation" : 1,
					"numinlets" : 1,
					"fontname" : "Tahoma",
					"numoutlets" : 0,
					"background" : 1,
					"id" : "obj-166"
				}

			}
, 			{
				"box" : 				{
					"maxclass" : "comment",
					"presentation_rect" : [ 720.0, 16.0, 128.0, 16.0 ],
					"fontface" : 1,
					"fontsize" : 8.0,
					"patching_rect" : [ 1328.0, 8.0, 264.0, 16.0 ],
					"bgcolor" : [ 0.047059, 0.913725, 0.913725, 1.0 ],
					"presentation" : 1,
					"numinlets" : 1,
					"fontname" : "Tahoma",
					"numoutlets" : 0,
					"background" : 1,
					"id" : "obj-168"
				}

			}
, 			{
				"box" : 				{
					"maxclass" : "comment",
					"presentation_rect" : [ 720.0, 48.0, 128.0, 16.0 ],
					"fontface" : 1,
					"fontsize" : 8.0,
					"patching_rect" : [ 1328.0, 40.0, 264.0, 16.0 ],
					"bgcolor" : [ 0.917647, 0.937255, 0.670588, 1.0 ],
					"presentation" : 1,
					"numinlets" : 1,
					"fontname" : "Tahoma",
					"numoutlets" : 0,
					"background" : 1,
					"id" : "obj-169"
				}

			}
 ],
		"lines" : [ 			{
				"patchline" : 				{
					"source" : [ "obj-1", 0 ],
					"destination" : [ "obj-6", 0 ],
					"hidden" : 0,
					"midpoints" : [ 17.5, 44.5, 169.5, 44.5 ]
				}

			}
, 			{
				"patchline" : 				{
					"source" : [ "obj-1", 0 ],
					"destination" : [ "obj-113", 0 ],
					"hidden" : 0,
					"color" : [ 0.239216, 0.643137, 0.709804, 1.0 ],
					"midpoints" : [  ]
				}

			}
, 			{
				"patchline" : 				{
					"source" : [ "obj-50", 0 ],
					"destination" : [ "obj-10", 0 ],
					"hidden" : 0,
					"midpoints" : [  ]
				}

			}
, 			{
				"patchline" : 				{
					"source" : [ "obj-5", 0 ],
					"destination" : [ "obj-10", 1 ],
					"hidden" : 0,
					"color" : [ 0.917647, 0.937255, 0.670588, 1.0 ],
					"midpoints" : [  ]
				}

			}
, 			{
				"patchline" : 				{
					"source" : [ "obj-10", 0 ],
					"destination" : [ "obj-11", 0 ],
					"hidden" : 0,
					"midpoints" : [  ]
				}

			}
, 			{
				"patchline" : 				{
					"source" : [ "obj-9", 0 ],
					"destination" : [ "obj-5", 0 ],
					"hidden" : 0,
					"midpoints" : [  ]
				}

			}
, 			{
				"patchline" : 				{
					"source" : [ "obj-3", 0 ],
					"destination" : [ "obj-9", 0 ],
					"hidden" : 0,
					"midpoints" : [  ]
				}

			}
, 			{
				"patchline" : 				{
					"source" : [ "obj-8", 0 ],
					"destination" : [ "obj-9", 0 ],
					"hidden" : 0,
					"midpoints" : [  ]
				}

			}
, 			{
				"patchline" : 				{
					"source" : [ "obj-6", 0 ],
					"destination" : [ "obj-3", 0 ],
					"hidden" : 0,
					"midpoints" : [  ]
				}

			}
, 			{
				"patchline" : 				{
					"source" : [ "obj-161", 0 ],
					"destination" : [ "obj-159", 0 ],
					"hidden" : 0,
					"midpoints" : [  ]
				}

			}
, 			{
				"patchline" : 				{
					"source" : [ "obj-113", 0 ],
					"destination" : [ "obj-112", 0 ],
					"hidden" : 0,
					"color" : [ 0.501961, 0.717647, 0.764706, 1.0 ],
					"midpoints" : [ 17.5, 232.0, 337.5, 232.0 ]
				}

			}
, 			{
				"patchline" : 				{
					"source" : [ "obj-113", 0 ],
					"destination" : [ "obj-142", 0 ],
					"hidden" : 0,
					"color" : [ 0.501961, 0.717647, 0.764706, 1.0 ],
					"midpoints" : [ 17.5, 232.5, 761.5, 232.5 ]
				}

			}
, 			{
				"patchline" : 				{
					"source" : [ "obj-113", 0 ],
					"destination" : [ "obj-143", 0 ],
					"hidden" : 0,
					"color" : [ 0.501961, 0.717647, 0.764706, 1.0 ],
					"midpoints" : [ 17.5, 232.5, 705.5, 232.5 ]
				}

			}
, 			{
				"patchline" : 				{
					"source" : [ "obj-113", 0 ],
					"destination" : [ "obj-150", 0 ],
					"hidden" : 0,
					"color" : [ 0.501961, 0.717647, 0.764706, 1.0 ],
					"midpoints" : [ 17.5, 232.5, 649.5, 232.5 ]
				}

			}
, 			{
				"patchline" : 				{
					"source" : [ "obj-113", 0 ],
					"destination" : [ "obj-151", 0 ],
					"hidden" : 0,
					"color" : [ 0.501961, 0.717647, 0.764706, 1.0 ],
					"midpoints" : [ 17.5, 232.5, 593.5, 232.5 ]
				}

			}
, 			{
				"patchline" : 				{
					"source" : [ "obj-113", 0 ],
					"destination" : [ "obj-134", 0 ],
					"hidden" : 0,
					"color" : [ 0.501961, 0.717647, 0.764706, 1.0 ],
					"midpoints" : [ 17.5, 232.5, 537.5, 232.5 ]
				}

			}
, 			{
				"patchline" : 				{
					"source" : [ "obj-113", 0 ],
					"destination" : [ "obj-135", 0 ],
					"hidden" : 0,
					"color" : [ 0.501961, 0.717647, 0.764706, 1.0 ],
					"midpoints" : [ 17.5, 232.5, 481.5, 232.5 ]
				}

			}
, 			{
				"patchline" : 				{
					"source" : [ "obj-113", 0 ],
					"destination" : [ "obj-146", 0 ],
					"hidden" : 0,
					"color" : [ 0.501961, 0.717647, 0.764706, 1.0 ],
					"midpoints" : [ 17.5, 232.5, 729.5, 232.5 ]
				}

			}
, 			{
				"patchline" : 				{
					"source" : [ "obj-113", 0 ],
					"destination" : [ "obj-148", 0 ],
					"hidden" : 0,
					"color" : [ 0.501961, 0.717647, 0.764706, 1.0 ],
					"midpoints" : [ 17.5, 232.5, 673.5, 232.5 ]
				}

			}
, 			{
				"patchline" : 				{
					"source" : [ "obj-113", 0 ],
					"destination" : [ "obj-154", 0 ],
					"hidden" : 0,
					"color" : [ 0.501961, 0.717647, 0.764706, 1.0 ],
					"midpoints" : [ 17.5, 232.5, 617.5, 232.5 ]
				}

			}
, 			{
				"patchline" : 				{
					"source" : [ "obj-113", 0 ],
					"destination" : [ "obj-156", 0 ],
					"hidden" : 0,
					"color" : [ 0.501961, 0.717647, 0.764706, 1.0 ],
					"midpoints" : [ 17.5, 232.5, 561.5, 232.5 ]
				}

			}
, 			{
				"patchline" : 				{
					"source" : [ "obj-113", 0 ],
					"destination" : [ "obj-138", 0 ],
					"hidden" : 0,
					"color" : [ 0.501961, 0.717647, 0.764706, 1.0 ],
					"midpoints" : [ 17.5, 232.5, 505.5, 232.5 ]
				}

			}
, 			{
				"patchline" : 				{
					"source" : [ "obj-113", 0 ],
					"destination" : [ "obj-140", 0 ],
					"hidden" : 0,
					"color" : [ 0.501961, 0.717647, 0.764706, 1.0 ],
					"midpoints" : [ 17.5, 232.5, 449.5, 232.5 ]
				}

			}
, 			{
				"patchline" : 				{
					"source" : [ "obj-113", 0 ],
					"destination" : [ "obj-118", 0 ],
					"hidden" : 0,
					"color" : [ 0.501961, 0.717647, 0.764706, 1.0 ],
					"midpoints" : [ 17.5, 232.5, 425.5, 232.5 ]
				}

			}
, 			{
				"patchline" : 				{
					"source" : [ "obj-113", 0 ],
					"destination" : [ "obj-119", 0 ],
					"hidden" : 0,
					"color" : [ 0.501961, 0.717647, 0.764706, 1.0 ],
					"midpoints" : [ 17.5, 232.5, 369.5, 232.5 ]
				}

			}
, 			{
				"patchline" : 				{
					"source" : [ "obj-113", 0 ],
					"destination" : [ "obj-115", 0 ],
					"hidden" : 0,
					"color" : [ 0.501961, 0.717647, 0.764706, 1.0 ],
					"midpoints" : [ 17.5, 232.5, 393.5, 232.5 ]
				}

			}
, 			{
				"patchline" : 				{
					"source" : [ "obj-113", 1 ],
					"destination" : [ "obj-13", 0 ],
					"hidden" : 0,
					"color" : [ 0.239216, 0.643137, 0.709804, 1.0 ],
					"midpoints" : [  ]
				}

			}
, 			{
				"patchline" : 				{
					"source" : [ "obj-6", 1 ],
					"destination" : [ "obj-8", 0 ],
					"hidden" : 0,
					"midpoints" : [  ]
				}

			}
, 			{
				"patchline" : 				{
					"source" : [ "obj-5", 0 ],
					"destination" : [ "obj-14", 0 ],
					"hidden" : 0,
					"midpoints" : [  ]
				}

			}
, 			{
				"patchline" : 				{
					"source" : [ "obj-14", 0 ],
					"destination" : [ "obj-10", 1 ],
					"hidden" : 0,
					"color" : [ 0.917647, 0.937255, 0.670588, 1.0 ],
					"midpoints" : [  ]
				}

			}
, 			{
				"patchline" : 				{
					"source" : [ "obj-13", 0 ],
					"destination" : [ "obj-87", 0 ],
					"hidden" : 0,
					"midpoints" : [  ]
				}

			}
, 			{
				"patchline" : 				{
					"source" : [ "obj-167", 0 ],
					"destination" : [ "obj-87", 0 ],
					"hidden" : 0,
					"midpoints" : [  ]
				}

			}
, 			{
				"patchline" : 				{
					"source" : [ "obj-165", 0 ],
					"destination" : [ "obj-87", 0 ],
					"hidden" : 0,
					"midpoints" : [  ]
				}

			}
, 			{
				"patchline" : 				{
					"source" : [ "obj-163", 0 ],
					"destination" : [ "obj-87", 0 ],
					"hidden" : 0,
					"midpoints" : [  ]
				}

			}
, 			{
				"patchline" : 				{
					"source" : [ "obj-159", 0 ],
					"destination" : [ "obj-87", 0 ],
					"hidden" : 0,
					"midpoints" : [  ]
				}

			}
, 			{
				"patchline" : 				{
					"source" : [ "obj-158", 0 ],
					"destination" : [ "obj-87", 0 ],
					"hidden" : 0,
					"midpoints" : [  ]
				}

			}
, 			{
				"patchline" : 				{
					"source" : [ "obj-86", 0 ],
					"destination" : [ "obj-114", 1 ],
					"hidden" : 0,
					"midpoints" : [ 785.5, 267.5, 414.5, 267.5 ]
				}

			}
, 			{
				"patchline" : 				{
					"source" : [ "obj-115", 0 ],
					"destination" : [ "obj-114", 0 ],
					"hidden" : 0,
					"midpoints" : [  ]
				}

			}
, 			{
				"patchline" : 				{
					"source" : [ "obj-119", 0 ],
					"destination" : [ "obj-117", 0 ],
					"hidden" : 0,
					"midpoints" : [  ]
				}

			}
, 			{
				"patchline" : 				{
					"source" : [ "obj-86", 0 ],
					"destination" : [ "obj-117", 1 ],
					"hidden" : 0,
					"midpoints" : [ 785.5, 355.5, 390.5, 355.5 ]
				}

			}
, 			{
				"patchline" : 				{
					"source" : [ "obj-118", 0 ],
					"destination" : [ "obj-116", 0 ],
					"hidden" : 0,
					"midpoints" : [  ]
				}

			}
, 			{
				"patchline" : 				{
					"source" : [ "obj-86", 0 ],
					"destination" : [ "obj-116", 1 ],
					"hidden" : 0,
					"midpoints" : [ 785.5, 355.5, 446.5, 355.5 ]
				}

			}
, 			{
				"patchline" : 				{
					"source" : [ "obj-112", 0 ],
					"destination" : [ "obj-128", 0 ],
					"hidden" : 0,
					"midpoints" : [  ]
				}

			}
, 			{
				"patchline" : 				{
					"source" : [ "obj-86", 0 ],
					"destination" : [ "obj-128", 1 ],
					"hidden" : 0,
					"midpoints" : [ 785.5, 267.5, 358.5, 267.5 ]
				}

			}
, 			{
				"patchline" : 				{
					"source" : [ "obj-138", 0 ],
					"destination" : [ "obj-139", 0 ],
					"hidden" : 0,
					"midpoints" : [  ]
				}

			}
, 			{
				"patchline" : 				{
					"source" : [ "obj-86", 0 ],
					"destination" : [ "obj-139", 1 ],
					"hidden" : 0,
					"midpoints" : [ 785.5, 267.5, 526.5, 267.5 ]
				}

			}
, 			{
				"patchline" : 				{
					"source" : [ "obj-135", 0 ],
					"destination" : [ "obj-137", 0 ],
					"hidden" : 0,
					"midpoints" : [  ]
				}

			}
, 			{
				"patchline" : 				{
					"source" : [ "obj-86", 0 ],
					"destination" : [ "obj-137", 1 ],
					"hidden" : 0,
					"midpoints" : [ 785.5, 355.5, 502.5, 355.5 ]
				}

			}
, 			{
				"patchline" : 				{
					"source" : [ "obj-134", 0 ],
					"destination" : [ "obj-136", 0 ],
					"hidden" : 0,
					"midpoints" : [  ]
				}

			}
, 			{
				"patchline" : 				{
					"source" : [ "obj-86", 0 ],
					"destination" : [ "obj-136", 1 ],
					"hidden" : 0,
					"midpoints" : [ 785.5, 355.5, 558.5, 355.5 ]
				}

			}
, 			{
				"patchline" : 				{
					"source" : [ "obj-86", 0 ],
					"destination" : [ "obj-133", 1 ],
					"hidden" : 0,
					"midpoints" : [ 785.5, 267.5, 470.5, 267.5 ]
				}

			}
, 			{
				"patchline" : 				{
					"source" : [ "obj-140", 0 ],
					"destination" : [ "obj-133", 0 ],
					"hidden" : 0,
					"midpoints" : [  ]
				}

			}
, 			{
				"patchline" : 				{
					"source" : [ "obj-154", 0 ],
					"destination" : [ "obj-155", 0 ],
					"hidden" : 0,
					"midpoints" : [  ]
				}

			}
, 			{
				"patchline" : 				{
					"source" : [ "obj-86", 0 ],
					"destination" : [ "obj-155", 1 ],
					"hidden" : 0,
					"midpoints" : [ 785.5, 267.5, 638.5, 267.5 ]
				}

			}
, 			{
				"patchline" : 				{
					"source" : [ "obj-151", 0 ],
					"destination" : [ "obj-153", 0 ],
					"hidden" : 0,
					"midpoints" : [  ]
				}

			}
, 			{
				"patchline" : 				{
					"source" : [ "obj-86", 0 ],
					"destination" : [ "obj-153", 1 ],
					"hidden" : 0,
					"midpoints" : [ 785.5, 355.5, 614.5, 355.5 ]
				}

			}
, 			{
				"patchline" : 				{
					"source" : [ "obj-150", 0 ],
					"destination" : [ "obj-152", 0 ],
					"hidden" : 0,
					"midpoints" : [  ]
				}

			}
, 			{
				"patchline" : 				{
					"source" : [ "obj-86", 0 ],
					"destination" : [ "obj-152", 1 ],
					"hidden" : 0,
					"midpoints" : [ 785.5, 355.5, 670.5, 355.5 ]
				}

			}
, 			{
				"patchline" : 				{
					"source" : [ "obj-156", 0 ],
					"destination" : [ "obj-149", 0 ],
					"hidden" : 0,
					"midpoints" : [  ]
				}

			}
, 			{
				"patchline" : 				{
					"source" : [ "obj-86", 0 ],
					"destination" : [ "obj-149", 1 ],
					"hidden" : 0,
					"midpoints" : [ 785.5, 267.5, 582.5, 267.5 ]
				}

			}
, 			{
				"patchline" : 				{
					"source" : [ "obj-146", 0 ],
					"destination" : [ "obj-147", 0 ],
					"hidden" : 0,
					"midpoints" : [  ]
				}

			}
, 			{
				"patchline" : 				{
					"source" : [ "obj-86", 0 ],
					"destination" : [ "obj-147", 1 ],
					"hidden" : 0,
					"midpoints" : [ 785.5, 267.5, 750.5, 267.5 ]
				}

			}
, 			{
				"patchline" : 				{
					"source" : [ "obj-86", 0 ],
					"destination" : [ "obj-145", 1 ],
					"hidden" : 0,
					"midpoints" : [ 785.5, 355.5, 726.5, 355.5 ]
				}

			}
, 			{
				"patchline" : 				{
					"source" : [ "obj-143", 0 ],
					"destination" : [ "obj-145", 0 ],
					"hidden" : 0,
					"midpoints" : [  ]
				}

			}
, 			{
				"patchline" : 				{
					"source" : [ "obj-142", 0 ],
					"destination" : [ "obj-144", 0 ],
					"hidden" : 0,
					"midpoints" : [  ]
				}

			}
, 			{
				"patchline" : 				{
					"source" : [ "obj-86", 0 ],
					"destination" : [ "obj-144", 1 ],
					"hidden" : 0,
					"midpoints" : [ 785.5, 355.5, 782.5, 355.5 ]
				}

			}
, 			{
				"patchline" : 				{
					"source" : [ "obj-148", 0 ],
					"destination" : [ "obj-141", 0 ],
					"hidden" : 0,
					"midpoints" : [  ]
				}

			}
, 			{
				"patchline" : 				{
					"source" : [ "obj-86", 0 ],
					"destination" : [ "obj-141", 1 ],
					"hidden" : 0,
					"midpoints" : [ 785.5, 267.5, 694.5, 267.5 ]
				}

			}
 ],
		"parameters" : 		{
			"obj-139::obj-8" : [ "button-4[11]", "button-4[11]", 0 ],
			"obj-117::obj-7" : [ "button-3[14]", "button-3[14]", 0 ],
			"obj-152::obj-8" : [ "button-4[5]", "button-4[5]", 0 ],
			"obj-153::obj-7" : [ "button-3[6]", "button-3[6]", 0 ],
			"obj-136::obj-8" : [ "button-4[9]", "button-4[9]", 0 ],
			"obj-145::obj-8" : [ "button-4[2]", "button-4[2]", 0 ],
			"obj-137::obj-8" : [ "button-4[10]", "button-4[10]", 0 ],
			"obj-149::obj-7" : [ "button-3[4]", "button-3[4]", 0 ],
			"obj-141::obj-8" : [ "button-4", "button-4", 0 ],
			"obj-149::obj-101" : [ "live.toggle[4]", "live.toggle", 0 ],
			"obj-114::obj-101" : [ "live.toggle[15]", "live.toggle", 0 ],
			"obj-155::obj-8" : [ "button-4[7]", "button-4[7]", 0 ],
			"obj-117::obj-101" : [ "live.toggle[14]", "live.toggle", 0 ],
			"obj-86::obj-82" : [ "live.text[6]", "live.text", 0 ],
			"obj-144::obj-7" : [ "button-3[1]", "button-3[1]", 0 ],
			"obj-147::obj-8" : [ "button-4[3]", "button-4[3]", 0 ],
			"obj-86::obj-83" : [ "live.text[7]", "live.text", 0 ],
			"obj-117::obj-8" : [ "button-4[14]", "button-4[14]", 0 ],
			"obj-152::obj-7" : [ "button-3[5]", "button-3[5]", 0 ],
			"obj-153::obj-5" : [ "button-2[6]", "button-2[6]", 0 ],
			"obj-136::obj-5" : [ "button-2[9]", "button-2[9]", 0 ],
			"obj-152::obj-101" : [ "live.toggle[5]", "live.toggle", 0 ],
			"obj-136::obj-101" : [ "live.toggle[9]", "live.toggle", 0 ],
			"obj-137::obj-101" : [ "live.toggle[10]", "live.toggle", 0 ],
			"obj-149::obj-3" : [ "button-1[4]", "button-1[4]", 0 ],
			"obj-155::obj-7" : [ "button-3[7]", "button-3[7]", 0 ],
			"obj-117::obj-3" : [ "button-1[14]", "button-1[14]", 0 ],
			"obj-147::obj-101" : [ "live.toggle[3]", "live.toggle", 0 ],
			"obj-139::obj-5" : [ "button-2[11]", "button-2[11]", 0 ],
			"obj-145::obj-7" : [ "button-3[2]", "button-3[2]", 0 ],
			"obj-153::obj-101" : [ "live.toggle[6]", "live.toggle", 0 ],
			"obj-152::obj-5" : [ "button-2[5]", "button-2[5]", 0 ],
			"obj-153::obj-8" : [ "button-4[6]", "button-4[6]", 0 ],
			"obj-136::obj-3" : [ "button-1[9]", "button-1[9]", 0 ],
			"obj-116::obj-101" : [ "live.toggle[13]", "live.toggle", 0 ],
			"obj-144::obj-101" : [ "live.toggle[1]", "live.toggle", 0 ],
			"obj-133::obj-7" : [ "button-3[8]", "button-3[8]", 0 ],
			"obj-128::obj-7" : [ "button-3[12]", "button-3[12]", 0 ],
			"obj-128::obj-3" : [ "button-1[12]", "button-1[12]", 0 ],
			"obj-141::obj-3" : [ "button-1", "button-1", 0 ],
			"obj-144::obj-8" : [ "button-4[1]", "button-4[1]", 0 ],
			"obj-147::obj-3" : [ "button-1[3]", "button-1[3]", 0 ],
			"obj-155::obj-5" : [ "button-2[7]", "button-2[7]", 0 ],
			"obj-117::obj-5" : [ "button-2[14]", "button-2[14]", 0 ],
			"obj-139::obj-3" : [ "button-1[11]", "button-1[11]", 0 ],
			"obj-145::obj-5" : [ "button-2[2]", "button-2[2]", 0 ],
			"obj-116::obj-5" : [ "button-2[13]", "button-2[13]", 0 ],
			"obj-145::obj-3" : [ "button-1[2]", "button-1[2]", 0 ],
			"obj-153::obj-3" : [ "button-1[6]", "button-1[6]", 0 ],
			"obj-137::obj-5" : [ "button-2[10]", "button-2[10]", 0 ],
			"obj-116::obj-8" : [ "button-4[13]", "button-4[13]", 0 ],
			"obj-149::obj-5" : [ "button-2[4]", "button-2[4]", 0 ],
			"obj-133::obj-5" : [ "button-2[8]", "button-2[8]", 0 ],
			"obj-128::obj-5" : [ "button-2[12]", "button-2[12]", 0 ],
			"obj-114::obj-8" : [ "button-4[15]", "button-4[15]", 0 ],
			"obj-133::obj-8" : [ "button-4[8]", "button-4[8]", 0 ],
			"obj-128::obj-8" : [ "button-4[12]", "button-4[12]", 0 ],
			"obj-114::obj-7" : [ "button-3[15]", "button-3[15]", 0 ],
			"obj-141::obj-5" : [ "button-2", "button-2", 0 ],
			"obj-144::obj-5" : [ "button-2[1]", "button-2[1]", 0 ],
			"obj-147::obj-7" : [ "button-3[3]", "button-3[3]", 0 ],
			"obj-155::obj-3" : [ "button-1[7]", "button-1[7]", 0 ],
			"obj-139::obj-7" : [ "button-3[11]", "button-3[11]", 0 ],
			"obj-139::obj-101" : [ "live.toggle[11]", "live.toggle", 0 ],
			"obj-141::obj-101" : [ "live.toggle[16]", "live.toggle", 0 ],
			"obj-152::obj-3" : [ "button-1[5]", "button-1[5]", 0 ],
			"obj-136::obj-7" : [ "button-3[9]", "button-3[9]", 0 ],
			"obj-137::obj-7" : [ "button-3[10]", "button-3[10]", 0 ],
			"obj-116::obj-3" : [ "button-1[13]", "button-1[13]", 0 ],
			"obj-145::obj-101" : [ "live.toggle[2]", "live.toggle", 0 ],
			"obj-137::obj-3" : [ "button-1[10]", "button-1[10]", 0 ],
			"obj-116::obj-7" : [ "button-3[13]", "button-3[13]", 0 ],
			"obj-149::obj-8" : [ "button-4[4]", "button-4[4]", 0 ],
			"obj-133::obj-3" : [ "button-1[8]", "button-1[8]", 0 ],
			"obj-114::obj-3" : [ "button-1[15]", "button-1[15]", 0 ],
			"obj-133::obj-101" : [ "live.toggle[8]", "live.toggle", 0 ],
			"obj-128::obj-101" : [ "live.toggle[12]", "live.toggle", 0 ],
			"obj-114::obj-5" : [ "button-2[15]", "button-2[15]", 0 ],
			"obj-141::obj-7" : [ "button-3", "button-3", 0 ],
			"obj-86::obj-80" : [ "live.text[4]", "live.text", 0 ],
			"obj-144::obj-3" : [ "button-1[1]", "button-1[1]", 0 ],
			"obj-147::obj-5" : [ "button-2[3]", "button-2[3]", 0 ],
			"obj-155::obj-101" : [ "live.toggle[7]", "live.toggle", 0 ],
			"obj-86::obj-81" : [ "live.text[5]", "live.text", 0 ]
		}

	}

}
