{
	"patcher" : 	{
		"fileversion" : 1,
		"rect" : [ -2.0, 48.0, 414.0, 480.0 ],
		"bglocked" : 0,
		"defrect" : [ -2.0, 48.0, 414.0, 480.0 ],
		"openrect" : [ 0.0, 0.0, 0.0, 0.0 ],
		"openinpresentation" : 0,
		"default_fontsize" : 10.0,
		"default_fontface" : 0,
		"default_fontname" : "Arial Bold",
		"gridonopen" : 0,
		"gridsize" : [ 4.0, 4.0 ],
		"gridsnaponopen" : 0,
		"toolbarvisible" : 1,
		"boxanimatetime" : 200,
		"imprint" : 0,
		"enablehscroll" : 1,
		"enablevscroll" : 1,
		"devicewidth" : 0.0,
		"boxes" : [ 			{
				"box" : 				{
					"maxclass" : "newobj",
					"text" : "prepend clip_slots :",
					"numinlets" : 1,
					"numoutlets" : 1,
					"fontsize" : 10.0,
					"outlettype" : [ "" ],
					"patching_rect" : [ 32.0, 240.0, 105.0, 18.0 ],
					"id" : "obj-16",
					"fontname" : "Arial Bold"
				}

			}
, 			{
				"box" : 				{
					"maxclass" : "newobj",
					"text" : "prepend selected_scene :",
					"numinlets" : 1,
					"numoutlets" : 1,
					"fontsize" : 10.0,
					"outlettype" : [ "" ],
					"patching_rect" : [ 28.0, 156.0, 133.0, 18.0 ],
					"id" : "obj-15",
					"fontname" : "Arial Bold"
				}

			}
, 			{
				"box" : 				{
					"maxclass" : "newobj",
					"text" : "prepend live_set.view :",
					"numinlets" : 1,
					"numoutlets" : 1,
					"fontsize" : 10.0,
					"outlettype" : [ "" ],
					"patching_rect" : [ 20.0, 96.0, 120.0, 18.0 ],
					"id" : "obj-14",
					"fontname" : "Arial Bold"
				}

			}
, 			{
				"box" : 				{
					"maxclass" : "message",
					"text" : "id 0",
					"numinlets" : 2,
					"bgcolor" : [ 0.976471, 0.823529, 0.054902, 1.0 ],
					"numoutlets" : 1,
					"fontsize" : 10.0,
					"outlettype" : [ "" ],
					"patching_rect" : [ 300.0, 116.0, 32.5, 16.0 ],
					"id" : "obj-13",
					"fontname" : "Arial Bold"
				}

			}
, 			{
				"box" : 				{
					"maxclass" : "newobj",
					"text" : "gate",
					"numinlets" : 2,
					"numoutlets" : 1,
					"fontsize" : 10.0,
					"outlettype" : [ "" ],
					"patching_rect" : [ 4.0, 280.0, 35.0, 18.0 ],
					"id" : "obj-51",
					"fontname" : "Arial Bold"
				}

			}
, 			{
				"box" : 				{
					"maxclass" : "newobj",
					"varname" : "debug[2]",
					"text" : "pattr debug @bindto ::root::debugstate",
					"linecount" : 2,
					"numinlets" : 1,
					"numoutlets" : 3,
					"fontsize" : 10.0,
					"outlettype" : [ "", "", "" ],
					"patching_rect" : [ 4.0, 4.0, 112.0, 29.0 ],
					"id" : "obj-52",
					"fontname" : "Arial Bold",
					"restore" : [ 1.0 ],
					"saved_object_attributes" : 					{
						"parameter_enable" : 0
					}

				}

			}
, 			{
				"box" : 				{
					"maxclass" : "newobj",
					"text" : "print observescene",
					"numinlets" : 1,
					"numoutlets" : 0,
					"fontsize" : 10.0,
					"color" : [ 1.0, 0.0, 0.0, 1.0 ],
					"patching_rect" : [ 4.0, 304.0, 102.0, 18.0 ],
					"id" : "obj-6",
					"fontname" : "Arial Bold"
				}

			}
, 			{
				"box" : 				{
					"maxclass" : "newobj",
					"text" : "t b b",
					"numinlets" : 1,
					"numoutlets" : 2,
					"fontsize" : 10.0,
					"outlettype" : [ "bang", "bang" ],
					"color" : [ 0.047059, 0.913725, 0.913725, 1.0 ],
					"patching_rect" : [ 164.0, 32.0, 32.5, 18.0 ],
					"id" : "obj-1",
					"fontname" : "Arial Bold"
				}

			}
, 			{
				"box" : 				{
					"maxclass" : "outlet",
					"numinlets" : 1,
					"numoutlets" : 0,
					"patching_rect" : [ 200.0, 260.0, 25.0, 25.0 ],
					"id" : "obj-2",
					"comment" : "Current scenes' clip slot ids"
				}

			}
, 			{
				"box" : 				{
					"maxclass" : "message",
					"text" : "0 0 0 0",
					"numinlets" : 2,
					"bgcolor" : [ 0.047059, 0.913725, 0.913725, 1.0 ],
					"numoutlets" : 1,
					"fontsize" : 10.0,
					"outlettype" : [ "" ],
					"patching_rect" : [ 372.0, 216.0, 50.0, 16.0 ],
					"id" : "obj-4",
					"fontname" : "Arial Bold"
				}

			}
, 			{
				"box" : 				{
					"maxclass" : "message",
					"text" : "path live_set view",
					"numinlets" : 2,
					"numoutlets" : 1,
					"fontsize" : 10.0,
					"outlettype" : [ "" ],
					"patching_rect" : [ 164.0, 56.0, 100.0, 16.0 ],
					"id" : "obj-3",
					"fontname" : "Arial Bold"
				}

			}
, 			{
				"box" : 				{
					"maxclass" : "newobj",
					"text" : "zl change",
					"numinlets" : 2,
					"numoutlets" : 2,
					"fontsize" : 10.0,
					"outlettype" : [ "", "" ],
					"patching_rect" : [ 236.0, 240.0, 56.0, 18.0 ],
					"id" : "obj-41",
					"fontname" : "Arial Bold"
				}

			}
, 			{
				"box" : 				{
					"maxclass" : "newobj",
					"text" : "zl delace",
					"numinlets" : 2,
					"numoutlets" : 2,
					"fontsize" : 10.0,
					"outlettype" : [ "", "" ],
					"patching_rect" : [ 164.0, 216.0, 52.0, 18.0 ],
					"id" : "obj-25",
					"fontname" : "Arial Bold"
				}

			}
, 			{
				"box" : 				{
					"maxclass" : "newobj",
					"text" : "t b s",
					"numinlets" : 1,
					"numoutlets" : 2,
					"fontsize" : 10.0,
					"outlettype" : [ "bang", "" ],
					"patching_rect" : [ 164.0, 156.0, 72.0, 18.0 ],
					"id" : "obj-8",
					"fontname" : "Arial Bold"
				}

			}
, 			{
				"box" : 				{
					"maxclass" : "message",
					"text" : "property clip_slots",
					"numinlets" : 2,
					"numoutlets" : 1,
					"fontsize" : 10.0,
					"outlettype" : [ "" ],
					"patching_rect" : [ 164.0, 176.0, 100.0, 16.0 ],
					"id" : "obj-26",
					"fontname" : "Arial Bold"
				}

			}
, 			{
				"box" : 				{
					"maxclass" : "newobj",
					"text" : "live.observer",
					"numinlets" : 2,
					"numoutlets" : 2,
					"fontsize" : 10.0,
					"outlettype" : [ "", "" ],
					"color" : [ 0.976471, 0.823529, 0.054902, 1.0 ],
					"patching_rect" : [ 164.0, 196.0, 75.0, 18.0 ],
					"id" : "obj-28",
					"fontname" : "Arial Bold"
				}

			}
, 			{
				"box" : 				{
					"maxclass" : "newobj",
					"text" : "t b s",
					"numinlets" : 1,
					"numoutlets" : 2,
					"fontsize" : 10.0,
					"outlettype" : [ "bang", "" ],
					"patching_rect" : [ 164.0, 96.0, 72.0, 18.0 ],
					"id" : "obj-9",
					"fontname" : "Arial Bold"
				}

			}
, 			{
				"box" : 				{
					"maxclass" : "message",
					"text" : "property selected_scene",
					"numinlets" : 2,
					"numoutlets" : 1,
					"fontsize" : 10.0,
					"outlettype" : [ "" ],
					"patching_rect" : [ 164.0, 116.0, 129.0, 16.0 ],
					"id" : "obj-10",
					"fontname" : "Arial Bold"
				}

			}
, 			{
				"box" : 				{
					"maxclass" : "newobj",
					"text" : "live.path",
					"numinlets" : 1,
					"numoutlets" : 3,
					"fontsize" : 10.0,
					"outlettype" : [ "", "", "" ],
					"color" : [ 0.976471, 0.823529, 0.054902, 1.0 ],
					"patching_rect" : [ 164.0, 76.0, 51.0, 18.0 ],
					"id" : "obj-29",
					"fontname" : "Arial Bold"
				}

			}
, 			{
				"box" : 				{
					"maxclass" : "newobj",
					"text" : "live.observer",
					"numinlets" : 2,
					"numoutlets" : 2,
					"fontsize" : 10.0,
					"outlettype" : [ "", "" ],
					"color" : [ 0.976471, 0.823529, 0.054902, 1.0 ],
					"patching_rect" : [ 164.0, 136.0, 75.0, 18.0 ],
					"id" : "obj-11",
					"fontname" : "Arial Bold"
				}

			}
, 			{
				"box" : 				{
					"maxclass" : "inlet",
					"numinlets" : 0,
					"numoutlets" : 1,
					"outlettype" : [ "" ],
					"patching_rect" : [ 164.0, 4.0, 25.0, 25.0 ],
					"id" : "obj-36",
					"comment" : "Bang to start watching"
				}

			}
, 			{
				"box" : 				{
					"maxclass" : "outlet",
					"numinlets" : 1,
					"numoutlets" : 0,
					"patching_rect" : [ 236.0, 260.0, 25.0, 25.0 ],
					"id" : "obj-42",
					"comment" : "Current scenes' clip slot ids ON CHANGE"
				}

			}
 ],
		"lines" : [ 			{
				"patchline" : 				{
					"source" : [ "obj-28", 0 ],
					"destination" : [ "obj-16", 0 ],
					"hidden" : 0,
					"midpoints" : [  ]
				}

			}
, 			{
				"patchline" : 				{
					"source" : [ "obj-16", 0 ],
					"destination" : [ "obj-51", 1 ],
					"hidden" : 0,
					"midpoints" : [  ]
				}

			}
, 			{
				"patchline" : 				{
					"source" : [ "obj-15", 0 ],
					"destination" : [ "obj-51", 1 ],
					"hidden" : 0,
					"midpoints" : [  ]
				}

			}
, 			{
				"patchline" : 				{
					"source" : [ "obj-11", 0 ],
					"destination" : [ "obj-15", 0 ],
					"hidden" : 0,
					"midpoints" : [  ]
				}

			}
, 			{
				"patchline" : 				{
					"source" : [ "obj-14", 0 ],
					"destination" : [ "obj-51", 1 ],
					"hidden" : 0,
					"midpoints" : [  ]
				}

			}
, 			{
				"patchline" : 				{
					"source" : [ "obj-29", 0 ],
					"destination" : [ "obj-14", 0 ],
					"hidden" : 0,
					"midpoints" : [  ]
				}

			}
, 			{
				"patchline" : 				{
					"source" : [ "obj-13", 0 ],
					"destination" : [ "obj-28", 1 ],
					"hidden" : 0,
					"color" : [ 0.976471, 0.823529, 0.054902, 1.0 ],
					"midpoints" : [ 309.5, 194.5, 229.5, 194.5 ]
				}

			}
, 			{
				"patchline" : 				{
					"source" : [ "obj-13", 0 ],
					"destination" : [ "obj-11", 1 ],
					"hidden" : 0,
					"color" : [ 0.976471, 0.823529, 0.054902, 1.0 ],
					"midpoints" : [ 309.5, 133.5, 229.5, 133.5 ]
				}

			}
, 			{
				"patchline" : 				{
					"source" : [ "obj-1", 1 ],
					"destination" : [ "obj-13", 0 ],
					"hidden" : 0,
					"color" : [ 0.047059, 0.913725, 0.913725, 1.0 ],
					"midpoints" : [ 187.0, 51.0, 309.5, 51.0 ]
				}

			}
, 			{
				"patchline" : 				{
					"source" : [ "obj-51", 0 ],
					"destination" : [ "obj-6", 0 ],
					"hidden" : 0,
					"midpoints" : [  ]
				}

			}
, 			{
				"patchline" : 				{
					"source" : [ "obj-52", 0 ],
					"destination" : [ "obj-51", 0 ],
					"hidden" : 0,
					"midpoints" : [  ]
				}

			}
, 			{
				"patchline" : 				{
					"source" : [ "obj-41", 0 ],
					"destination" : [ "obj-42", 0 ],
					"hidden" : 0,
					"midpoints" : [  ]
				}

			}
, 			{
				"patchline" : 				{
					"source" : [ "obj-4", 0 ],
					"destination" : [ "obj-41", 1 ],
					"hidden" : 0,
					"midpoints" : [  ]
				}

			}
, 			{
				"patchline" : 				{
					"source" : [ "obj-11", 0 ],
					"destination" : [ "obj-8", 0 ],
					"hidden" : 0,
					"midpoints" : [  ]
				}

			}
, 			{
				"patchline" : 				{
					"source" : [ "obj-8", 1 ],
					"destination" : [ "obj-28", 1 ],
					"hidden" : 0,
					"midpoints" : [  ]
				}

			}
, 			{
				"patchline" : 				{
					"source" : [ "obj-26", 0 ],
					"destination" : [ "obj-28", 0 ],
					"hidden" : 0,
					"midpoints" : [  ]
				}

			}
, 			{
				"patchline" : 				{
					"source" : [ "obj-8", 0 ],
					"destination" : [ "obj-26", 0 ],
					"hidden" : 0,
					"midpoints" : [  ]
				}

			}
, 			{
				"patchline" : 				{
					"source" : [ "obj-10", 0 ],
					"destination" : [ "obj-11", 0 ],
					"hidden" : 0,
					"midpoints" : [  ]
				}

			}
, 			{
				"patchline" : 				{
					"source" : [ "obj-29", 0 ],
					"destination" : [ "obj-9", 0 ],
					"hidden" : 0,
					"midpoints" : [  ]
				}

			}
, 			{
				"patchline" : 				{
					"source" : [ "obj-9", 0 ],
					"destination" : [ "obj-10", 0 ],
					"hidden" : 0,
					"midpoints" : [  ]
				}

			}
, 			{
				"patchline" : 				{
					"source" : [ "obj-9", 1 ],
					"destination" : [ "obj-11", 1 ],
					"hidden" : 0,
					"midpoints" : [  ]
				}

			}
, 			{
				"patchline" : 				{
					"source" : [ "obj-28", 0 ],
					"destination" : [ "obj-25", 0 ],
					"hidden" : 0,
					"midpoints" : [  ]
				}

			}
, 			{
				"patchline" : 				{
					"source" : [ "obj-25", 1 ],
					"destination" : [ "obj-41", 0 ],
					"hidden" : 0,
					"midpoints" : [  ]
				}

			}
, 			{
				"patchline" : 				{
					"source" : [ "obj-3", 0 ],
					"destination" : [ "obj-29", 0 ],
					"hidden" : 0,
					"midpoints" : [  ]
				}

			}
, 			{
				"patchline" : 				{
					"source" : [ "obj-25", 1 ],
					"destination" : [ "obj-2", 0 ],
					"hidden" : 0,
					"midpoints" : [  ]
				}

			}
, 			{
				"patchline" : 				{
					"source" : [ "obj-36", 0 ],
					"destination" : [ "obj-1", 0 ],
					"hidden" : 0,
					"color" : [ 0.047059, 0.913725, 0.913725, 1.0 ],
					"midpoints" : [  ]
				}

			}
, 			{
				"patchline" : 				{
					"source" : [ "obj-1", 0 ],
					"destination" : [ "obj-3", 0 ],
					"hidden" : 0,
					"color" : [ 0.047059, 0.913725, 0.913725, 1.0 ],
					"midpoints" : [  ]
				}

			}
, 			{
				"patchline" : 				{
					"source" : [ "obj-1", 1 ],
					"destination" : [ "obj-4", 0 ],
					"hidden" : 0,
					"color" : [ 0.047059, 0.913725, 0.913725, 1.0 ],
					"midpoints" : [ 187.0, 51.0, 381.5, 51.0 ]
				}

			}
 ]
	}

}
